<?xml version="1.0" encoding="UTF-8"?>
<svg id="Layer_2" data-name="Layer 2" xmlns="http://www.w3.org/2000/svg" viewBox="0 0 220.06 281.74">
  <defs>
    <style>
      .cls-1 {
        stroke: #000;
        stroke-miterlimit: 10;
      }

      .cls-1, .cls-2 {
        fill: #fff;
      }

      .cls-3 {
        fill: #7ac943;
      }

      .cls-3, .cls-4, .cls-2, .cls-5, .cls-6, .cls-7 {
        stroke-width: 0px;
      }

      .cls-4 {
        fill: #c1272d;
      }

      .cls-5 {
        fill: #ffb;
      }

      .cls-6 {
        fill: #fcee3e;
      }

      .cls-7 {
        fill: #001300;
      }
    </style>
  </defs>
  <g id="Blomst-øjenbryn">
    <g>
      <path class="cls-6" d="m127.03,140.72c166-1.48,75.73,181.52-8.39,17,84.12,164.52-98.88,166.15-17,.15-81.88,166-174.61-15.37-8.61-16.85-166,1.48-75.73-181.52,8.39-17-84.12-164.52,98.88-166.15,17-.15,81.88-166,174.61,15.37,8.61,16.85Z"/>
      <path class="cls-5" d="m122.72,140.74c125.02-.76,57.33,137.26-6.29,12.82,63.62,124.43-74.21,125.27-12.8.08-61.4,125.2-131.54-11.98-6.52-12.74-125.02.76-57.33-137.26,6.29-12.82-63.62-124.43,74.21-125.27,12.8-.08,61.4-125.2,131.54,11.98,6.52,12.74Z"/>
      <path class="cls-2" d="m120.33,140.9c99.32-.24,45.86,109.6-4.97,10.2,50.82,99.4-58.67,99.66-10.17.02-48.5,99.64-104.53-9.94-5.2-10.18-99.32.24-45.86-109.6,4.97-10.2-50.82-99.4,58.67-99.66,10.17-.02,48.5-99.64,104.53,9.94,5.2,10.18Z"/>
      <g>
        <path class="cls-1" d="m112.95,127.65s11.36-9.04,21.22-9.21c10.6-.18,22.65,9.21,22.65,9.21,0,0-12.52,8.86-22.96,8.61-9.34-.23-20.9-8.61-20.9-8.61Z"/>
        <ellipse class="cls-3" cx="134.01" cy="127.35" rx="8.1" ry="8.91"/>
        <ellipse class="cls-7" cx="134.14" cy="128.26" rx="3.49" ry="5.09"/>
        <ellipse class="cls-2" cx="137.6" cy="123.21" rx="2.21" ry="3.32"/>
      </g>
      <g>
        <path class="cls-1" d="m65.27,127.57s11.36-9.04,21.22-9.21c10.6-.18,22.65,9.21,22.65,9.21,0,0-12.52,8.86-22.96,8.61-9.34-.23-20.9-8.61-20.9-8.61Z"/>
        <ellipse class="cls-3" cx="86.33" cy="127.27" rx="8.1" ry="8.91"/>
        <ellipse class="cls-7" cx="86.46" cy="128.18" rx="3.49" ry="5.09"/>
        <ellipse class="cls-2" cx="89.92" cy="123.13" rx="2.21" ry="3.32"/>
      </g>
      <g>
        <polygon class="cls-1" points="91.12 153.8 95.13 151.83 99.14 149.86 99.84 161.5 100.54 173.14 95.83 163.47 91.12 153.8"/>
        <polygon class="cls-1" points="121.08 149.8 124.88 152.44 128.69 155.08 123.17 163.88 117.65 172.67 119.36 161.24 121.08 149.8"/>
        <path class="cls-4" d="m82.84,173.1s3.37-22.89,27.29-22.89c23.92,0,27.31,22.89,27.31,22.89,0-19.25-12.22-34.86-27.3-34.86-15.08,0-27.3,15.61-27.3,34.86Z"/>
      </g>
    </g>
  </g>
</svg>