<?xml version="1.0" encoding="UTF-8"?><svg id="Layer_2" xmlns="http://www.w3.org/2000/svg" width="201" height="201" viewBox="0 0 201 201"><defs><style>.cls-1,.cls-2,.cls-3{stroke:#000;stroke-miterlimit:10;}.cls-1,.cls-4{fill:#fff;}.cls-2{fill:#39b54a;}.cls-3{fill:none;}.cls-5,.cls-4,.cls-6,.cls-7{stroke-width:0px;}.cls-6{fill:red;}.cls-7{fill:#001300;}</style></defs><g id="Firkløver-mund"><path class="cls-2" d="m101.17,101.74s31.89-28.78,40.47-49.47l1.9-4.64c1.45-4.25,2.28-8.97,2.28-13.97,0-18.31-10.88-33.16-24.29-33.16-8.56,0-16.06,6.05-20.39,15.17-4.33-9.12-11.84-15.17-20.39-15.17-13.42,0-24.29,14.85-24.29,33.16,0,5,.83,9.72,2.28,13.97l1.9,4.64c8.59,20.69,40.47,49.47,40.47,49.47h.06Z"/><path class="cls-2" d="m100.88,99.1s-31.68,29.04-40.12,49.8l-1.87,4.65c-1.42,4.26-2.22,8.99-2.18,13.98.13,18.31,11.11,33.07,24.53,32.96,8.55-.07,16.02-6.18,20.28-15.34,4.39,9.09,11.94,15.07,20.5,15,13.42-.11,24.19-15.04,24.06-33.36-.04-5-.9-9.71-2.38-13.95l-1.93-4.62c-8.73-20.62-40.82-49.14-40.82-49.14h-.06Z"/><path class="cls-2" d="m94.52,101.09s-26.97-34.14-46.22-43.22l-4.31-2.01c-3.95-1.53-8.33-2.38-12.96-2.34-16.98.16-30.64,12.03-30.52,26.5.08,9.23,5.75,17.27,14.24,21.86-8.42,4.75-13.96,12.9-13.88,22.13.12,14.47,13.98,26.08,30.95,25.91,4.63-.04,9-.98,12.92-2.59l4.28-2.09c19.1-9.45,45.5-44.1,45.5-44.1v-.07Z"/><path class="cls-2" d="m106.39,100.79s27.11,34,46.41,42.99l4.32,1.99c3.96,1.51,8.34,2.34,12.97,2.27,16.98-.25,30.59-12.18,30.41-26.66-.12-9.23-5.83-17.24-14.34-21.79,8.4-4.79,13.9-12.97,13.79-22.2-.18-14.47-14.09-26.01-31.07-25.76-4.63.07-8.99,1.03-12.91,2.65l-4.27,2.11c-19.06,9.54-45.31,44.33-45.31,44.33v.07Z"/><path class="cls-4" d="m153.28,66.72c-.15-.25.99-1.5,6.66-5.95,1.88-1.44,8.42-6.09,17.22-5.39,1.03.08,6.21.57,11.44,4.16,7.28,5,9.09,12.15,9.06,14.29,0,.13-.01.3-.12.39-1.12.93-7.08-10.15-17.2-13.24-5.63-1.72-10.94-.48-13.96.23-7.6,1.78-12.78,5.99-13.09,5.49Z"/><path class="cls-4" d="m69.75,54.7c-.21.19-1.48-.91-6.15-6.55-1.52-1.87-6.46-8.43-6.69-17.95-.03-1.12-.1-6.72,2.7-12.69,3.89-8.31,10.3-10.97,12.28-11.15.12-.01.28-.02.37.09.97,1.11-8.65,8.61-10.49,19.78-1.02,6.21.65,11.79,1.61,14.96,2.4,7.98,6.8,13.12,6.37,13.5Z"/><path class="cls-4" d="m135.92,143.33c.28-.16,1.52,1.29,5.75,8.41,1.37,2.36,5.73,10.53,4.08,21.07-.19,1.23-1.24,7.42-5.66,13.46-6.15,8.41-14.06,10.09-16.37,9.91-.14-.01-.32-.03-.41-.18-.89-1.41,11.69-7.82,16.06-19.77,2.43-6.65,1.62-13.11,1.17-16.8-1.15-9.26-5.18-15.78-4.61-16.11Z"/><path class="cls-4" d="m43.69,142.46c.07.29-1.38,1.09-8.07,3.35-2.21.72-9.78,2.88-17.92-.8-.95-.43-5.72-2.67-9.61-7.87-5.43-7.24-5.03-14.64-4.37-16.66.04-.12.1-.28.23-.33,1.34-.5,3.72,12.05,12.4,18.45,4.83,3.56,10.23,4.2,13.31,4.57,7.73.92,13.89-1.29,14.03-.71Z"/><path class="cls-3" d="m102.14,98.17c-.64-.99-10.1-16.16-5.92-33.47,2.58-10.67,8.86-16,10.91-17.58"/><path class="cls-3" d="m99.47,100.53c.96-.62,15.6-9.83,31.34-4.21,9.7,3.47,14.23,10.58,15.56,12.89"/><path class="cls-3" d="m107.91,152.6c-.84-.8-13.38-13.1-13.15-30.98.15-11.03,5.07-17.82,6.71-19.88"/><path class="cls-3" d="m52.39,108.14c.77-.88,12.57-14,29.13-13.16,10.21.52,16.35,6.05,18.2,7.89"/><path class="cls-1" d="m118.44,104.78c-9.71-.06-17.54-8.01-17.5-17.76s7.99-27.5,17.7-27.44,17.49,17.89,17.45,27.65-7.95,17.61-17.65,17.55Z"/><ellipse class="cls-7" cx="118.45" cy="84.39" rx="11.66" ry="13.28"/><ellipse class="cls-6" cx="118.66" cy="82.7" rx="6.75" ry="7.7"/><ellipse class="cls-7" cx="118.66" cy="82.21" rx="5.04" ry="5.76"/><ellipse class="cls-4" cx="121.01" cy="79.54" rx="2.69" ry="3.09"/><path class="cls-1" d="m80.87,105.16c-9.71-.06-17.54-8.01-17.5-17.76s7.99-27.5,17.7-27.44,17.49,17.89,17.45,27.65-7.95,17.61-17.65,17.55Z"/><ellipse class="cls-7" cx="80.88" cy="84.78" rx="11.66" ry="13.28"/><ellipse class="cls-6" cx="81.09" cy="83.08" rx="6.75" ry="7.7"/><ellipse class="cls-7" cx="81.09" cy="82.59" rx="5.04" ry="5.76"/><ellipse class="cls-4" cx="83.44" cy="79.93" rx="2.69" ry="3.09"/><polygon class="cls-1" points="82.73 118.77 86.36 117.45 89.99 116.14 90.62 123.92 91.25 131.69 86.99 125.23 82.73 118.77"/><polygon class="cls-1" points="109.84 116.1 113.28 117.86 116.73 119.63 111.73 125.5 106.74 131.38 108.29 123.74 109.84 116.1"/><path class="cls-5" d="m75.23,131.66s3.05-15.3,24.69-15.3c21.64,0,24.72,15.3,24.72,15.3,0-12.87-11.06-23.29-24.7-23.29-13.64,0-24.7,10.43-24.7,23.29Z"/></g></svg>