<?xml version="1.0" encoding="UTF-8"?><svg id="Layer_2" xmlns="http://www.w3.org/2000/svg" width="330.02" height="178.35" viewBox="0 0 330.02 178.35"><defs><style>.cls-1{fill:none;stroke:#736357;stroke-miterlimit:10;stroke-width:10px;}.cls-2{fill:#fff;}.cls-2,.cls-3{stroke-width:0px;}.cls-3{fill:#0071bc;}</style></defs><g id="Forgrund"><path class="cls-2" d="m308.05,99.18c9.98-5.93,16.97-19.59,16.97-35.5,0-21.35-12.58-38.66-28.09-38.66s-27.98,17.17-28.08,38.4H81.19c-.1-21.23-12.64-38.4-28.08-38.4s-28.09,17.31-28.09,38.66c0,14.44,5.76,27.03,14.28,33.66-8.52,6.64-14.28,19.22-14.28,33.66,0,21.35,12.58,38.66,28.09,38.66,14.55,0,26.51-15.22,27.94-34.72h187.79c.1,21.23,12.64,38.4,28.08,38.4s28.09-17.31,28.09-38.66c0-15.91-6.99-29.57-16.97-35.5Z"/><path class="cls-1" d="m308.05,99.18c9.98-5.93,16.97-19.59,16.97-35.5,0-21.35-12.58-38.66-28.09-38.66s-27.98,17.17-28.08,38.4H81.19c-.1-21.23-12.64-38.4-28.08-38.4s-28.09,17.31-28.09,38.66c0,14.44,5.76,27.03,14.28,33.66-8.52,6.64-14.28,19.22-14.28,33.66,0,21.35,12.58,38.66,28.09,38.66,14.55,0,26.51-15.22,27.94-34.72h187.79c.1,21.23,12.64,38.4,28.08,38.4s28.09-17.31,28.09-38.66c0-15.91-6.99-29.57-16.97-35.5Z"/><path class="cls-2" d="m307.05,98.18c9.98-5.93,16.97-19.59,16.97-35.5,0-21.35-12.58-38.66-28.09-38.66s-27.98,17.17-28.08,38.4H80.19c-.1-21.23-12.64-38.4-28.08-38.4s-28.09,17.31-28.09,38.66c0,14.44,5.76,27.03,14.28,33.66-8.52,6.64-14.28,19.22-14.28,33.66,0,21.35,12.58,38.66,28.09,38.66,14.55,0,26.51-15.22,27.94-34.72h187.79c.1,21.23,12.64,38.4,28.08,38.4s28.09-17.31,28.09-38.66c0-15.91-6.99-29.57-16.97-35.5Z"/><path class="cls-1" d="m307.05,98.18c9.98-5.93,16.97-19.59,16.97-35.5,0-21.35-12.58-38.66-28.09-38.66s-27.98,17.17-28.08,38.4H80.19c-.1-21.23-12.64-38.4-28.08-38.4s-28.09,17.31-28.09,38.66c0,14.44,5.76,27.03,14.28,33.66-8.52,6.64-14.28,19.22-14.28,33.66,0,21.35,12.58,38.66,28.09,38.66,14.55,0,26.51-15.22,27.94-34.72h187.79c.1,21.23,12.64,38.4,28.08,38.4s28.09-17.31,28.09-38.66c0-15.91-6.99-29.57-16.97-35.5Z"/><path class="cls-2" d="m306.05,97.18c9.98-5.93,16.97-19.59,16.97-35.5,0-21.35-12.58-38.66-28.09-38.66s-27.98,17.17-28.08,38.4H79.19c-.1-21.23-12.64-38.4-28.08-38.4s-28.09,17.31-28.09,38.66c0,14.44,5.76,27.03,14.28,33.66-8.52,6.64-14.28,19.22-14.28,33.66,0,21.35,12.58,38.66,28.09,38.66,14.55,0,26.51-15.22,27.94-34.72h187.79c.1,21.23,12.64,38.4,28.08,38.4s28.09-17.31,28.09-38.66c0-15.91-6.99-29.57-16.97-35.5Z"/><path class="cls-1" d="m306.05,97.18c9.98-5.93,16.97-19.59,16.97-35.5,0-21.35-12.58-38.66-28.09-38.66s-27.98,17.17-28.08,38.4H79.19c-.1-21.23-12.64-38.4-28.08-38.4s-28.09,17.31-28.09,38.66c0,14.44,5.76,27.03,14.28,33.66-8.52,6.64-14.28,19.22-14.28,33.66,0,21.35,12.58,38.66,28.09,38.66,14.55,0,26.51-15.22,27.94-34.72h187.79c.1,21.23,12.64,38.4,28.08,38.4s28.09-17.31,28.09-38.66c0-15.91-6.99-29.57-16.97-35.5Z"/><path class="cls-2" d="m305.05,96.18c9.98-5.93,16.97-19.59,16.97-35.5,0-21.35-12.58-38.66-28.09-38.66s-27.98,17.17-28.08,38.4H78.19c-.1-21.23-12.64-38.4-28.08-38.4s-28.09,17.31-28.09,38.66c0,14.44,5.76,27.03,14.28,33.66-8.52,6.64-14.28,19.22-14.28,33.66,0,21.35,12.58,38.66,28.09,38.66,14.55,0,26.51-15.22,27.94-34.72h187.79c.1,21.23,12.64,38.4,28.08,38.4s28.09-17.31,28.09-38.66c0-15.91-6.99-29.57-16.97-35.5Z"/><path class="cls-1" d="m305.05,96.18c9.98-5.93,16.97-19.59,16.97-35.5,0-21.35-12.58-38.66-28.09-38.66s-27.98,17.17-28.08,38.4H78.19c-.1-21.23-12.64-38.4-28.08-38.4s-28.09,17.31-28.09,38.66c0,14.44,5.76,27.03,14.28,33.66-8.52,6.64-14.28,19.22-14.28,33.66,0,21.35,12.58,38.66,28.09,38.66,14.55,0,26.51-15.22,27.94-34.72h187.79c.1,21.23,12.64,38.4,28.08,38.4s28.09-17.31,28.09-38.66c0-15.91-6.99-29.57-16.97-35.5Z"/><path class="cls-2" d="m304.05,95.18c9.98-5.93,16.97-19.59,16.97-35.5,0-21.35-12.58-38.66-28.09-38.66s-27.98,17.17-28.08,38.4H77.19c-.1-21.23-12.64-38.4-28.08-38.4s-28.09,17.31-28.09,38.66c0,14.44,5.76,27.03,14.28,33.66-8.52,6.64-14.28,19.22-14.28,33.66,0,21.35,12.58,38.66,28.09,38.66,14.55,0,26.51-15.22,27.94-34.72h187.79c.1,21.23,12.64,38.4,28.08,38.4s28.09-17.31,28.09-38.66c0-15.91-6.99-29.57-16.97-35.5Z"/><path class="cls-1" d="m304.05,95.18c9.98-5.93,16.97-19.59,16.97-35.5,0-21.35-12.58-38.66-28.09-38.66s-27.98,17.17-28.08,38.4H77.19c-.1-21.23-12.64-38.4-28.08-38.4s-28.09,17.31-28.09,38.66c0,14.44,5.76,27.03,14.28,33.66-8.52,6.64-14.28,19.22-14.28,33.66,0,21.35,12.58,38.66,28.09,38.66,14.55,0,26.51-15.22,27.94-34.72h187.79c.1,21.23,12.64,38.4,28.08,38.4s28.09-17.31,28.09-38.66c0-15.91-6.99-29.57-16.97-35.5Z"/><path class="cls-2" d="m303.05,94.18c9.98-5.93,16.97-19.59,16.97-35.5,0-21.35-12.58-38.66-28.09-38.66s-27.98,17.17-28.08,38.4H76.19c-.1-21.23-12.64-38.4-28.08-38.4s-28.09,17.31-28.09,38.66c0,14.44,5.76,27.03,14.28,33.66-8.52,6.64-14.28,19.22-14.28,33.66,0,21.35,12.58,38.66,28.09,38.66,14.55,0,26.51-15.22,27.94-34.72h187.79c.1,21.23,12.64,38.4,28.08,38.4s28.09-17.31,28.09-38.66c0-15.91-6.99-29.57-16.97-35.5Z"/><path class="cls-1" d="m303.05,94.18c9.98-5.93,16.97-19.59,16.97-35.5,0-21.35-12.58-38.66-28.09-38.66s-27.98,17.17-28.08,38.4H76.19c-.1-21.23-12.64-38.4-28.08-38.4s-28.09,17.31-28.09,38.66c0,14.44,5.76,27.03,14.28,33.66-8.52,6.64-14.28,19.22-14.28,33.66,0,21.35,12.58,38.66,28.09,38.66,14.55,0,26.51-15.22,27.94-34.72h187.79c.1,21.23,12.64,38.4,28.08,38.4s28.09-17.31,28.09-38.66c0-15.91-6.99-29.57-16.97-35.5Z"/><path class="cls-2" d="m302.04,93.18c9.98-5.93,16.97-19.59,16.97-35.5,0-21.35-12.58-38.66-28.09-38.66s-27.98,17.17-28.08,38.4H75.18c-.1-21.23-12.64-38.4-28.08-38.4s-28.09,17.31-28.09,38.66c0,14.44,5.76,27.03,14.28,33.66-8.52,6.64-14.28,19.22-14.28,33.66,0,21.35,12.58,38.66,28.09,38.66,14.55,0,26.51-15.22,27.94-34.72h187.79c.1,21.23,12.64,38.4,28.08,38.4s28.09-17.31,28.09-38.66c0-15.91-6.99-29.57-16.97-35.5Z"/><path class="cls-1" d="m302.04,93.18c9.98-5.93,16.97-19.59,16.97-35.5,0-21.35-12.58-38.66-28.09-38.66s-27.98,17.17-28.08,38.4H75.18c-.1-21.23-12.64-38.4-28.08-38.4s-28.09,17.31-28.09,38.66c0,14.44,5.76,27.03,14.28,33.66-8.52,6.64-14.28,19.22-14.28,33.66,0,21.35,12.58,38.66,28.09,38.66,14.55,0,26.51-15.22,27.94-34.72h187.79c.1,21.23,12.64,38.4,28.08,38.4s28.09-17.31,28.09-38.66c0-15.91-6.99-29.57-16.97-35.5Z"/><path class="cls-2" d="m301.04,92.18c9.98-5.93,16.97-19.59,16.97-35.5,0-21.35-12.58-38.66-28.09-38.66s-27.98,17.17-28.08,38.4H74.18c-.1-21.23-12.64-38.4-28.08-38.4s-28.09,17.31-28.09,38.66c0,14.44,5.76,27.03,14.28,33.66-8.52,6.64-14.28,19.22-14.28,33.66,0,21.35,12.58,38.66,28.09,38.66,14.55,0,26.51-15.22,27.94-34.72h187.79c.1,21.23,12.64,38.4,28.08,38.4s28.09-17.31,28.09-38.66c0-15.91-6.99-29.57-16.97-35.5Z"/><path class="cls-1" d="m301.04,92.18c9.98-5.93,16.97-19.59,16.97-35.5,0-21.35-12.58-38.66-28.09-38.66s-27.98,17.17-28.08,38.4H74.18c-.1-21.23-12.64-38.4-28.08-38.4s-28.09,17.31-28.09,38.66c0,14.44,5.76,27.03,14.28,33.66-8.52,6.64-14.28,19.22-14.28,33.66,0,21.35,12.58,38.66,28.09,38.66,14.55,0,26.51-15.22,27.94-34.72h187.79c.1,21.23,12.64,38.4,28.08,38.4s28.09-17.31,28.09-38.66c0-15.91-6.99-29.57-16.97-35.5Z"/><path class="cls-2" d="m300.04,91.17c9.98-5.93,16.97-19.59,16.97-35.5,0-21.35-12.58-38.66-28.09-38.66s-27.98,17.17-28.08,38.4H73.18c-.1-21.23-12.64-38.4-28.08-38.4s-28.09,17.31-28.09,38.66c0,14.44,5.76,27.03,14.28,33.66-8.52,6.64-14.28,19.22-14.28,33.66,0,21.35,12.58,38.66,28.09,38.66,14.55,0,26.51-15.22,27.94-34.72h187.79c.1,21.23,12.64,38.4,28.08,38.4s28.09-17.31,28.09-38.66c0-15.91-6.99-29.57-16.97-35.5Z"/><path class="cls-1" d="m300.04,91.17c9.98-5.93,16.97-19.59,16.97-35.5,0-21.35-12.58-38.66-28.09-38.66s-27.98,17.17-28.08,38.4H73.18c-.1-21.23-12.64-38.4-28.08-38.4s-28.09,17.31-28.09,38.66c0,14.44,5.76,27.03,14.28,33.66-8.52,6.64-14.28,19.22-14.28,33.66,0,21.35,12.58,38.66,28.09,38.66,14.55,0,26.51-15.22,27.94-34.72h187.79c.1,21.23,12.64,38.4,28.08,38.4s28.09-17.31,28.09-38.66c0-15.91-6.99-29.57-16.97-35.5Z"/><path class="cls-2" d="m299.04,90.17c9.98-5.93,16.97-19.59,16.97-35.5,0-21.35-12.58-38.66-28.09-38.66s-27.98,17.17-28.08,38.4H72.18c-.1-21.23-12.64-38.4-28.08-38.4s-28.09,17.31-28.09,38.66c0,14.44,5.76,27.03,14.28,33.66-8.52,6.64-14.28,19.22-14.28,33.66,0,21.35,12.58,38.66,28.09,38.66,14.55,0,26.51-15.22,27.94-34.72h187.79c.1,21.23,12.64,38.4,28.08,38.4s28.09-17.31,28.09-38.66c0-15.91-6.99-29.57-16.97-35.5Z"/><path class="cls-1" d="m299.04,90.17c9.98-5.93,16.97-19.59,16.97-35.5,0-21.35-12.58-38.66-28.09-38.66s-27.98,17.17-28.08,38.4H72.18c-.1-21.23-12.64-38.4-28.08-38.4s-28.09,17.31-28.09,38.66c0,14.44,5.76,27.03,14.28,33.66-8.52,6.64-14.28,19.22-14.28,33.66,0,21.35,12.58,38.66,28.09,38.66,14.55,0,26.51-15.22,27.94-34.72h187.79c.1,21.23,12.64,38.4,28.08,38.4s28.09-17.31,28.09-38.66c0-15.91-6.99-29.57-16.97-35.5Z"/><path class="cls-2" d="m298.04,89.17c9.98-5.93,16.97-19.59,16.97-35.5,0-21.35-12.58-38.66-28.09-38.66s-27.98,17.17-28.08,38.4H71.18c-.1-21.23-12.64-38.4-28.08-38.4S15.01,32.32,15.01,53.67c0,14.44,5.76,27.03,14.28,33.66-8.52,6.64-14.28,19.22-14.28,33.66,0,21.35,12.58,38.66,28.09,38.66,14.55,0,26.51-15.22,27.94-34.72h187.79c.1,21.23,12.64,38.4,28.08,38.4s28.09-17.31,28.09-38.66c0-15.91-6.99-29.57-16.97-35.5Z"/><path class="cls-1" d="m298.04,89.17c9.98-5.93,16.97-19.59,16.97-35.5,0-21.35-12.58-38.66-28.09-38.66s-27.98,17.17-28.08,38.4H71.18c-.1-21.23-12.64-38.4-28.08-38.4S15.01,32.32,15.01,53.67c0,14.44,5.76,27.03,14.28,33.66-8.52,6.64-14.28,19.22-14.28,33.66,0,21.35,12.58,38.66,28.09,38.66,14.55,0,26.51-15.22,27.94-34.72h187.79c.1,21.23,12.64,38.4,28.08,38.4s28.09-17.31,28.09-38.66c0-15.91-6.99-29.57-16.97-35.5Z"/><path class="cls-2" d="m297.04,88.17c9.98-5.93,16.97-19.59,16.97-35.5,0-21.35-12.58-38.66-28.09-38.66s-27.98,17.17-28.08,38.4H70.18c-.1-21.23-12.64-38.4-28.08-38.4S14.01,31.32,14.01,52.67c0,14.44,5.76,27.03,14.28,33.66-8.52,6.64-14.28,19.22-14.28,33.66,0,21.35,12.58,38.66,28.09,38.66,14.55,0,26.51-15.22,27.94-34.72h187.79c.1,21.23,12.64,38.4,28.08,38.4s28.09-17.31,28.09-38.66c0-15.91-6.99-29.57-16.97-35.5Z"/><path class="cls-1" d="m297.04,88.17c9.98-5.93,16.97-19.59,16.97-35.5,0-21.35-12.58-38.66-28.09-38.66s-27.98,17.17-28.08,38.4H70.18c-.1-21.23-12.64-38.4-28.08-38.4S14.01,31.32,14.01,52.67c0,14.44,5.76,27.03,14.28,33.66-8.52,6.64-14.28,19.22-14.28,33.66,0,21.35,12.58,38.66,28.09,38.66,14.55,0,26.51-15.22,27.94-34.72h187.79c.1,21.23,12.64,38.4,28.08,38.4s28.09-17.31,28.09-38.66c0-15.91-6.99-29.57-16.97-35.5Z"/><path class="cls-2" d="m296.04,87.17c9.98-5.93,16.97-19.59,16.97-35.5,0-21.35-12.58-38.66-28.09-38.66s-27.98,17.17-28.08,38.4H69.18c-.1-21.23-12.64-38.4-28.08-38.4S13.01,30.32,13.01,51.67c0,14.44,5.76,27.03,14.28,33.66-8.52,6.64-14.28,19.22-14.28,33.66,0,21.35,12.58,38.66,28.09,38.66,14.55,0,26.51-15.22,27.94-34.72h187.79c.1,21.23,12.64,38.4,28.08,38.4s28.09-17.31,28.09-38.66c0-15.91-6.99-29.57-16.97-35.5Z"/><path class="cls-1" d="m296.04,87.17c9.98-5.93,16.97-19.59,16.97-35.5,0-21.35-12.58-38.66-28.09-38.66s-27.98,17.17-28.08,38.4H69.18c-.1-21.23-12.64-38.4-28.08-38.4S13.01,30.32,13.01,51.67c0,14.44,5.76,27.03,14.28,33.66-8.52,6.64-14.28,19.22-14.28,33.66,0,21.35,12.58,38.66,28.09,38.66,14.55,0,26.51-15.22,27.94-34.72h187.79c.1,21.23,12.64,38.4,28.08,38.4s28.09-17.31,28.09-38.66c0-15.91-6.99-29.57-16.97-35.5Z"/><path class="cls-2" d="m295.04,86.17c9.98-5.93,16.97-19.59,16.97-35.5,0-21.35-12.58-38.66-28.09-38.66s-27.98,17.17-28.08,38.4H68.18c-.1-21.23-12.64-38.4-28.08-38.4S12.01,29.31,12.01,50.67c0,14.44,5.76,27.03,14.28,33.66-8.52,6.64-14.28,19.22-14.28,33.66,0,21.35,12.58,38.66,28.09,38.66,14.55,0,26.51-15.22,27.94-34.72h187.79c.1,21.23,12.64,38.4,28.08,38.4s28.09-17.31,28.09-38.66c0-15.91-6.99-29.57-16.97-35.5Z"/><path class="cls-1" d="m295.04,86.17c9.98-5.93,16.97-19.59,16.97-35.5,0-21.35-12.58-38.66-28.09-38.66s-27.98,17.17-28.08,38.4H68.18c-.1-21.23-12.64-38.4-28.08-38.4S12.01,29.31,12.01,50.67c0,14.44,5.76,27.03,14.28,33.66-8.52,6.64-14.28,19.22-14.28,33.66,0,21.35,12.58,38.66,28.09,38.66,14.55,0,26.51-15.22,27.94-34.72h187.79c.1,21.23,12.64,38.4,28.08,38.4s28.09-17.31,28.09-38.66c0-15.91-6.99-29.57-16.97-35.5Z"/><path class="cls-2" d="m294.04,85.17c9.98-5.93,16.97-19.59,16.97-35.5,0-21.35-12.58-38.66-28.09-38.66s-27.98,17.17-28.08,38.4H67.18c-.1-21.23-12.64-38.4-28.08-38.4S11,28.31,11,49.67c0,14.44,5.76,27.03,14.28,33.66-8.52,6.64-14.28,19.22-14.28,33.66,0,21.35,12.58,38.66,28.09,38.66,14.55,0,26.51-15.22,27.94-34.72h187.79c.1,21.23,12.64,38.4,28.08,38.4s28.09-17.31,28.09-38.66c0-15.91-6.99-29.57-16.97-35.5Z"/><path class="cls-1" d="m294.04,85.17c9.98-5.93,16.97-19.59,16.97-35.5,0-21.35-12.58-38.66-28.09-38.66s-27.98,17.17-28.08,38.4H67.18c-.1-21.23-12.64-38.4-28.08-38.4S11,28.31,11,49.67c0,14.44,5.76,27.03,14.28,33.66-8.52,6.64-14.28,19.22-14.28,33.66,0,21.35,12.58,38.66,28.09,38.66,14.55,0,26.51-15.22,27.94-34.72h187.79c.1,21.23,12.64,38.4,28.08,38.4s28.09-17.31,28.09-38.66c0-15.91-6.99-29.57-16.97-35.5Z"/><path class="cls-2" d="m293.04,84.17c9.98-5.93,16.97-19.59,16.97-35.5,0-21.35-12.58-38.66-28.09-38.66s-27.98,17.17-28.08,38.4H66.18c-.1-21.23-12.64-38.4-28.08-38.4S10,27.31,10,48.66c0,14.44,5.76,27.03,14.28,33.66-8.52,6.64-14.28,19.22-14.28,33.66,0,21.35,12.58,38.66,28.09,38.66,14.55,0,26.51-15.22,27.94-34.72h187.79c.1,21.23,12.64,38.4,28.08,38.4s28.09-17.31,28.09-38.66c0-15.91-6.99-29.57-16.97-35.5Z"/><path class="cls-1" d="m293.04,84.17c9.98-5.93,16.97-19.59,16.97-35.5,0-21.35-12.58-38.66-28.09-38.66s-27.98,17.17-28.08,38.4H66.18c-.1-21.23-12.64-38.4-28.08-38.4S10,27.31,10,48.66c0,14.44,5.76,27.03,14.28,33.66-8.52,6.64-14.28,19.22-14.28,33.66,0,21.35,12.58,38.66,28.09,38.66,14.55,0,26.51-15.22,27.94-34.72h187.79c.1,21.23,12.64,38.4,28.08,38.4s28.09-17.31,28.09-38.66c0-15.91-6.99-29.57-16.97-35.5Z"/><path class="cls-2" d="m292.04,83.17c9.98-5.93,16.97-19.59,16.97-35.5,0-21.35-12.58-38.66-28.09-38.66s-27.98,17.17-28.08,38.4H65.18c-.1-21.23-12.64-38.4-28.08-38.4S9,26.31,9,47.66c0,14.44,5.76,27.03,14.28,33.66-8.52,6.64-14.28,19.22-14.28,33.66,0,21.35,12.58,38.66,28.09,38.66,14.55,0,26.51-15.22,27.94-34.72h187.79c.1,21.23,12.64,38.4,28.08,38.4s28.09-17.31,28.09-38.66c0-15.91-6.99-29.57-16.97-35.5Z"/><path class="cls-1" d="m292.04,83.17c9.98-5.93,16.97-19.59,16.97-35.5,0-21.35-12.58-38.66-28.09-38.66s-27.98,17.17-28.08,38.4H65.18c-.1-21.23-12.64-38.4-28.08-38.4S9,26.31,9,47.66c0,14.44,5.76,27.03,14.28,33.66-8.52,6.64-14.28,19.22-14.28,33.66,0,21.35,12.58,38.66,28.09,38.66,14.55,0,26.51-15.22,27.94-34.72h187.79c.1,21.23,12.64,38.4,28.08,38.4s28.09-17.31,28.09-38.66c0-15.91-6.99-29.57-16.97-35.5Z"/><path class="cls-2" d="m291.04,82.17c9.98-5.93,16.97-19.59,16.97-35.5,0-21.35-12.58-38.66-28.09-38.66s-27.98,17.17-28.08,38.4H64.18c-.1-21.23-12.64-38.4-28.08-38.4S8,25.31,8,46.66c0,14.44,5.76,27.03,14.28,33.66-8.52,6.64-14.28,19.22-14.28,33.66,0,21.35,12.58,38.66,28.09,38.66,14.55,0,26.51-15.22,27.94-34.72h187.79c.1,21.23,12.64,38.4,28.08,38.4s28.09-17.31,28.09-38.66c0-15.91-6.99-29.57-16.97-35.5Z"/><path class="cls-1" d="m291.04,82.17c9.98-5.93,16.97-19.59,16.97-35.5,0-21.35-12.58-38.66-28.09-38.66s-27.98,17.17-28.08,38.4H64.18c-.1-21.23-12.64-38.4-28.08-38.4S8,25.31,8,46.66c0,14.44,5.76,27.03,14.28,33.66-8.52,6.64-14.28,19.22-14.28,33.66,0,21.35,12.58,38.66,28.09,38.66,14.55,0,26.51-15.22,27.94-34.72h187.79c.1,21.23,12.64,38.4,28.08,38.4s28.09-17.31,28.09-38.66c0-15.91-6.99-29.57-16.97-35.5Z"/><path class="cls-2" d="m290.04,81.17c9.98-5.93,16.97-19.59,16.97-35.5,0-21.35-12.58-38.66-28.09-38.66s-27.98,17.17-28.08,38.4H63.18c-.1-21.23-12.64-38.4-28.08-38.4S7,24.31,7,45.66c0,14.44,5.76,27.03,14.28,33.66-8.52,6.64-14.28,19.22-14.28,33.66,0,21.35,12.58,38.66,28.09,38.66,14.55,0,26.51-15.22,27.94-34.72h187.79c.1,21.23,12.64,38.4,28.08,38.4s28.09-17.31,28.09-38.66c0-15.91-6.99-29.57-16.97-35.5Z"/><path class="cls-1" d="m290.04,81.17c9.98-5.93,16.97-19.59,16.97-35.5,0-21.35-12.58-38.66-28.09-38.66s-27.98,17.17-28.08,38.4H63.18c-.1-21.23-12.64-38.4-28.08-38.4S7,24.31,7,45.66c0,14.44,5.76,27.03,14.28,33.66-8.52,6.64-14.28,19.22-14.28,33.66,0,21.35,12.58,38.66,28.09,38.66,14.55,0,26.51-15.22,27.94-34.72h187.79c.1,21.23,12.64,38.4,28.08,38.4s28.09-17.31,28.09-38.66c0-15.91-6.99-29.57-16.97-35.5Z"/><path class="cls-2" d="m289.03,80.17c9.98-5.93,16.97-19.59,16.97-35.5,0-21.35-12.58-38.66-28.09-38.66s-27.98,17.17-28.08,38.4H62.17c-.1-21.23-12.64-38.4-28.08-38.4S6,23.31,6,44.66c0,14.44,5.76,27.03,14.28,33.66-8.52,6.64-14.28,19.22-14.28,33.66,0,21.35,12.58,38.66,28.09,38.66,14.55,0,26.51-15.22,27.94-34.72h187.79c.1,21.23,12.64,38.4,28.08,38.4s28.09-17.31,28.09-38.66c0-15.91-6.99-29.57-16.97-35.5Z"/><path class="cls-1" d="m289.03,80.17c9.98-5.93,16.97-19.59,16.97-35.5,0-21.35-12.58-38.66-28.09-38.66s-27.98,17.17-28.08,38.4H62.17c-.1-21.23-12.64-38.4-28.08-38.4S6,23.31,6,44.66c0,14.44,5.76,27.03,14.28,33.66-8.52,6.64-14.28,19.22-14.28,33.66,0,21.35,12.58,38.66,28.09,38.66,14.55,0,26.51-15.22,27.94-34.72h187.79c.1,21.23,12.64,38.4,28.08,38.4s28.09-17.31,28.09-38.66c0-15.91-6.99-29.57-16.97-35.5Z"/><path class="cls-2" d="m288.03,79.17c9.98-5.93,16.97-19.59,16.97-35.5,0-21.35-12.58-38.66-28.09-38.66s-27.98,17.17-28.08,38.4H61.17c-.1-21.23-12.64-38.4-28.08-38.4S5,22.31,5,43.66c0,14.44,5.76,27.03,14.28,33.66-8.52,6.64-14.28,19.22-14.28,33.66,0,21.35,12.58,38.66,28.09,38.66,14.55,0,26.51-15.22,27.94-34.72h187.79c.1,21.23,12.64,38.4,28.08,38.4s28.09-17.31,28.09-38.66c0-15.91-6.99-29.57-16.97-35.5Z"/><path class="cls-1" d="m288.03,79.17c9.98-5.93,16.97-19.59,16.97-35.5,0-21.35-12.58-38.66-28.09-38.66s-27.98,17.17-28.08,38.4H61.17c-.1-21.23-12.64-38.4-28.08-38.4S5,22.31,5,43.66c0,14.44,5.76,27.03,14.28,33.66-8.52,6.64-14.28,19.22-14.28,33.66,0,21.35,12.58,38.66,28.09,38.66,14.55,0,26.51-15.22,27.94-34.72h187.79c.1,21.23,12.64,38.4,28.08,38.4s28.09-17.31,28.09-38.66c0-15.91-6.99-29.57-16.97-35.5Z"/><path class="cls-3" d="m57.61,58.98h12.12v13.88h6.77v-13.88h12.18v40.78h-12.18v-15.1h-6.77v15.1h-12.12v-40.78Zm7.17,35.89v-15.47h16.73v15.47h1.48v-31h-1.48v14.06h-16.73v-14.06h-1.48v31h1.48Z"/><path class="cls-3" d="m91.81,79.4c0-2.93.52-5.71,1.56-8.31,1.04-2.61,2.47-4.88,4.27-6.82,1.8-1.94,3.92-3.46,6.35-4.59,2.43-1.12,5.01-1.68,7.74-1.68s5.31.56,7.74,1.68c2.43,1.12,4.54,2.65,6.35,4.59,1.8,1.94,3.22,4.21,4.27,6.82,1.04,2.61,1.57,5.38,1.57,8.31s-.52,5.71-1.57,8.31c-1.04,2.61-2.47,4.88-4.27,6.82-1.8,1.94-3.92,3.46-6.35,4.58-2.43,1.12-5.01,1.68-7.74,1.68s-5.31-.56-7.74-1.68c-2.43-1.12-4.54-2.65-6.35-4.58-1.8-1.94-3.23-4.21-4.27-6.82-1.04-2.61-1.56-5.38-1.56-8.31Zm5.35,0c0,2.16.38,4.19,1.14,6.08.76,1.9,1.8,3.56,3.13,4.98,1.33,1.43,2.87,2.55,4.64,3.36,1.76.82,3.65,1.22,5.66,1.22s3.9-.41,5.66-1.22c1.76-.82,3.31-1.94,4.64-3.36,1.33-1.43,2.37-3.09,3.13-4.98.76-1.89,1.14-3.92,1.14-6.08s-.38-4.19-1.14-6.08c-.76-1.9-1.8-3.56-3.13-4.98-1.33-1.43-2.87-2.55-4.64-3.36-1.76-.81-3.65-1.22-5.66-1.22s-3.9.41-5.66,1.22c-1.76.82-3.31,1.94-4.64,3.36-1.33,1.43-2.37,3.09-3.13,4.98-.76,1.89-1.14,3.92-1.14,6.08Zm14.57,14.06c-1.82,0-3.52-.37-5.09-1.1-1.57-.73-2.96-1.74-4.15-3.03-1.2-1.28-2.13-2.77-2.82-4.46-.68-1.69-1.02-3.51-1.02-5.47s.34-3.78,1.02-5.47c.68-1.69,1.62-3.18,2.82-4.46,1.2-1.28,2.58-2.29,4.15-3.03,1.57-.73,3.27-1.1,5.09-1.1s3.52.37,5.09,1.1c1.57.73,2.96,1.74,4.15,3.03,1.2,1.28,2.13,2.77,2.82,4.46s1.02,3.51,1.02,5.47-.34,3.78-1.02,5.47c-.68,1.69-1.62,3.18-2.82,4.46-1.2,1.28-2.58,2.29-4.15,3.03-1.57.73-3.27,1.1-5.09,1.1Zm-7.97-14.06c0,1.18.21,2.29.63,3.33.42,1.04.99,1.95,1.71,2.72.72.77,1.57,1.39,2.53,1.83.97.45,2,.67,3.1.67s2.13-.22,3.1-.67c.97-.45,1.81-1.06,2.53-1.83.72-.77,1.29-1.68,1.71-2.72.42-1.04.63-2.15.63-3.33s-.21-2.29-.63-3.33c-.42-1.04-.99-1.95-1.71-2.72-.72-.77-1.56-1.38-2.53-1.83-.97-.45-2-.67-3.1-.67s-2.13.22-3.1.67c-.97.45-1.81,1.06-2.53,1.83-.72.77-1.29,1.68-1.71,2.72-.42,1.04-.63,2.15-.63,3.33Z"/><path class="cls-3" d="m129.66,58.98h12.86l4.38,14.25,4.38-14.25h8.31l4.38,14.25,4.38-14.25h12.86l-12.52,40.78h-9.45l-3.81-12.35-3.81,12.35h-9.45l-12.52-40.78Zm18.21,35.89l7.57-25.62,7.57,25.62h1.42l9.5-31h-1.54l-8.65,28.18-8.31-28.18-8.31,28.18-8.65-28.18h-1.54l9.5,31h1.42Z"/><path class="cls-3" d="m198.46,69.68h-7v-10.7h26.52v10.7h-7v30.08h-12.52v-30.08Zm7,25.19v-29.53h8.14v-1.47h-17.76v1.47h8.14v29.53h1.48Z"/><path class="cls-3" d="m217.41,79.4c0-2.93.52-5.71,1.56-8.31,1.04-2.61,2.47-4.88,4.27-6.82,1.8-1.94,3.92-3.46,6.35-4.59,2.43-1.12,5.01-1.68,7.74-1.68s5.31.56,7.74,1.68c2.43,1.12,4.54,2.65,6.35,4.59,1.8,1.94,3.22,4.21,4.27,6.82,1.04,2.61,1.56,5.38,1.56,8.31s-.52,5.71-1.56,8.31c-1.04,2.61-2.47,4.88-4.27,6.82-1.8,1.94-3.92,3.46-6.35,4.58-2.43,1.12-5.01,1.68-7.74,1.68s-5.31-.56-7.74-1.68c-2.43-1.12-4.54-2.65-6.35-4.58-1.8-1.94-3.23-4.21-4.27-6.82-1.04-2.61-1.56-5.38-1.56-8.31Zm5.35,0c0,2.16.38,4.19,1.14,6.08.76,1.9,1.8,3.56,3.13,4.98,1.33,1.43,2.87,2.55,4.64,3.36,1.76.82,3.65,1.22,5.66,1.22s3.9-.41,5.66-1.22c1.76-.82,3.31-1.94,4.64-3.36,1.33-1.43,2.37-3.09,3.13-4.98.76-1.89,1.14-3.92,1.14-6.08s-.38-4.19-1.14-6.08c-.76-1.9-1.8-3.56-3.13-4.98-1.33-1.43-2.87-2.55-4.64-3.36-1.76-.81-3.65-1.22-5.66-1.22s-3.9.41-5.66,1.22c-1.76.82-3.31,1.94-4.64,3.36-1.33,1.43-2.37,3.09-3.13,4.98-.76,1.89-1.14,3.92-1.14,6.08Zm14.57,14.06c-1.82,0-3.52-.37-5.09-1.1-1.57-.73-2.96-1.74-4.15-3.03-1.2-1.28-2.13-2.77-2.82-4.46-.68-1.69-1.02-3.51-1.02-5.47s.34-3.78,1.02-5.47c.68-1.69,1.62-3.18,2.82-4.46,1.19-1.28,2.58-2.29,4.15-3.03,1.57-.73,3.27-1.1,5.09-1.1s3.52.37,5.09,1.1c1.57.73,2.96,1.74,4.15,3.03,1.2,1.28,2.13,2.77,2.82,4.46.68,1.69,1.02,3.51,1.02,5.47s-.34,3.78-1.02,5.47c-.68,1.69-1.62,3.18-2.82,4.46-1.2,1.28-2.58,2.29-4.15,3.03-1.57.73-3.27,1.1-5.09,1.1Zm-7.97-14.06c0,1.18.21,2.29.63,3.33.42,1.04.99,1.95,1.71,2.72.72.77,1.56,1.39,2.53,1.83.97.45,2,.67,3.1.67s2.13-.22,3.1-.67c.97-.45,1.81-1.06,2.53-1.83.72-.77,1.29-1.68,1.71-2.72.42-1.04.63-2.15.63-3.33s-.21-2.29-.63-3.33c-.42-1.04-.99-1.95-1.71-2.72-.72-.77-1.56-1.38-2.53-1.83-.97-.45-2-.67-3.1-.67s-2.13.22-3.1.67c-.97.45-1.81,1.06-2.53,1.83-.72.77-1.29,1.68-1.71,2.72-.42,1.04-.63,2.15-.63,3.33Z"/></g></svg>