<?xml version="1.0" encoding="UTF-8"?><svg id="Layer_2" xmlns="http://www.w3.org/2000/svg" xmlns:xlink="http://www.w3.org/1999/xlink" viewBox="0 0 604.72 587.84"><defs><style>.cls-1{fill:none;}.cls-1,.cls-2,.cls-3,.cls-4,.cls-5,.cls-6,.cls-7,.cls-8,.cls-9,.cls-10,.cls-11{stroke-miterlimit:10;}.cls-1,.cls-2,.cls-8,.cls-9,.cls-10,.cls-11{stroke-width:3px;}.cls-1,.cls-7{stroke:#8c6239;}.cls-2,.cls-8,.cls-9,.cls-10,.cls-11{stroke:#603813;}.cls-12{fill:url(#linear-gradient);}.cls-12,.cls-13,.cls-14,.cls-15,.cls-16,.cls-17{stroke-width:0px;}.cls-3,.cls-6{stroke:#000;}.cls-3,.cls-11,.cls-17{fill:#fff;}.cls-4,.cls-5{stroke:#754c24;}.cls-4,.cls-7,.cls-9{fill:#c69c6d;}.cls-5,.cls-15{fill:#a67c52;}.cls-6,.cls-10{fill:#29abe2;}.cls-8{fill:#736357;}.cls-14{fill:#754c24;}.cls-16{fill:#8c6239;}</style><linearGradient id="linear-gradient" x1="434.47" y1="469.68" x2="604.72" y2="469.68" gradientUnits="userSpaceOnUse"><stop offset="0" stop-color="#fff"/><stop offset="0" stop-color="#f9f7f5"/><stop offset="0" stop-color="#e8e2dc"/><stop offset="0" stop-color="#cec0b2"/><stop offset="0" stop-color="#aa9178"/><stop offset="0" stop-color="#7c5630"/><stop offset="0" stop-color="#754c24"/><stop offset=".87" stop-color="#754c24"/><stop offset=".99" stop-color="#754c24"/></linearGradient></defs><g id="Forgrund"><path class="cls-4" d="m376.2,547.87c-3.83,11.45-20.82,10.95-34.07,10.56-12.55-.37-17.76-4.32-20.69-7.54-1.2-1.33-4.57-5.12-6.09-11.32-3.42-14.05,6.01-26.74,6.7-27.64,4.78-22.63,9.49-57.12,4.47-96.67,9.38-8.97,17.72-18.34,25.11-27.78.07,1.64.15,3.29.23,4.94,1.61,32.68,3.64,64.67,6.02,95.95.61,7.9,1.23,15.74,1.89,23.55,6.4,5.37,11.23,11.83,14.12,18.13,3.02,6.57,3.93,12.97,2.31,17.81Z"/><path class="cls-15" d="m398.44,284.24c-4.98.39-11.37.61-18.73.16,5.18.16,11.6.35,18.73-.16Z"/><path class="cls-4" d="m402.44,283.88c.74-1.33,12.09-22.64,2.17-40.94-3.29-6.08-7.86-9.84-11.29-12.06-2.98-.87-11.78-3.27-12.9-.86-.05.11-.09.23-.1.37,0,0,0,0,0,0t0-.02c-.96-16.87-2-25.31-3.11-25.32-.77,0-1.58,4.01-2.42,12.06h0c.81-4.02,1.61-8.04,2.42-12.06-4.8-5.67-9.6-11.34-14.4-17.01l-4.55-10.98c-6.22,5.43-16.13,13.64-29.02,22.39-15.34,10.41-29.87,18.17-42.12,23.86-10.05,4.67-14.75,6.15-21.26,8.87-5.37,2.24-24.05,10.35-56.33,35.74-47.57,37.42-109.22,100.23-113.38,104.49.27.36.55.71.82,1.08-14.03,18.1-22.47,41.34-22.47,66.68,0,57.79,43.85,104.64,97.94,104.64,14.6,0,28.45-3.41,40.89-9.53,4.77,2.56,9.44,4.78,13.64,6.55,7.87,3.32,16.23,5.97,24.34,7.87-.03,1.2.1,2.39.41,3.55,2.69,10.31,17.56,14.89,33.21,10.22,15.65-4.66,26.17-16.79,23.47-27.1-2.36-9.03-14.08-13.68-27.48-11.52-3.82-3.9-8.48-8.54-14.16-14.06-4.84-4.7-9.13-8.79-12.95-12.35,7.87-12.52,13.28-26.95,15.48-42.51,3.16-1.6,6.34-3.3,9.52-5.1,18.32-10.37,34.12-22.55,47.71-35.56,9.38-8.97,17.72-18.34,25.11-27.78,3.99-5.1,7.71-10.22,11.16-15.31,6.49-9.55,17.57-26.01,27.25-49.45,3.98-9.65,8.66-22.73,12.4-38.83Z"/><path class="cls-5" d="m80.23,436.02c-25.09-6.5-52.07.47-67.33,17.01-16.5,17.87-12.03,39.01-11.3,42.17.82,9.57,1.65,19.13,2.47,28.7,10.16,12.4,20.32,24.8,30.48,37.21,15.44,8.13,30.88,16.26,46.32,24.4l-.39-.35.39.35c-3.14-2.9-15.69-15.19-13.42-31.96.6-4.45,2.12-8.26,3.78-11.33-4.92.48-9.85.97-14.77,1.45l-.17-21.91c-5.57.55-11.15,1.09-16.72,1.64,1.02-6.25,2.05-12.5,3.07-18.75-4.54-1.96-9.08-3.92-13.62-5.88,5.44-6.39,9.98-13.34,7.3-16.8-2.52-3.25-10.51-.81-11.86-3.61-1.52-3.16,8.02-7.3,10.99-16.23,1.47-4.43.81-8.46-.03-11.25,14.94-4.95,29.88-9.9,44.82-14.85Z"/><path class="cls-7" d="m418.67,520.31c-4.11,11.45-22.32,10.95-36.53,10.56-3.17-.09-5.9-.38-8.26-.81-7.67-1.39-11.5-4.27-13.91-6.73-1.3-1.33-4.91-5.12-6.52-11.32-2.52-9.64,1.45-18.65,4.43-23.63,1.36-2.28,2.52-3.72,2.74-4,5.79-25.55,11.48-66.2,2.17-112.2,11.88-17.48,20.73-34.64,27.25-49.45.19-.04.39-.08.59-.11.56,13.96,1.21,28.05,1.96,42.26,2.15,40.93,5.02,80.78,8.47,119.51,14.01,10.99,21.01,26.47,17.61,35.94Z"/><path class="cls-9" d="m367,146.57h-18.26c-1.06.32-2.17.5-3.31.5s-2.25-.17-3.31-.5h-19.02s-2.9-53.06,21.95-61.17c24.85-8.11,21.95,61.17,21.95,61.17Z"/><path class="cls-9" d="m387.43,195.21c-5.94,3.64-12.21,3.49-15.02,3.43-3.39-.07-9.3-.2-14.73-4-1.71-1.2-8.81-6.01-8.22-13.16.45-5.5,5.26-10.29,12.04-12,1.92-.48,3.48-.66,6.56-.84,6.19-.35,11.29.11,14.73.59,7.31,1.5,12.85,6.36,13.74,11.93,1.24,7.68-6.99,12.74-9.09,14.03Z"/><path class="cls-9" d="m422.82,146.41h-19.02c-1.06.32-2.17.5-3.31.5s-2.25-.17-3.31-.5h-18.26s-2.89-69.28,21.95-61.17c24.85,8.11,21.95,61.17,21.95,61.17Z"/><path class="cls-11" d="m367,146.57h-43.9s-2.9-53.06,21.95-61.17c24.85-8.11,21.95,61.17,21.95,61.17Z"/><ellipse class="cls-11" cx="345.21" cy="124.14" rx="17.69" ry="22.43"/><path class="cls-10" d="m359.81,128.37c0,6.76-2.76,12.67-6.88,15.95-.01,0-.03.02-.04.03-1.26,1.01-2.66,1.76-4.14,2.21-1.06.32-2.17.5-3.31.5s-2.25-.17-3.31-.5c-.99-.3-1.94-.74-2.84-1.29-4.87-3-8.23-9.44-8.23-16.91,0-10.32,6.44-18.7,14.38-18.7s14.38,8.37,14.38,18.7Z"/><ellipse class="cls-2" cx="345.65" cy="128.62" rx="10.62" ry="11.96"/><ellipse class="cls-11" cx="349.41" cy="121.4" rx="4.2" ry="4.74"/><path class="cls-11" d="m422.82,146.41h-43.9s-2.89-69.28,21.95-61.17c24.85,8.11,21.95,61.17,21.95,61.17Z"/><ellipse class="cls-11" cx="400.71" cy="123.97" rx="17.69" ry="22.43"/><path class="cls-10" d="m414.86,128.21c0,7.47-3.37,13.91-8.23,16.91-.9.55-1.84.99-2.84,1.29-1.06.32-2.17.5-3.31.5s-2.25-.17-3.31-.5c-1.48-.45-2.88-1.2-4.14-2.21-.01,0-.03-.02-.04-.03-4.13-3.28-6.88-9.2-6.88-15.95,0-10.32,6.44-18.7,14.38-18.7s14.38,8.37,14.38,18.7Z"/><ellipse class="cls-2" cx="400.26" cy="128.46" rx="10.62" ry="11.96"/><ellipse class="cls-11" cx="396.5" cy="121.23" rx="4.2" ry="4.74"/><path class="cls-8" d="m387.43,195.21c-5.94,3.64-12.21,3.49-15.02,3.43-3.39-.07-9.3-.2-14.73-4-1.71-1.2-8.81-6.01-8.22-13.16.45-5.5,5.26-10.29,12.04-12,1.92-.48,3.48-.66,6.56-.84,6.19-.35,11.29.11,14.73.59,7.31,1.5,12.85,6.36,13.74,11.93,1.24,7.68-6.99,12.74-9.09,14.03Z"/><ellipse class="cls-17" cx="378.87" cy="176.72" rx="6.39" ry="11.83" transform="translate(158.93 532.24) rotate(-83.26)"/><path class="cls-4" d="m472.28,138.73c-2.53-29.22-14.1-63.52-33.12-88.94-1.32-1.77-2.67-3.49-4.06-5.16.5-1.92.79-4.03.79-6.23,0-9.09-4.76-16.45-10.62-16.45-3.18,0-6.03,2.16-7.97,5.59-.12.2-.22.41-.33.62.06-.24.12-.49.18-.74.4-1.71.6-3.56.6-5.47,0-9.09-4.75-16.45-10.61-16.45-4.65,0-8.6,4.63-10.04,11.08-.19-.07-.4-.13-.59-.21-.2-8.81-4.87-15.85-10.61-15.85-4.92,0-9.06,5.18-10.26,12.22-.27,0-.55,0-.82,0-.55,0-1.11,0-1.66.03-1.2-7.04-5.34-12.24-10.26-12.24-5.79,0-10.5,7.19-10.62,16.12-.17.07-.35.13-.53.19-1.39-6.58-5.38-11.33-10.09-11.33-5.86,0-10.62,7.36-10.62,16.45,0,2.09.26,4.08.71,5.91-.12.09-.25.19-.37.29-1.94-3.78-4.94-6.2-8.3-6.2-5.87,0-10.62,7.36-10.62,16.45,0,2.59.39,5.03,1.08,7.2-1.28,1.56-2.52,3.16-3.74,4.8-18.74,25.26-30.15,59.13-32.45,88.33-.23,2.86-.52,7.52-.5,13.43.03,13.45,1.6,33.31,8.94,52.81,4.2,11.17,10.29,22.22,19.07,31.87,24.05,26.47,54.58,27.41,69.96,27.89,5.9.19,13.46.42,21.85-.51,13.66-1.52,29.48-6.16,43.66-19.21,25.84-23.75,31.53-61.83,32.37-85.58.37-10.6-.22-18.35-.43-20.7Zm-127.23-53.33c24.85-8.11,21.96,61.17,21.96,61.17h-18.27c-1.06.33-2.17.5-3.31.5s-2.25-.17-3.31-.5h-19.02s-2.9-53.06,21.95-61.17Zm23.53,113.05c-.29-.03-.59-.06-.89-.1-.3-.03-.61-.08-.93-.13-.26-.04-.53-.08-.81-.14-.03,0-.05,0-.09-.02-.22-.04-.46-.08-.69-.14-.12-.03-.23-.05-.35-.08-.05,0-.12-.03-.18-.04h-.02c-.15-.04-.32-.08-.47-.13-.26-.08-.53-.15-.8-.24-.02,0-.02,0-.04,0-.27-.09-.55-.18-.82-.28-.24-.08-.47-.17-.71-.27-.05-.02-.1-.04-.15-.06-.23-.1-.47-.2-.71-.3-.27-.13-.54-.25-.81-.4-.28-.13-.55-.28-.82-.44-.24-.13-.47-.28-.72-.42,0,0,0,0,0,0-.29-.19-.6-.38-.89-.59-1.71-1.2-8.81-6.01-8.23-13.16.02-.29.06-.58.11-.87.02-.14.05-.29.09-.43.02-.09.04-.19.06-.29.03-.14.07-.29.12-.44.02-.09.05-.19.09-.28.07-.23.15-.45.23-.67,0-.03.02-.08.05-.11.05-.13.1-.26.16-.4l.14-.3c.06-.13.13-.27.2-.4.09-.17.18-.33.27-.49.06-.12.13-.24.2-.35.06-.1.13-.21.2-.31.09-.13.19-.28.29-.41.08-.12.17-.23.26-.34.09-.12.18-.23.27-.34h0s.02-.03.03-.04c.19-.24.4-.46.6-.68.22-.23.44-.45.67-.67,0,0,0,0,0,0,.19-.18.4-.35.6-.52.02-.02.04-.03.06-.05.06-.06.13-.11.21-.17.2-.16.41-.33.64-.48.25-.19.51-.36.78-.54.02-.02.05-.03.09-.05.22-.14.45-.28.68-.41.02-.02.05-.03.08-.04.06-.03.12-.07.19-.1.26-.14.53-.29.8-.41.28-.13.56-.27.85-.4.03-.02.07-.03.1-.04.15-.07.32-.13.48-.19.13-.06.26-.1.39-.15.02,0,.04-.02.05-.02.17-.07.33-.13.5-.18.15-.06.31-.11.47-.15.13-.04.26-.08.4-.12.21-.06.42-.12.63-.17,1.92-.48,3.48-.66,6.56-.83,6.18-.35,11.28.12,14.72.59,7.31,1.5,12.85,6.37,13.74,11.94,1.24,7.68-6.99,12.75-9.09,14.04-5.94,3.65-12.21,3.5-15.02,3.44-.71-.02-1.53-.03-2.43-.09-.45-.03-.91-.06-1.4-.11Zm54.23-52.04h-19.02c-1.06.32-2.17.5-3.31.5s-2.25-.18-3.31-.5h-18.27s-2.89-69.28,21.96-61.18c24.85,8.11,21.95,61.18,21.95,61.18Z"/><path class="cls-4" d="m309.82,50.39c-18.74,25.27-30.15,59.13-32.46,88.33-.23,2.86-.51,7.53-.5,13.44-8.89,18.68-22.29,46.53-29.07,44.04-2.26-.83-4.01-5.08-6.59-4.43-3.06.77-2.97,7.36-5.78,7.91-1.6.31-2.49-1.67-4.14-3.66-.82-1-1.84-1.99-3.22-2.72-5.86-3.05-9.87,3.29-15.5.47-3.1-1.55-4.85-4.96-8.02-11.13-2.88-5.59-2.99-8.22-5.19-9-3.68-1.33-7.22,4.63-9.39,3.13-1.15-.8-.67-2.87-.97-9.52-.28-6.33-.45-9.52-1.91-10.57-2.75-1.99-7.65,3.06-8.92,1.55-.93-1.12,2.79-4.3,2.79-9.5,0-.04,0-.08,0-.12h0c-.03-2.61-.99-4.55-2.54-7.7-3.05-6.2-6.16-7.88-5.49-10,.88-2.76,5.43-3.18,6.55-3.33,14.31-1.88,26.01-31.84,34.61-47.62,16.6-30.41,49.52-60.49,71.53-51.16,7.24,3.07,14.13,9.42,14.13,9.42,0,0,6.01,5.53,10.05,12.17Z"/><path class="cls-16" d="m182.32,149.21c6.34-15.36,17.55-27.88,30.16-38.44,6.12-5.13,12.58-9.82,19.09-14.43,6.15-4.35,12.27-8.85,17.5-14.31,5.98-6.25,10.55-13.8,12-22.42.32-1.89-2.57-2.7-2.89-.8-2.63,15.63-15.34,25.88-27.54,34.53-13.09,9.29-26.14,18.94-36.56,31.27-6.06,7.17-11.06,15.11-14.64,23.8-.74,1.78,2.17,2.56,2.89.8h0Z"/><path class="cls-14" d="m193,176.03c6.07-19.6,17.77-36.39,32.33-50.66,6.71-6.58,13.91-12.63,21.19-18.58,6.76-5.52,13.41-11.28,18.81-18.17,6.77-8.63,11.06-18.6,12.15-29.55.19-1.92-2.81-1.91-3,0-.97,9.7-4.73,18.71-10.55,26.49-5.22,6.97-11.83,12.78-18.52,18.28-14.66,12.04-29.03,24.48-39.98,40.14-6.69,9.56-11.87,20.1-15.32,31.25-.57,1.85,2.32,2.64,2.89.8h0Z"/><path class="cls-16" d="m232.79,196.04c1.64-18.43,8.78-35.58,18.44-51.19,4.55-7.36,9.6-14.4,14.77-21.34,5.04-6.76,10.07-13.59,13.8-21.19,4.48-9.13,6.84-19.11,5.64-29.28-.22-1.89-3.22-1.92-3,0,1.06,9.03-.69,17.95-4.48,26.18-3.57,7.75-8.54,14.74-13.64,21.55-10.46,13.99-20.48,28.44-27.08,44.71-3.97,9.78-6.52,20.05-7.46,30.56-.17,1.92,2.83,1.91,3,0h0Z"/><path class="cls-4" d="m566.17,150.91c0,5.2,3.72,8.39,2.79,9.5-1.27,1.51-6.17-3.54-8.92-1.55-1.46,1.06-1.63,4.24-1.91,10.57-.3,6.65.19,8.72-.97,9.52-2.16,1.5-5.7-4.46-9.38-3.13-2.2.79-2.32,3.41-5.19,9-3.17,6.17-4.92,9.58-8.02,11.13-5.63,2.82-9.64-3.52-15.5-.46-1.38.72-2.4,1.72-3.22,2.71-1.65,1.99-2.54,3.97-4.14,3.66-2.81-.54-2.72-7.13-5.78-7.91-2.58-.65-4.33,3.6-6.59,4.43-6.19,2.27-17.88-20.72-26.63-38.95.38-10.6-.22-18.35-.42-20.7-2.53-29.22-14.1-63.51-33.11-88.93,3.81-5.33,8.21-9.39,8.21-9.39,0,0,6.89-6.35,14.13-9.42,22.02-9.33,54.94,20.75,71.53,51.16,8.61,15.77,20.31,45.73,34.61,47.62,1.12.15,5.67.57,6.55,3.33.68,2.12-2.43,3.8-5.48,10-1.56,3.15-2.51,5.1-2.54,7.7h0s0,.08,0,.12Z"/><path class="cls-16" d="m567.71,150.59c-6.34-15.38-17.18-28.05-29.74-38.76-6.09-5.19-12.53-9.96-19.05-14.6-6.16-4.38-12.36-8.75-17.72-14.11-6.13-6.13-10.79-13.48-12.24-22.14-.32-1.9-3.21-1.09-2.89.8,2.63,15.64,14.97,26.3,27.19,35.09,13.01,9.36,26.08,18.69,36.67,30.85,6.14,7.06,11.32,15,14.89,23.66.73,1.76,3.63.99,2.89-.8h0Z"/><path class="cls-14" d="m557.03,177.42c-6.03-19.48-17.45-36.35-31.79-50.69-6.63-6.64-13.77-12.74-21.03-18.68-6.76-5.52-13.49-11.14-19.09-17.88-6.87-8.28-11.4-18.16-12.47-28.91-.19-1.9-3.19-1.92-3,0,.97,9.75,4.45,18.91,10.14,26.88,5.18,7.24,11.73,13.3,18.55,18.97,14.57,12.1,29.16,24.23,40.22,39.79,6.8,9.57,12.09,20.1,15.57,31.32.57,1.84,3.47,1.05,2.89-.8h0Z"/><path class="cls-14" d="m517.35,198.22c-1.64-18.42-8.48-35.63-18.02-51.35-4.5-7.41-9.52-14.49-14.68-21.45s-10.13-13.52-14.02-21.04c-4.68-9.06-7.13-18.95-5.94-29.16.22-1.91-2.78-1.9-3,0-1.06,9.04.66,17.96,4.25,26.27,3.4,7.86,8.3,14.94,13.38,21.78,10.39,13.98,20.66,28.24,27.36,44.43,4.03,9.74,6.72,20.01,7.66,30.52.17,1.91,3.17,1.93,3,0h0Z"/><path class="cls-1" d="m374.81,198.67c-2.41,16.58,6.95,30.45,19.44,32.98,11.68,2.37,21.92-6.02,23.28-7.17"/><path class="cls-1" d="m328.62,224.9c13.37,9.71,30.71,8.2,39.71-1.21,8.42-8.8,6.52-21.35,6.24-23.04"/><path class="cls-12" d="m604.72,522.56c0,16.34-38.11,29.6-85.13,29.6s-85.12-13.26-85.12-29.6c0-11.15,17.76-20.87,43.98-25.91-12.71-4.28-20.7-10.52-20.7-17.47,0-9.71,15.65-18.05,37.95-21.57-6.55-4.25-10.62-10.28-10.62-16.97,0-9.88,8.91-18.34,21.51-21.75.45-12.07,3.58-21.86,9.53-27.29,14.54-13.28,40.41,4.49,57.77,39.68-.64-.95-13.87-20.46-33.43-8.84,7.73,4.28,12.67,10.85,12.67,18.2,0,6.62-4.01,12.6-10.43,16.85,22.73,3.46,38.77,11.87,38.77,21.7,0,6.95-8,13.19-20.71,17.47,26.23,5.04,43.99,14.76,43.99,25.91Z"/><path class="cls-3" d="m534.51,498.5s-4.82,3.74-15.08,3.74c-10.25,0-15.09-3.74-15.09-3.74,0,9.44,6.75,17.1,15.09,17.1,8.33,0,15.09-7.66,15.09-17.1Z"/><path class="cls-3" d="m489.45,487.56c3.39-.81,24.68-.58,28.55.49-.1-16.3-8.71-27.02-14.79-26.87-5.96.14-13.79,10.82-13.76,26.39Z"/><path class="cls-6" d="m492.84,487.72c2.53-.55,18.4-.39,21.29.33-.07-10.98-6.5-18.19-11.03-18.1-4.45.09-10.28,7.29-10.26,17.77Z"/><ellipse class="cls-13" cx="503.68" cy="480.65" rx="6.58" ry="7.4"/><ellipse class="cls-17" cx="505.15" cy="479.01" rx="3.18" ry="3.57"/><path class="cls-3" d="m521.6,488.17c3.39-.81,24.68-.58,28.55.49-.1-16.3-8.71-27.02-14.79-26.87-5.96.14-13.79,10.82-13.76,26.39Z"/><path class="cls-6" d="m524.98,488.33c2.53-.55,18.4-.39,21.29.33-.07-10.98-6.5-18.19-11.03-18.1-4.45.09-10.28,7.29-10.26,17.77Z"/><ellipse class="cls-13" cx="535.82" cy="481.25" rx="6.58" ry="7.4"/><ellipse class="cls-17" cx="537.29" cy="479.61" rx="3.18" ry="3.57"/></g></svg>