<?xml version="1.0" encoding="UTF-8"?>
<svg id="Layer_2" data-name="Layer 2" xmlns="http://www.w3.org/2000/svg" xmlns:xlink="http://www.w3.org/1999/xlink" viewBox="0 0 200 200">
  <defs>
    <style>
      .cls-1 {
        fill: url(#linear-gradient);
        stroke-width: 0px;
      }
    </style>
    <linearGradient id="linear-gradient" x1="0" y1="100" x2="200" y2="100" gradientUnits="userSpaceOnUse">
      <stop offset="0" stop-color="#fff"/>
      <stop offset="0" stop-color="#f9f7f5"/>
      <stop offset="0" stop-color="#e8e2dc"/>
      <stop offset="0" stop-color="#cec0b2"/>
      <stop offset="0" stop-color="#aa9178"/>
      <stop offset="0" stop-color="#7c5630"/>
      <stop offset="0" stop-color="#754c24"/>
      <stop offset=".87" stop-color="#754c24"/>
      <stop offset=".99" stop-color="#754c24"/>
    </linearGradient>
  </defs>
  <g id="poop_krop" data-name="poop krop">
    <path class="cls-1" d="m200,164.12c0,19.81-44.77,35.88-100.01,35.88S0,183.93,0,164.12c0-13.52,20.86-25.3,51.66-31.41-14.93-5.19-24.32-12.75-24.32-21.18,0-11.77,18.39-21.88,44.58-26.15-7.69-5.16-12.48-12.47-12.48-20.58,0-11.98,10.47-22.23,25.27-26.37.52-14.64,4.21-26.5,11.2-33.08,17.08-16.11,47.48,5.44,67.86,48.1-.75-1.15-16.3-24.8-39.27-10.72,9.08,5.19,14.88,13.15,14.88,22.06,0,8.03-4.71,15.27-12.26,20.43,26.7,4.19,45.54,14.39,45.54,26.3,0,8.43-9.4,15.99-24.33,21.18,30.81,6.11,51.67,17.89,51.67,31.41Z"/>
  </g>
</svg>