<?xml version="1.0" encoding="UTF-8"?><svg id="Layer_2" xmlns="http://www.w3.org/2000/svg" width="330.02" height="173.35" viewBox="0 0 330.02 173.35"><defs><style>.cls-1{fill:none;stroke:#736357;stroke-miterlimit:10;stroke-width:10px;}.cls-2{fill:#fff;}.cls-2,.cls-3{stroke-width:0px;}.cls-3{fill:#009245;}</style></defs><g id="Forgrund"><path class="cls-2" d="m308.05,96.69c9.98-5.73,16.97-18.93,16.97-34.31,0-20.63-12.58-37.36-28.09-37.36s-27.98,16.59-28.08,37.11H81.19c-.1-20.52-12.64-37.11-28.08-37.11s-28.09,16.73-28.09,37.36c0,13.96,5.76,26.12,14.28,32.53-8.52,6.41-14.28,18.57-14.28,32.53,0,20.63,12.58,37.36,28.09,37.36,14.55,0,26.51-14.7,27.94-33.55h187.79c.1,20.52,12.64,37.11,28.08,37.11s28.09-16.73,28.09-37.36c0-15.38-6.99-28.58-16.97-34.31Z"/><path class="cls-1" d="m308.05,96.69c9.98-5.73,16.97-18.93,16.97-34.31,0-20.63-12.58-37.36-28.09-37.36s-27.98,16.59-28.08,37.11H81.19c-.1-20.52-12.64-37.11-28.08-37.11s-28.09,16.73-28.09,37.36c0,13.96,5.76,26.12,14.28,32.53-8.52,6.41-14.28,18.57-14.28,32.53,0,20.63,12.58,37.36,28.09,37.36,14.55,0,26.51-14.7,27.94-33.55h187.79c.1,20.52,12.64,37.11,28.08,37.11s28.09-16.73,28.09-37.36c0-15.38-6.99-28.58-16.97-34.31Z"/><path class="cls-2" d="m307.05,95.68c9.98-5.73,16.97-18.93,16.97-34.31,0-20.63-12.58-37.36-28.09-37.36s-27.98,16.59-28.08,37.11H80.19c-.1-20.52-12.64-37.11-28.08-37.11s-28.09,16.73-28.09,37.36c0,13.96,5.76,26.12,14.28,32.53-8.52,6.41-14.28,18.57-14.28,32.53,0,20.63,12.58,37.36,28.09,37.36,14.55,0,26.51-14.7,27.94-33.55h187.79c.1,20.52,12.64,37.11,28.08,37.11s28.09-16.73,28.09-37.36c0-15.38-6.99-28.58-16.97-34.31Z"/><path class="cls-1" d="m307.05,95.68c9.98-5.73,16.97-18.93,16.97-34.31,0-20.63-12.58-37.36-28.09-37.36s-27.98,16.59-28.08,37.11H80.19c-.1-20.52-12.64-37.11-28.08-37.11s-28.09,16.73-28.09,37.36c0,13.96,5.76,26.12,14.28,32.53-8.52,6.41-14.28,18.57-14.28,32.53,0,20.63,12.58,37.36,28.09,37.36,14.55,0,26.51-14.7,27.94-33.55h187.79c.1,20.52,12.64,37.11,28.08,37.11s28.09-16.73,28.09-37.36c0-15.38-6.99-28.58-16.97-34.31Z"/><path class="cls-2" d="m306.05,94.68c9.98-5.73,16.97-18.93,16.97-34.31,0-20.63-12.58-37.36-28.09-37.36s-27.98,16.59-28.08,37.11H79.19c-.1-20.52-12.64-37.11-28.08-37.11s-28.09,16.73-28.09,37.36c0,13.96,5.76,26.12,14.28,32.53-8.52,6.41-14.28,18.57-14.28,32.53,0,20.63,12.58,37.36,28.09,37.36,14.55,0,26.51-14.7,27.94-33.55h187.79c.1,20.52,12.64,37.11,28.08,37.11s28.09-16.73,28.09-37.36c0-15.38-6.99-28.58-16.97-34.31Z"/><path class="cls-1" d="m306.05,94.68c9.98-5.73,16.97-18.93,16.97-34.31,0-20.63-12.58-37.36-28.09-37.36s-27.98,16.59-28.08,37.11H79.19c-.1-20.52-12.64-37.11-28.08-37.11s-28.09,16.73-28.09,37.36c0,13.96,5.76,26.12,14.28,32.53-8.52,6.41-14.28,18.57-14.28,32.53,0,20.63,12.58,37.36,28.09,37.36,14.55,0,26.51-14.7,27.94-33.55h187.79c.1,20.52,12.64,37.11,28.08,37.11s28.09-16.73,28.09-37.36c0-15.38-6.99-28.58-16.97-34.31Z"/><path class="cls-2" d="m305.05,93.68c9.98-5.73,16.97-18.93,16.97-34.31,0-20.63-12.58-37.36-28.09-37.36s-27.98,16.59-28.08,37.11H78.19c-.1-20.52-12.64-37.11-28.08-37.11s-28.09,16.73-28.09,37.36c0,13.96,5.76,26.12,14.28,32.53-8.52,6.41-14.28,18.57-14.28,32.53,0,20.63,12.58,37.36,28.09,37.36,14.55,0,26.51-14.7,27.94-33.55h187.79c.1,20.52,12.64,37.11,28.08,37.11s28.09-16.73,28.09-37.36c0-15.38-6.99-28.58-16.97-34.31Z"/><path class="cls-1" d="m305.05,93.68c9.98-5.73,16.97-18.93,16.97-34.31,0-20.63-12.58-37.36-28.09-37.36s-27.98,16.59-28.08,37.11H78.19c-.1-20.52-12.64-37.11-28.08-37.11s-28.09,16.73-28.09,37.36c0,13.96,5.76,26.12,14.28,32.53-8.52,6.41-14.28,18.57-14.28,32.53,0,20.63,12.58,37.36,28.09,37.36,14.55,0,26.51-14.7,27.94-33.55h187.79c.1,20.52,12.64,37.11,28.08,37.11s28.09-16.73,28.09-37.36c0-15.38-6.99-28.58-16.97-34.31Z"/><path class="cls-2" d="m304.05,92.68c9.98-5.73,16.97-18.93,16.97-34.31,0-20.63-12.58-37.36-28.09-37.36s-27.98,16.59-28.08,37.11H77.19c-.1-20.52-12.64-37.11-28.08-37.11s-28.09,16.73-28.09,37.36c0,13.96,5.76,26.12,14.28,32.53-8.52,6.41-14.28,18.57-14.28,32.53,0,20.63,12.58,37.36,28.09,37.36,14.55,0,26.51-14.7,27.94-33.55h187.79c.1,20.52,12.64,37.11,28.08,37.11s28.09-16.73,28.09-37.36c0-15.38-6.99-28.58-16.97-34.31Z"/><path class="cls-1" d="m304.05,92.68c9.98-5.73,16.97-18.93,16.97-34.31,0-20.63-12.58-37.36-28.09-37.36s-27.98,16.59-28.08,37.11H77.19c-.1-20.52-12.64-37.11-28.08-37.11s-28.09,16.73-28.09,37.36c0,13.96,5.76,26.12,14.28,32.53-8.52,6.41-14.28,18.57-14.28,32.53,0,20.63,12.58,37.36,28.09,37.36,14.55,0,26.51-14.7,27.94-33.55h187.79c.1,20.52,12.64,37.11,28.08,37.11s28.09-16.73,28.09-37.36c0-15.38-6.99-28.58-16.97-34.31Z"/><path class="cls-2" d="m303.05,91.68c9.98-5.73,16.97-18.93,16.97-34.31,0-20.63-12.58-37.36-28.09-37.36s-27.98,16.59-28.08,37.11H76.19c-.1-20.52-12.64-37.11-28.08-37.11s-28.09,16.73-28.09,37.36c0,13.96,5.76,26.12,14.28,32.53-8.52,6.41-14.28,18.57-14.28,32.53,0,20.63,12.58,37.36,28.09,37.36,14.55,0,26.51-14.7,27.94-33.55h187.79c.1,20.52,12.64,37.11,28.08,37.11s28.09-16.73,28.09-37.36c0-15.38-6.99-28.58-16.97-34.31Z"/><path class="cls-1" d="m303.05,91.68c9.98-5.73,16.97-18.93,16.97-34.31,0-20.63-12.58-37.36-28.09-37.36s-27.98,16.59-28.08,37.11H76.19c-.1-20.52-12.64-37.11-28.08-37.11s-28.09,16.73-28.09,37.36c0,13.96,5.76,26.12,14.28,32.53-8.52,6.41-14.28,18.57-14.28,32.53,0,20.63,12.58,37.36,28.09,37.36,14.55,0,26.51-14.7,27.94-33.55h187.79c.1,20.52,12.64,37.11,28.08,37.11s28.09-16.73,28.09-37.36c0-15.38-6.99-28.58-16.97-34.31Z"/><path class="cls-2" d="m302.04,90.68c9.98-5.73,16.97-18.93,16.97-34.31,0-20.63-12.58-37.36-28.09-37.36s-27.98,16.59-28.08,37.11H75.18c-.1-20.52-12.64-37.11-28.08-37.11s-28.09,16.73-28.09,37.36c0,13.96,5.76,26.12,14.28,32.53-8.52,6.41-14.28,18.57-14.28,32.53,0,20.63,12.58,37.36,28.09,37.36,14.55,0,26.51-14.7,27.94-33.55h187.79c.1,20.52,12.64,37.11,28.08,37.11s28.09-16.73,28.09-37.36c0-15.38-6.99-28.58-16.97-34.31Z"/><path class="cls-1" d="m302.04,90.68c9.98-5.73,16.97-18.93,16.97-34.31,0-20.63-12.58-37.36-28.09-37.36s-27.98,16.59-28.08,37.11H75.18c-.1-20.52-12.64-37.11-28.08-37.11s-28.09,16.73-28.09,37.36c0,13.96,5.76,26.12,14.28,32.53-8.52,6.41-14.28,18.57-14.28,32.53,0,20.63,12.58,37.36,28.09,37.36,14.55,0,26.51-14.7,27.94-33.55h187.79c.1,20.52,12.64,37.11,28.08,37.11s28.09-16.73,28.09-37.36c0-15.38-6.99-28.58-16.97-34.31Z"/><path class="cls-2" d="m301.04,89.68c9.98-5.73,16.97-18.93,16.97-34.31,0-20.63-12.58-37.36-28.09-37.36s-27.98,16.59-28.08,37.11H74.18c-.1-20.52-12.64-37.11-28.08-37.11s-28.09,16.73-28.09,37.36c0,13.96,5.76,26.12,14.28,32.53-8.52,6.41-14.28,18.57-14.28,32.53,0,20.63,12.58,37.36,28.09,37.36,14.55,0,26.51-14.7,27.94-33.55h187.79c.1,20.52,12.64,37.11,28.08,37.11s28.09-16.73,28.09-37.36c0-15.38-6.99-28.58-16.97-34.31Z"/><path class="cls-1" d="m301.04,89.68c9.98-5.73,16.97-18.93,16.97-34.31,0-20.63-12.58-37.36-28.09-37.36s-27.98,16.59-28.08,37.11H74.18c-.1-20.52-12.64-37.11-28.08-37.11s-28.09,16.73-28.09,37.36c0,13.96,5.76,26.12,14.28,32.53-8.52,6.41-14.28,18.57-14.28,32.53,0,20.63,12.58,37.36,28.09,37.36,14.55,0,26.51-14.7,27.94-33.55h187.79c.1,20.52,12.64,37.11,28.08,37.11s28.09-16.73,28.09-37.36c0-15.38-6.99-28.58-16.97-34.31Z"/><path class="cls-2" d="m300.04,88.68c9.98-5.73,16.97-18.93,16.97-34.31,0-20.63-12.58-37.36-28.09-37.36s-27.98,16.59-28.08,37.11H73.18c-.1-20.52-12.64-37.11-28.08-37.11s-28.09,16.73-28.09,37.36c0,13.96,5.76,26.12,14.28,32.53-8.52,6.41-14.28,18.57-14.28,32.53,0,20.63,12.58,37.36,28.09,37.36,14.55,0,26.51-14.7,27.94-33.55h187.79c.1,20.52,12.64,37.11,28.08,37.11s28.09-16.73,28.09-37.36c0-15.38-6.99-28.58-16.97-34.31Z"/><path class="cls-1" d="m300.04,88.68c9.98-5.73,16.97-18.93,16.97-34.31,0-20.63-12.58-37.36-28.09-37.36s-27.98,16.59-28.08,37.11H73.18c-.1-20.52-12.64-37.11-28.08-37.11s-28.09,16.73-28.09,37.36c0,13.96,5.76,26.12,14.28,32.53-8.52,6.41-14.28,18.57-14.28,32.53,0,20.63,12.58,37.36,28.09,37.36,14.55,0,26.51-14.7,27.94-33.55h187.79c.1,20.52,12.64,37.11,28.08,37.11s28.09-16.73,28.09-37.36c0-15.38-6.99-28.58-16.97-34.31Z"/><path class="cls-2" d="m299.04,87.68c9.98-5.73,16.97-18.93,16.97-34.31,0-20.63-12.58-37.36-28.09-37.36s-27.98,16.59-28.08,37.11H72.18c-.1-20.52-12.64-37.11-28.08-37.11s-28.09,16.73-28.09,37.36c0,13.96,5.76,26.12,14.28,32.53-8.52,6.41-14.28,18.57-14.28,32.53,0,20.63,12.58,37.36,28.09,37.36,14.55,0,26.51-14.7,27.94-33.55h187.79c.1,20.52,12.64,37.11,28.08,37.11s28.09-16.73,28.09-37.36c0-15.38-6.99-28.58-16.97-34.31Z"/><path class="cls-1" d="m299.04,87.68c9.98-5.73,16.97-18.93,16.97-34.31,0-20.63-12.58-37.36-28.09-37.36s-27.98,16.59-28.08,37.11H72.18c-.1-20.52-12.64-37.11-28.08-37.11s-28.09,16.73-28.09,37.36c0,13.96,5.76,26.12,14.28,32.53-8.52,6.41-14.28,18.57-14.28,32.53,0,20.63,12.58,37.36,28.09,37.36,14.55,0,26.51-14.7,27.94-33.55h187.79c.1,20.52,12.64,37.11,28.08,37.11s28.09-16.73,28.09-37.36c0-15.38-6.99-28.58-16.97-34.31Z"/><path class="cls-2" d="m298.04,86.68c9.98-5.73,16.97-18.93,16.97-34.31,0-20.63-12.58-37.36-28.09-37.36s-27.98,16.59-28.08,37.11H71.18c-.1-20.52-12.64-37.11-28.08-37.11S15.01,31.73,15.01,52.37c0,13.96,5.76,26.12,14.28,32.53-8.52,6.41-14.28,18.57-14.28,32.53,0,20.63,12.58,37.36,28.09,37.36,14.55,0,26.51-14.7,27.94-33.55h187.79c.1,20.52,12.64,37.11,28.08,37.11s28.09-16.73,28.09-37.36c0-15.38-6.99-28.58-16.97-34.31Z"/><path class="cls-1" d="m298.04,86.68c9.98-5.73,16.97-18.93,16.97-34.31,0-20.63-12.58-37.36-28.09-37.36s-27.98,16.59-28.08,37.11H71.18c-.1-20.52-12.64-37.11-28.08-37.11S15.01,31.73,15.01,52.37c0,13.96,5.76,26.12,14.28,32.53-8.52,6.41-14.28,18.57-14.28,32.53,0,20.63,12.58,37.36,28.09,37.36,14.55,0,26.51-14.7,27.94-33.55h187.79c.1,20.52,12.64,37.11,28.08,37.11s28.09-16.73,28.09-37.36c0-15.38-6.99-28.58-16.97-34.31Z"/><path class="cls-2" d="m297.04,85.68c9.98-5.73,16.97-18.93,16.97-34.31,0-20.63-12.58-37.36-28.09-37.36s-27.98,16.59-28.08,37.11H70.18c-.1-20.52-12.64-37.11-28.08-37.11S14.01,30.73,14.01,51.37c0,13.96,5.76,26.12,14.28,32.53-8.52,6.41-14.28,18.57-14.28,32.53,0,20.63,12.58,37.36,28.09,37.36,14.55,0,26.51-14.7,27.94-33.55h187.79c.1,20.52,12.64,37.11,28.08,37.11s28.09-16.73,28.09-37.36c0-15.38-6.99-28.58-16.97-34.31Z"/><path class="cls-1" d="m297.04,85.68c9.98-5.73,16.97-18.93,16.97-34.31,0-20.63-12.58-37.36-28.09-37.36s-27.98,16.59-28.08,37.11H70.18c-.1-20.52-12.64-37.11-28.08-37.11S14.01,30.73,14.01,51.37c0,13.96,5.76,26.12,14.28,32.53-8.52,6.41-14.28,18.57-14.28,32.53,0,20.63,12.58,37.36,28.09,37.36,14.55,0,26.51-14.7,27.94-33.55h187.79c.1,20.52,12.64,37.11,28.08,37.11s28.09-16.73,28.09-37.36c0-15.38-6.99-28.58-16.97-34.31Z"/><path class="cls-2" d="m296.04,84.68c9.98-5.73,16.97-18.93,16.97-34.31,0-20.63-12.58-37.36-28.09-37.36s-27.98,16.59-28.08,37.11H69.18c-.1-20.52-12.64-37.11-28.08-37.11S13.01,29.73,13.01,50.37c0,13.96,5.76,26.12,14.28,32.53-8.52,6.41-14.28,18.57-14.28,32.53,0,20.63,12.58,37.36,28.09,37.36,14.55,0,26.51-14.7,27.94-33.55h187.79c.1,20.52,12.64,37.11,28.08,37.11s28.09-16.73,28.09-37.36c0-15.38-6.99-28.58-16.97-34.31Z"/><path class="cls-1" d="m296.04,84.68c9.98-5.73,16.97-18.93,16.97-34.31,0-20.63-12.58-37.36-28.09-37.36s-27.98,16.59-28.08,37.11H69.18c-.1-20.52-12.64-37.11-28.08-37.11S13.01,29.73,13.01,50.37c0,13.96,5.76,26.12,14.28,32.53-8.52,6.41-14.28,18.57-14.28,32.53,0,20.63,12.58,37.36,28.09,37.36,14.55,0,26.51-14.7,27.94-33.55h187.79c.1,20.52,12.64,37.11,28.08,37.11s28.09-16.73,28.09-37.36c0-15.38-6.99-28.58-16.97-34.31Z"/><path class="cls-2" d="m295.04,83.67c9.98-5.73,16.97-18.93,16.97-34.31,0-20.63-12.58-37.36-28.09-37.36s-27.98,16.59-28.08,37.11H68.18c-.1-20.52-12.64-37.11-28.08-37.11S12.01,28.73,12.01,49.37c0,13.96,5.76,26.12,14.28,32.53-8.52,6.41-14.28,18.57-14.28,32.53,0,20.63,12.58,37.36,28.09,37.36,14.55,0,26.51-14.7,27.94-33.55h187.79c.1,20.52,12.64,37.11,28.08,37.11s28.09-16.73,28.09-37.36c0-15.38-6.99-28.58-16.97-34.31Z"/><path class="cls-1" d="m295.04,83.67c9.98-5.73,16.97-18.93,16.97-34.31,0-20.63-12.58-37.36-28.09-37.36s-27.98,16.59-28.08,37.11H68.18c-.1-20.52-12.64-37.11-28.08-37.11S12.01,28.73,12.01,49.37c0,13.96,5.76,26.12,14.28,32.53-8.52,6.41-14.28,18.57-14.28,32.53,0,20.63,12.58,37.36,28.09,37.36,14.55,0,26.51-14.7,27.94-33.55h187.79c.1,20.52,12.64,37.11,28.08,37.11s28.09-16.73,28.09-37.36c0-15.38-6.99-28.58-16.97-34.31Z"/><path class="cls-2" d="m294.04,82.67c9.98-5.73,16.97-18.93,16.97-34.31,0-20.63-12.58-37.36-28.09-37.36s-27.98,16.59-28.08,37.11H67.18c-.1-20.52-12.64-37.11-28.08-37.11S11,27.73,11,48.36c0,13.96,5.76,26.12,14.28,32.53-8.52,6.41-14.28,18.57-14.28,32.53,0,20.63,12.58,37.36,28.09,37.36,14.55,0,26.51-14.7,27.94-33.55h187.79c.1,20.52,12.64,37.11,28.08,37.11s28.09-16.73,28.09-37.36c0-15.38-6.99-28.58-16.97-34.31Z"/><path class="cls-1" d="m294.04,82.67c9.98-5.73,16.97-18.93,16.97-34.31,0-20.63-12.58-37.36-28.09-37.36s-27.98,16.59-28.08,37.11H67.18c-.1-20.52-12.64-37.11-28.08-37.11S11,27.73,11,48.36c0,13.96,5.76,26.12,14.28,32.53-8.52,6.41-14.28,18.57-14.28,32.53,0,20.63,12.58,37.36,28.09,37.36,14.55,0,26.51-14.7,27.94-33.55h187.79c.1,20.52,12.64,37.11,28.08,37.11s28.09-16.73,28.09-37.36c0-15.38-6.99-28.58-16.97-34.31Z"/><path class="cls-2" d="m293.04,81.67c9.98-5.73,16.97-18.93,16.97-34.31,0-20.63-12.58-37.36-28.09-37.36s-27.98,16.59-28.08,37.11H66.18c-.1-20.52-12.64-37.11-28.08-37.11S10,26.73,10,47.36c0,13.96,5.76,26.12,14.28,32.53-8.52,6.41-14.28,18.57-14.28,32.53,0,20.63,12.58,37.36,28.09,37.36,14.55,0,26.51-14.7,27.94-33.55h187.79c.1,20.52,12.64,37.11,28.08,37.11s28.09-16.73,28.09-37.36c0-15.38-6.99-28.58-16.97-34.31Z"/><path class="cls-1" d="m293.04,81.67c9.98-5.73,16.97-18.93,16.97-34.31,0-20.63-12.58-37.36-28.09-37.36s-27.98,16.59-28.08,37.11H66.18c-.1-20.52-12.64-37.11-28.08-37.11S10,26.73,10,47.36c0,13.96,5.76,26.12,14.28,32.53-8.52,6.41-14.28,18.57-14.28,32.53,0,20.63,12.58,37.36,28.09,37.36,14.55,0,26.51-14.7,27.94-33.55h187.79c.1,20.52,12.64,37.11,28.08,37.11s28.09-16.73,28.09-37.36c0-15.38-6.99-28.58-16.97-34.31Z"/><path class="cls-2" d="m292.04,80.67c9.98-5.73,16.97-18.93,16.97-34.31,0-20.63-12.58-37.36-28.09-37.36s-27.98,16.59-28.08,37.11H65.18c-.1-20.52-12.64-37.11-28.08-37.11S9,25.73,9,46.36c0,13.96,5.76,26.12,14.28,32.53-8.52,6.41-14.28,18.57-14.28,32.53,0,20.63,12.58,37.36,28.09,37.36,14.55,0,26.51-14.7,27.94-33.55h187.79c.1,20.52,12.64,37.11,28.08,37.11s28.09-16.73,28.09-37.36c0-15.38-6.99-28.58-16.97-34.31Z"/><path class="cls-1" d="m292.04,80.67c9.98-5.73,16.97-18.93,16.97-34.31,0-20.63-12.58-37.36-28.09-37.36s-27.98,16.59-28.08,37.11H65.18c-.1-20.52-12.64-37.11-28.08-37.11S9,25.73,9,46.36c0,13.96,5.76,26.12,14.28,32.53-8.52,6.41-14.28,18.57-14.28,32.53,0,20.63,12.58,37.36,28.09,37.36,14.55,0,26.51-14.7,27.94-33.55h187.79c.1,20.52,12.64,37.11,28.08,37.11s28.09-16.73,28.09-37.36c0-15.38-6.99-28.58-16.97-34.31Z"/><path class="cls-2" d="m291.04,79.67c9.98-5.73,16.97-18.93,16.97-34.31,0-20.63-12.58-37.36-28.09-37.36s-27.98,16.59-28.08,37.11H64.18c-.1-20.52-12.64-37.11-28.08-37.11S8,24.73,8,45.36c0,13.96,5.76,26.12,14.28,32.53-8.52,6.41-14.28,18.57-14.28,32.53,0,20.63,12.58,37.36,28.09,37.36,14.55,0,26.51-14.7,27.94-33.55h187.79c.1,20.52,12.64,37.11,28.08,37.11s28.09-16.73,28.09-37.36c0-15.38-6.99-28.58-16.97-34.31Z"/><path class="cls-1" d="m291.04,79.67c9.98-5.73,16.97-18.93,16.97-34.31,0-20.63-12.58-37.36-28.09-37.36s-27.98,16.59-28.08,37.11H64.18c-.1-20.52-12.64-37.11-28.08-37.11S8,24.73,8,45.36c0,13.96,5.76,26.12,14.28,32.53-8.52,6.41-14.28,18.57-14.28,32.53,0,20.63,12.58,37.36,28.09,37.36,14.55,0,26.51-14.7,27.94-33.55h187.79c.1,20.52,12.64,37.11,28.08,37.11s28.09-16.73,28.09-37.36c0-15.38-6.99-28.58-16.97-34.31Z"/><path class="cls-2" d="m290.04,78.67c9.98-5.73,16.97-18.93,16.97-34.31,0-20.63-12.58-37.36-28.09-37.36s-27.98,16.59-28.08,37.11H63.18c-.1-20.52-12.64-37.11-28.08-37.11S7,23.73,7,44.36c0,13.96,5.76,26.12,14.28,32.53-8.52,6.41-14.28,18.57-14.28,32.53,0,20.63,12.58,37.36,28.09,37.36,14.55,0,26.51-14.7,27.94-33.55h187.79c.1,20.52,12.64,37.11,28.08,37.11s28.09-16.73,28.09-37.36c0-15.38-6.99-28.58-16.97-34.31Z"/><path class="cls-1" d="m290.04,78.67c9.98-5.73,16.97-18.93,16.97-34.31,0-20.63-12.58-37.36-28.09-37.36s-27.98,16.59-28.08,37.11H63.18c-.1-20.52-12.64-37.11-28.08-37.11S7,23.73,7,44.36c0,13.96,5.76,26.12,14.28,32.53-8.52,6.41-14.28,18.57-14.28,32.53,0,20.63,12.58,37.36,28.09,37.36,14.55,0,26.51-14.7,27.94-33.55h187.79c.1,20.52,12.64,37.11,28.08,37.11s28.09-16.73,28.09-37.36c0-15.38-6.99-28.58-16.97-34.31Z"/><path class="cls-2" d="m289.03,77.67c9.98-5.73,16.97-18.93,16.97-34.31,0-20.63-12.58-37.36-28.09-37.36s-27.98,16.59-28.08,37.11H62.17c-.1-20.52-12.64-37.11-28.08-37.11S6,22.73,6,43.36c0,13.96,5.76,26.12,14.28,32.53-8.52,6.41-14.28,18.57-14.28,32.53,0,20.63,12.58,37.36,28.09,37.36,14.55,0,26.51-14.7,27.94-33.55h187.79c.1,20.52,12.64,37.11,28.08,37.11s28.09-16.73,28.09-37.36c0-15.38-6.99-28.58-16.97-34.31Z"/><path class="cls-1" d="m289.03,77.67c9.98-5.73,16.97-18.93,16.97-34.31,0-20.63-12.58-37.36-28.09-37.36s-27.98,16.59-28.08,37.11H62.17c-.1-20.52-12.64-37.11-28.08-37.11S6,22.73,6,43.36c0,13.96,5.76,26.12,14.28,32.53-8.52,6.41-14.28,18.57-14.28,32.53,0,20.63,12.58,37.36,28.09,37.36,14.55,0,26.51-14.7,27.94-33.55h187.79c.1,20.52,12.64,37.11,28.08,37.11s28.09-16.73,28.09-37.36c0-15.38-6.99-28.58-16.97-34.31Z"/><path class="cls-2" d="m288.03,76.67c9.98-5.73,16.97-18.93,16.97-34.31,0-20.63-12.58-37.36-28.09-37.36s-27.98,16.59-28.08,37.11H61.17c-.1-20.52-12.64-37.11-28.08-37.11S5,21.73,5,42.36c0,13.96,5.76,26.12,14.28,32.53-8.52,6.41-14.28,18.57-14.28,32.53,0,20.63,12.58,37.36,28.09,37.36,14.55,0,26.51-14.7,27.94-33.55h187.79c.1,20.52,12.64,37.11,28.08,37.11s28.09-16.73,28.09-37.36c0-15.38-6.99-28.58-16.97-34.31Z"/><path class="cls-1" d="m288.03,76.67c9.98-5.73,16.97-18.93,16.97-34.31,0-20.63-12.58-37.36-28.09-37.36s-27.98,16.59-28.08,37.11H61.17c-.1-20.52-12.64-37.11-28.08-37.11S5,21.73,5,42.36c0,13.96,5.76,26.12,14.28,32.53-8.52,6.41-14.28,18.57-14.28,32.53,0,20.63,12.58,37.36,28.09,37.36,14.55,0,26.51-14.7,27.94-33.55h187.79c.1,20.52,12.64,37.11,28.08,37.11s28.09-16.73,28.09-37.36c0-15.38-6.99-28.58-16.97-34.31Z"/><path class="cls-3" d="m128.61,73.87c0,2.72-.46,5.03-1.37,6.94-.91,1.91-2.15,3.46-3.73,4.64-1.57,1.18-3.41,2.05-5.52,2.6-2.11.55-4.37.83-6.8.83v9.39h-12.12v-39.41h12.12c2.43,0,4.7.28,6.8.83,2.11.55,3.95,1.42,5.52,2.6,1.57,1.18,2.82,2.73,3.73,4.64.91,1.91,1.37,4.22,1.37,6.94Zm-5.52,0c0-1.77-.29-3.31-.88-4.61-.59-1.3-1.41-2.36-2.48-3.19-1.06-.83-2.32-1.45-3.78-1.86-1.46-.41-3.04-.62-4.75-.62h-6.43v29.95h1.48v-9.39h4.95c1.71,0,3.29-.21,4.75-.62,1.46-.41,2.72-1.03,3.78-1.86,1.06-.83,1.89-1.89,2.48-3.19.59-1.3.88-2.83.88-4.61Zm-1.59,0c0,1.69-.28,3.11-.85,4.25-.57,1.14-1.33,2.05-2.28,2.72-.95.67-2.04,1.15-3.27,1.45-1.23.3-2.53.44-3.9.44h-4.95v-17.72h4.95c1.37,0,2.67.15,3.9.44,1.23.29,2.32.78,3.27,1.45.95.67,1.71,1.58,2.28,2.72.57,1.14.85,2.56.85,4.25Zm-10.3,4.37h.51c1.59,0,2.74-.38,3.44-1.15.7-.77,1.05-1.84,1.05-3.22s-.35-2.45-1.05-3.22c-.7-.77-1.85-1.15-3.44-1.15h-.51v8.74Z"/><path class="cls-3" d="m131.46,58.86h12.63v29.07h10.47v10.34h-23.11v-39.41Zm19.92,34.68v-1.42h-12.75v-28.54h-1.48v29.95h14.23Z"/><path class="cls-3" d="m169.81,58.86h9.11l14.4,39.41h-11.95l-1.25-3.54h-11.5l-1.25,3.54h-11.95l14.4-39.41Zm-5.92,34.68l1.08-2.96h18.78l1.08,2.96h1.59l-10.98-29.95h-2.16l-10.98,29.95h1.59Zm10.47-28.54l8.88,24.16h-17.76l8.88-24.16Zm2.56,21.03l-2.56-6.91-2.56,6.91h5.12Z"/><path class="cls-3" d="m195.71,81.31l-11.78-22.45h13.49l4.38,8.33,4.33-8.33h13.49l-11.78,22.45v16.96h-12.12v-16.96Zm6.83,12.23v-14.12l8.31-15.83h-1.76l-7.28,14-7.34-14h-1.71l8.25,15.83v14.12h1.54Z"/></g></svg>