<?xml version="1.0" encoding="UTF-8"?><svg id="Layer_2" xmlns="http://www.w3.org/2000/svg" width="330.02" height="190.02" viewBox="0 0 330.02 190.02"><defs><style>.cls-1{fill:none;stroke:#736357;stroke-miterlimit:10;stroke-width:10px;}.cls-2{fill:#fff;}.cls-2,.cls-3{stroke-width:0px;}.cls-3{fill:#009245;}</style></defs><g id="Forgrund"><path class="cls-2" d="m308.05,105.02c9.98-6.4,16.97-21.13,16.97-38.3,0-23.03-12.58-41.7-28.09-41.7s-27.98,18.52-28.08,41.42H81.19c-.1-22.9-12.64-41.42-28.08-41.42s-28.09,18.67-28.09,41.7c0,15.58,5.76,29.15,14.28,36.31-8.52,7.16-14.28,20.73-14.28,36.31,0,23.03,12.58,41.7,28.09,41.7,14.55,0,26.51-16.41,27.94-37.45h187.79c.1,22.9,12.64,41.42,28.08,41.42s28.09-18.67,28.09-41.7c0-17.16-6.99-31.9-16.97-38.3Z"/><path class="cls-1" d="m308.05,105.02c9.98-6.4,16.97-21.13,16.97-38.3,0-23.03-12.58-41.7-28.09-41.7s-27.98,18.52-28.08,41.42H81.19c-.1-22.9-12.64-41.42-28.08-41.42s-28.09,18.67-28.09,41.7c0,15.58,5.76,29.15,14.28,36.31-8.52,7.16-14.28,20.73-14.28,36.31,0,23.03,12.58,41.7,28.09,41.7,14.55,0,26.51-16.41,27.94-37.45h187.79c.1,22.9,12.64,41.42,28.08,41.42s28.09-18.67,28.09-41.7c0-17.16-6.99-31.9-16.97-38.3Z"/><path class="cls-2" d="m307.05,104.02c9.98-6.4,16.97-21.13,16.97-38.3,0-23.03-12.58-41.7-28.09-41.7s-27.98,18.52-28.08,41.42H80.19c-.1-22.9-12.64-41.42-28.08-41.42s-28.09,18.67-28.09,41.7c0,15.58,5.76,29.15,14.28,36.31-8.52,7.16-14.28,20.73-14.28,36.31,0,23.03,12.58,41.7,28.09,41.7,14.55,0,26.51-16.41,27.94-37.45h187.79c.1,22.9,12.64,41.42,28.08,41.42s28.09-18.67,28.09-41.7c0-17.16-6.99-31.9-16.97-38.3Z"/><path class="cls-1" d="m307.05,104.02c9.98-6.4,16.97-21.13,16.97-38.3,0-23.03-12.58-41.7-28.09-41.7s-27.98,18.52-28.08,41.42H80.19c-.1-22.9-12.64-41.42-28.08-41.42s-28.09,18.67-28.09,41.7c0,15.58,5.76,29.15,14.28,36.31-8.52,7.16-14.28,20.73-14.28,36.31,0,23.03,12.58,41.7,28.09,41.7,14.55,0,26.51-16.41,27.94-37.45h187.79c.1,22.9,12.64,41.42,28.08,41.42s28.09-18.67,28.09-41.7c0-17.16-6.99-31.9-16.97-38.3Z"/><path class="cls-2" d="m306.05,103.01c9.98-6.4,16.97-21.13,16.97-38.3,0-23.03-12.58-41.7-28.09-41.7s-27.98,18.52-28.08,41.42H79.19c-.1-22.9-12.64-41.42-28.08-41.42s-28.09,18.67-28.09,41.7c0,15.58,5.76,29.15,14.28,36.31-8.52,7.16-14.28,20.73-14.28,36.31,0,23.03,12.58,41.7,28.09,41.7,14.55,0,26.51-16.41,27.94-37.45h187.79c.1,22.9,12.64,41.42,28.08,41.42s28.09-18.67,28.09-41.7c0-17.16-6.99-31.9-16.97-38.3Z"/><path class="cls-1" d="m306.05,103.01c9.98-6.4,16.97-21.13,16.97-38.3,0-23.03-12.58-41.7-28.09-41.7s-27.98,18.52-28.08,41.42H79.19c-.1-22.9-12.64-41.42-28.08-41.42s-28.09,18.67-28.09,41.7c0,15.58,5.76,29.15,14.28,36.31-8.52,7.16-14.28,20.73-14.28,36.31,0,23.03,12.58,41.7,28.09,41.7,14.55,0,26.51-16.41,27.94-37.45h187.79c.1,22.9,12.64,41.42,28.08,41.42s28.09-18.67,28.09-41.7c0-17.16-6.99-31.9-16.97-38.3Z"/><path class="cls-2" d="m305.05,102.01c9.98-6.4,16.97-21.13,16.97-38.3,0-23.03-12.58-41.7-28.09-41.7s-27.98,18.52-28.08,41.42H78.19c-.1-22.9-12.64-41.42-28.08-41.42s-28.09,18.67-28.09,41.7c0,15.58,5.76,29.15,14.28,36.31-8.52,7.16-14.28,20.73-14.28,36.31,0,23.03,12.58,41.7,28.09,41.7,14.55,0,26.51-16.41,27.94-37.45h187.79c.1,22.9,12.64,41.42,28.08,41.42s28.09-18.67,28.09-41.7c0-17.16-6.99-31.9-16.97-38.3Z"/><path class="cls-1" d="m305.05,102.01c9.98-6.4,16.97-21.13,16.97-38.3,0-23.03-12.58-41.7-28.09-41.7s-27.98,18.52-28.08,41.42H78.19c-.1-22.9-12.64-41.42-28.08-41.42s-28.09,18.67-28.09,41.7c0,15.58,5.76,29.15,14.28,36.31-8.52,7.16-14.28,20.73-14.28,36.31,0,23.03,12.58,41.7,28.09,41.7,14.55,0,26.51-16.41,27.94-37.45h187.79c.1,22.9,12.64,41.42,28.08,41.42s28.09-18.67,28.09-41.7c0-17.16-6.99-31.9-16.97-38.3Z"/><path class="cls-2" d="m304.05,101.01c9.98-6.4,16.97-21.13,16.97-38.3,0-23.03-12.58-41.7-28.09-41.7s-27.98,18.52-28.08,41.42H77.19c-.1-22.9-12.64-41.42-28.08-41.42s-28.09,18.67-28.09,41.7c0,15.58,5.76,29.15,14.28,36.31-8.52,7.16-14.28,20.73-14.28,36.31,0,23.03,12.58,41.7,28.09,41.7,14.55,0,26.51-16.41,27.94-37.45h187.79c.1,22.9,12.64,41.42,28.08,41.42s28.09-18.67,28.09-41.7c0-17.16-6.99-31.9-16.97-38.3Z"/><path class="cls-1" d="m304.05,101.01c9.98-6.4,16.97-21.13,16.97-38.3,0-23.03-12.58-41.7-28.09-41.7s-27.98,18.52-28.08,41.42H77.19c-.1-22.9-12.64-41.42-28.08-41.42s-28.09,18.67-28.09,41.7c0,15.58,5.76,29.15,14.28,36.31-8.52,7.16-14.28,20.73-14.28,36.31,0,23.03,12.58,41.7,28.09,41.7,14.55,0,26.51-16.41,27.94-37.45h187.79c.1,22.9,12.64,41.42,28.08,41.42s28.09-18.67,28.09-41.7c0-17.16-6.99-31.9-16.97-38.3Z"/><path class="cls-2" d="m303.05,100.01c9.98-6.4,16.97-21.13,16.97-38.3,0-23.03-12.58-41.7-28.09-41.7s-27.98,18.52-28.08,41.42H76.19c-.1-22.9-12.64-41.42-28.08-41.42s-28.09,18.67-28.09,41.7c0,15.58,5.76,29.15,14.28,36.31-8.52,7.16-14.28,20.73-14.28,36.31,0,23.03,12.58,41.7,28.09,41.7,14.55,0,26.51-16.41,27.94-37.45h187.79c.1,22.9,12.64,41.42,28.08,41.42s28.09-18.67,28.09-41.7c0-17.16-6.99-31.9-16.97-38.3Z"/><path class="cls-1" d="m303.05,100.01c9.98-6.4,16.97-21.13,16.97-38.3,0-23.03-12.58-41.7-28.09-41.7s-27.98,18.52-28.08,41.42H76.19c-.1-22.9-12.64-41.42-28.08-41.42s-28.09,18.67-28.09,41.7c0,15.58,5.76,29.15,14.28,36.31-8.52,7.16-14.28,20.73-14.28,36.31,0,23.03,12.58,41.7,28.09,41.7,14.55,0,26.51-16.41,27.94-37.45h187.79c.1,22.9,12.64,41.42,28.08,41.42s28.09-18.67,28.09-41.7c0-17.16-6.99-31.9-16.97-38.3Z"/><path class="cls-2" d="m302.04,99.01c9.98-6.4,16.97-21.13,16.97-38.3,0-23.03-12.58-41.7-28.09-41.7s-27.98,18.52-28.08,41.42H75.18c-.1-22.9-12.64-41.42-28.08-41.42s-28.09,18.67-28.09,41.7c0,15.58,5.76,29.15,14.28,36.31-8.52,7.16-14.28,20.73-14.28,36.31,0,23.03,12.58,41.7,28.09,41.7,14.55,0,26.51-16.41,27.94-37.45h187.79c.1,22.9,12.64,41.42,28.08,41.42s28.09-18.67,28.09-41.7c0-17.16-6.99-31.9-16.97-38.3Z"/><path class="cls-1" d="m302.04,99.01c9.98-6.4,16.97-21.13,16.97-38.3,0-23.03-12.58-41.7-28.09-41.7s-27.98,18.52-28.08,41.42H75.18c-.1-22.9-12.64-41.42-28.08-41.42s-28.09,18.67-28.09,41.7c0,15.58,5.76,29.15,14.28,36.31-8.52,7.16-14.28,20.73-14.28,36.31,0,23.03,12.58,41.7,28.09,41.7,14.55,0,26.51-16.41,27.94-37.45h187.79c.1,22.9,12.64,41.42,28.08,41.42s28.09-18.67,28.09-41.7c0-17.16-6.99-31.9-16.97-38.3Z"/><path class="cls-2" d="m301.04,98.01c9.98-6.4,16.97-21.13,16.97-38.3,0-23.03-12.58-41.7-28.09-41.7s-27.98,18.52-28.08,41.42H74.18c-.1-22.9-12.64-41.42-28.08-41.42s-28.09,18.67-28.09,41.7c0,15.58,5.76,29.15,14.28,36.31-8.52,7.16-14.28,20.73-14.28,36.31,0,23.03,12.58,41.7,28.09,41.7,14.55,0,26.51-16.41,27.94-37.45h187.79c.1,22.9,12.64,41.42,28.08,41.42s28.09-18.67,28.09-41.7c0-17.16-6.99-31.9-16.97-38.3Z"/><path class="cls-1" d="m301.04,98.01c9.98-6.4,16.97-21.13,16.97-38.3,0-23.03-12.58-41.7-28.09-41.7s-27.98,18.52-28.08,41.42H74.18c-.1-22.9-12.64-41.42-28.08-41.42s-28.09,18.67-28.09,41.7c0,15.58,5.76,29.15,14.28,36.31-8.52,7.16-14.28,20.73-14.28,36.31,0,23.03,12.58,41.7,28.09,41.7,14.55,0,26.51-16.41,27.94-37.45h187.79c.1,22.9,12.64,41.42,28.08,41.42s28.09-18.67,28.09-41.7c0-17.16-6.99-31.9-16.97-38.3Z"/><path class="cls-2" d="m300.04,97.01c9.98-6.4,16.97-21.13,16.97-38.3,0-23.03-12.58-41.7-28.09-41.7s-27.98,18.52-28.08,41.42H73.18c-.1-22.9-12.64-41.42-28.08-41.42s-28.09,18.67-28.09,41.7c0,15.58,5.76,29.15,14.28,36.31-8.52,7.16-14.28,20.73-14.28,36.31,0,23.03,12.58,41.7,28.09,41.7,14.55,0,26.51-16.41,27.94-37.45h187.79c.1,22.9,12.64,41.42,28.08,41.42s28.09-18.67,28.09-41.7c0-17.16-6.99-31.9-16.97-38.3Z"/><path class="cls-1" d="m300.04,97.01c9.98-6.4,16.97-21.13,16.97-38.3,0-23.03-12.58-41.7-28.09-41.7s-27.98,18.52-28.08,41.42H73.18c-.1-22.9-12.64-41.42-28.08-41.42s-28.09,18.67-28.09,41.7c0,15.58,5.76,29.15,14.28,36.31-8.52,7.16-14.28,20.73-14.28,36.31,0,23.03,12.58,41.7,28.09,41.7,14.55,0,26.51-16.41,27.94-37.45h187.79c.1,22.9,12.64,41.42,28.08,41.42s28.09-18.67,28.09-41.7c0-17.16-6.99-31.9-16.97-38.3Z"/><path class="cls-2" d="m299.04,96.01c9.98-6.4,16.97-21.13,16.97-38.3,0-23.03-12.58-41.7-28.09-41.7s-27.98,18.52-28.08,41.42H72.18c-.1-22.9-12.64-41.42-28.08-41.42s-28.09,18.67-28.09,41.7c0,15.58,5.76,29.15,14.28,36.31-8.52,7.16-14.28,20.73-14.28,36.31,0,23.03,12.58,41.7,28.09,41.7,14.55,0,26.51-16.41,27.94-37.45h187.79c.1,22.9,12.64,41.42,28.08,41.42s28.09-18.67,28.09-41.7c0-17.16-6.99-31.9-16.97-38.3Z"/><path class="cls-1" d="m299.04,96.01c9.98-6.4,16.97-21.13,16.97-38.3,0-23.03-12.58-41.7-28.09-41.7s-27.98,18.52-28.08,41.42H72.18c-.1-22.9-12.64-41.42-28.08-41.42s-28.09,18.67-28.09,41.7c0,15.58,5.76,29.15,14.28,36.31-8.52,7.16-14.28,20.73-14.28,36.31,0,23.03,12.58,41.7,28.09,41.7,14.55,0,26.51-16.41,27.94-37.45h187.79c.1,22.9,12.64,41.42,28.08,41.42s28.09-18.67,28.09-41.7c0-17.16-6.99-31.9-16.97-38.3Z"/><path class="cls-2" d="m298.04,95.01c9.98-6.4,16.97-21.13,16.97-38.3,0-23.03-12.58-41.7-28.09-41.7s-27.98,18.52-28.08,41.42H71.18c-.1-22.9-12.64-41.42-28.08-41.42S15.01,33.68,15.01,56.71c0,15.58,5.76,29.15,14.28,36.31-8.52,7.16-14.28,20.73-14.28,36.31,0,23.03,12.58,41.7,28.09,41.7,14.55,0,26.51-16.41,27.94-37.45h187.79c.1,22.9,12.64,41.42,28.08,41.42s28.09-18.67,28.09-41.7c0-17.16-6.99-31.9-16.97-38.3Z"/><path class="cls-1" d="m298.04,95.01c9.98-6.4,16.97-21.13,16.97-38.3,0-23.03-12.58-41.7-28.09-41.7s-27.98,18.52-28.08,41.42H71.18c-.1-22.9-12.64-41.42-28.08-41.42S15.01,33.68,15.01,56.71c0,15.58,5.76,29.15,14.28,36.31-8.52,7.16-14.28,20.73-14.28,36.31,0,23.03,12.58,41.7,28.09,41.7,14.55,0,26.51-16.41,27.94-37.45h187.79c.1,22.9,12.64,41.42,28.08,41.42s28.09-18.67,28.09-41.7c0-17.16-6.99-31.9-16.97-38.3Z"/><path class="cls-2" d="m297.04,94.01c9.98-6.4,16.97-21.13,16.97-38.3,0-23.03-12.58-41.7-28.09-41.7s-27.98,18.52-28.08,41.42H70.18c-.1-22.9-12.64-41.42-28.08-41.42S14.01,32.68,14.01,55.71c0,15.58,5.76,29.15,14.28,36.31-8.52,7.16-14.28,20.73-14.28,36.31,0,23.03,12.58,41.7,28.09,41.7,14.55,0,26.51-16.41,27.94-37.45h187.79c.1,22.9,12.64,41.42,28.08,41.42s28.09-18.67,28.09-41.7c0-17.16-6.99-31.9-16.97-38.3Z"/><path class="cls-1" d="m297.04,94.01c9.98-6.4,16.97-21.13,16.97-38.3,0-23.03-12.58-41.7-28.09-41.7s-27.98,18.52-28.08,41.42H70.18c-.1-22.9-12.64-41.42-28.08-41.42S14.01,32.68,14.01,55.71c0,15.58,5.76,29.15,14.28,36.31-8.52,7.16-14.28,20.73-14.28,36.31,0,23.03,12.58,41.7,28.09,41.7,14.55,0,26.51-16.41,27.94-37.45h187.79c.1,22.9,12.64,41.42,28.08,41.42s28.09-18.67,28.09-41.7c0-17.16-6.99-31.9-16.97-38.3Z"/><path class="cls-2" d="m296.04,93.01c9.98-6.4,16.97-21.13,16.97-38.3,0-23.03-12.58-41.7-28.09-41.7s-27.98,18.52-28.08,41.42H69.18c-.1-22.9-12.64-41.42-28.08-41.42S13.01,31.68,13.01,54.71c0,15.58,5.76,29.15,14.28,36.31-8.52,7.16-14.28,20.73-14.28,36.31,0,23.03,12.58,41.7,28.09,41.7,14.55,0,26.51-16.41,27.94-37.45h187.79c.1,22.9,12.64,41.42,28.08,41.42s28.09-18.67,28.09-41.7c0-17.16-6.99-31.9-16.97-38.3Z"/><path class="cls-1" d="m296.04,93.01c9.98-6.4,16.97-21.13,16.97-38.3,0-23.03-12.58-41.7-28.09-41.7s-27.98,18.52-28.08,41.42H69.18c-.1-22.9-12.64-41.42-28.08-41.42S13.01,31.68,13.01,54.71c0,15.58,5.76,29.15,14.28,36.31-8.52,7.16-14.28,20.73-14.28,36.31,0,23.03,12.58,41.7,28.09,41.7,14.55,0,26.51-16.41,27.94-37.45h187.79c.1,22.9,12.64,41.42,28.08,41.42s28.09-18.67,28.09-41.7c0-17.16-6.99-31.9-16.97-38.3Z"/><path class="cls-2" d="m295.04,92.01c9.98-6.4,16.97-21.13,16.97-38.3,0-23.03-12.58-41.7-28.09-41.7s-27.98,18.52-28.08,41.42H68.18c-.1-22.9-12.64-41.42-28.08-41.42S12.01,30.68,12.01,53.71c0,15.58,5.76,29.15,14.28,36.31-8.52,7.16-14.28,20.73-14.28,36.31,0,23.03,12.58,41.7,28.09,41.7,14.55,0,26.51-16.41,27.94-37.45h187.79c.1,22.9,12.64,41.42,28.08,41.42s28.09-18.67,28.09-41.7c0-17.16-6.99-31.9-16.97-38.3Z"/><path class="cls-1" d="m295.04,92.01c9.98-6.4,16.97-21.13,16.97-38.3,0-23.03-12.58-41.7-28.09-41.7s-27.98,18.52-28.08,41.42H68.18c-.1-22.9-12.64-41.42-28.08-41.42S12.01,30.68,12.01,53.71c0,15.58,5.76,29.15,14.28,36.31-8.52,7.16-14.28,20.73-14.28,36.31,0,23.03,12.58,41.7,28.09,41.7,14.55,0,26.51-16.41,27.94-37.45h187.79c.1,22.9,12.64,41.42,28.08,41.42s28.09-18.67,28.09-41.7c0-17.16-6.99-31.9-16.97-38.3Z"/><path class="cls-2" d="m294.04,91c9.98-6.4,16.97-21.13,16.97-38.3,0-23.03-12.58-41.7-28.09-41.7s-27.98,18.52-28.08,41.42H67.18c-.1-22.9-12.64-41.42-28.08-41.42S11,29.68,11,52.71c0,15.58,5.76,29.15,14.28,36.31-8.52,7.16-14.28,20.73-14.28,36.31,0,23.03,12.58,41.7,28.09,41.7,14.55,0,26.51-16.41,27.94-37.45h187.79c.1,22.9,12.64,41.42,28.08,41.42s28.09-18.67,28.09-41.7c0-17.16-6.99-31.9-16.97-38.3Z"/><path class="cls-1" d="m294.04,91c9.98-6.4,16.97-21.13,16.97-38.3,0-23.03-12.58-41.7-28.09-41.7s-27.98,18.52-28.08,41.42H67.18c-.1-22.9-12.64-41.42-28.08-41.42S11,29.68,11,52.71c0,15.58,5.76,29.15,14.28,36.31-8.52,7.16-14.28,20.73-14.28,36.31,0,23.03,12.58,41.7,28.09,41.7,14.55,0,26.51-16.41,27.94-37.45h187.79c.1,22.9,12.64,41.42,28.08,41.42s28.09-18.67,28.09-41.7c0-17.16-6.99-31.9-16.97-38.3Z"/><path class="cls-2" d="m293.04,90c9.98-6.4,16.97-21.13,16.97-38.3,0-23.03-12.58-41.7-28.09-41.7s-27.98,18.52-28.08,41.42H66.18c-.1-22.9-12.64-41.42-28.08-41.42S10,28.67,10,51.71c0,15.58,5.76,29.15,14.28,36.31-8.52,7.16-14.28,20.73-14.28,36.31,0,23.03,12.58,41.7,28.09,41.7,14.55,0,26.51-16.41,27.94-37.45h187.79c.1,22.9,12.64,41.42,28.08,41.42s28.09-18.67,28.09-41.7c0-17.16-6.99-31.9-16.97-38.3Z"/><path class="cls-1" d="m293.04,90c9.98-6.4,16.97-21.13,16.97-38.3,0-23.03-12.58-41.7-28.09-41.7s-27.98,18.52-28.08,41.42H66.18c-.1-22.9-12.64-41.42-28.08-41.42S10,28.67,10,51.71c0,15.58,5.76,29.15,14.28,36.31-8.52,7.16-14.28,20.73-14.28,36.31,0,23.03,12.58,41.7,28.09,41.7,14.55,0,26.51-16.41,27.94-37.45h187.79c.1,22.9,12.64,41.42,28.08,41.42s28.09-18.67,28.09-41.7c0-17.16-6.99-31.9-16.97-38.3Z"/><path class="cls-2" d="m292.04,89c9.98-6.4,16.97-21.13,16.97-38.3,0-23.03-12.58-41.7-28.09-41.7s-27.98,18.52-28.08,41.42H65.18c-.1-22.9-12.64-41.42-28.08-41.42S9,27.67,9,50.71c0,15.58,5.76,29.15,14.28,36.31-8.52,7.16-14.28,20.73-14.28,36.31,0,23.03,12.58,41.7,28.09,41.7,14.55,0,26.51-16.41,27.94-37.45h187.79c.1,22.9,12.64,41.42,28.08,41.42s28.09-18.67,28.09-41.7c0-17.16-6.99-31.9-16.97-38.3Z"/><path class="cls-1" d="m292.04,89c9.98-6.4,16.97-21.13,16.97-38.3,0-23.03-12.58-41.7-28.09-41.7s-27.98,18.52-28.08,41.42H65.18c-.1-22.9-12.64-41.42-28.08-41.42S9,27.67,9,50.71c0,15.58,5.76,29.15,14.28,36.31-8.52,7.16-14.28,20.73-14.28,36.31,0,23.03,12.58,41.7,28.09,41.7,14.55,0,26.51-16.41,27.94-37.45h187.79c.1,22.9,12.64,41.42,28.08,41.42s28.09-18.67,28.09-41.7c0-17.16-6.99-31.9-16.97-38.3Z"/><path class="cls-2" d="m291.04,88c9.98-6.4,16.97-21.13,16.97-38.3,0-23.03-12.58-41.7-28.09-41.7s-27.98,18.52-28.08,41.42H64.18c-.1-22.9-12.64-41.42-28.08-41.42S8,26.67,8,49.7c0,15.58,5.76,29.15,14.28,36.31-8.52,7.16-14.28,20.73-14.28,36.31,0,23.03,12.58,41.7,28.09,41.7,14.55,0,26.51-16.41,27.94-37.45h187.79c.1,22.9,12.64,41.42,28.08,41.42s28.09-18.67,28.09-41.7c0-17.16-6.99-31.9-16.97-38.3Z"/><path class="cls-1" d="m291.04,88c9.98-6.4,16.97-21.13,16.97-38.3,0-23.03-12.58-41.7-28.09-41.7s-27.98,18.52-28.08,41.42H64.18c-.1-22.9-12.64-41.42-28.08-41.42S8,26.67,8,49.7c0,15.58,5.76,29.15,14.28,36.31-8.52,7.16-14.28,20.73-14.28,36.31,0,23.03,12.58,41.7,28.09,41.7,14.55,0,26.51-16.41,27.94-37.45h187.79c.1,22.9,12.64,41.42,28.08,41.42s28.09-18.67,28.09-41.7c0-17.16-6.99-31.9-16.97-38.3Z"/><path class="cls-2" d="m290.04,87c9.98-6.4,16.97-21.13,16.97-38.3,0-23.03-12.58-41.7-28.09-41.7s-27.98,18.52-28.08,41.42H63.18c-.1-22.9-12.64-41.42-28.08-41.42S7,25.67,7,48.7c0,15.58,5.76,29.15,14.28,36.31-8.52,7.16-14.28,20.73-14.28,36.31,0,23.03,12.58,41.7,28.09,41.7,14.55,0,26.51-16.41,27.94-37.45h187.79c.1,22.9,12.64,41.42,28.08,41.42s28.09-18.67,28.09-41.7c0-17.16-6.99-31.9-16.97-38.3Z"/><path class="cls-1" d="m290.04,87c9.98-6.4,16.97-21.13,16.97-38.3,0-23.03-12.58-41.7-28.09-41.7s-27.98,18.52-28.08,41.42H63.18c-.1-22.9-12.64-41.42-28.08-41.42S7,25.67,7,48.7c0,15.58,5.76,29.15,14.28,36.31-8.52,7.16-14.28,20.73-14.28,36.31,0,23.03,12.58,41.7,28.09,41.7,14.55,0,26.51-16.41,27.94-37.45h187.79c.1,22.9,12.64,41.42,28.08,41.42s28.09-18.67,28.09-41.7c0-17.16-6.99-31.9-16.97-38.3Z"/><path class="cls-2" d="m289.03,86c9.98-6.4,16.97-21.13,16.97-38.3,0-23.03-12.58-41.7-28.09-41.7s-27.98,18.52-28.08,41.42H62.17c-.1-22.9-12.64-41.42-28.08-41.42S6,24.67,6,47.7c0,15.58,5.76,29.15,14.28,36.31-8.52,7.16-14.28,20.73-14.28,36.31,0,23.03,12.58,41.7,28.09,41.7,14.55,0,26.51-16.41,27.94-37.45h187.79c.1,22.9,12.64,41.42,28.08,41.42s28.09-18.67,28.09-41.7c0-17.16-6.99-31.9-16.97-38.3Z"/><path class="cls-1" d="m289.03,86c9.98-6.4,16.97-21.13,16.97-38.3,0-23.03-12.58-41.7-28.09-41.7s-27.98,18.52-28.08,41.42H62.17c-.1-22.9-12.64-41.42-28.08-41.42S6,24.67,6,47.7c0,15.58,5.76,29.15,14.28,36.31-8.52,7.16-14.28,20.73-14.28,36.31,0,23.03,12.58,41.7,28.09,41.7,14.55,0,26.51-16.41,27.94-37.45h187.79c.1,22.9,12.64,41.42,28.08,41.42s28.09-18.67,28.09-41.7c0-17.16-6.99-31.9-16.97-38.3Z"/><path class="cls-2" d="m288.03,85c9.98-6.4,16.97-21.13,16.97-38.3,0-23.03-12.58-41.7-28.09-41.7s-27.98,18.52-28.08,41.42H61.17c-.1-22.9-12.64-41.42-28.08-41.42S5,23.67,5,46.7c0,15.58,5.76,29.15,14.28,36.31-8.52,7.16-14.28,20.73-14.28,36.31,0,23.03,12.58,41.7,28.09,41.7,14.55,0,26.51-16.41,27.94-37.45h187.79c.1,22.9,12.64,41.42,28.08,41.42s28.09-18.67,28.09-41.7c0-17.16-6.99-31.9-16.97-38.3Z"/><path class="cls-1" d="m288.03,85c9.98-6.4,16.97-21.13,16.97-38.3,0-23.03-12.58-41.7-28.09-41.7s-27.98,18.52-28.08,41.42H61.17c-.1-22.9-12.64-41.42-28.08-41.42S5,23.67,5,46.7c0,15.58,5.76,29.15,14.28,36.31-8.52,7.16-14.28,20.73-14.28,36.31,0,23.03,12.58,41.7,28.09,41.7,14.55,0,26.51-16.41,27.94-37.45h187.79c.1,22.9,12.64,41.42,28.08,41.42s28.09-18.67,28.09-41.7c0-17.16-6.99-31.9-16.97-38.3Z"/><path class="cls-3" d="m31.18,73.23h-6.7v-11.71h25.38v11.71h-6.7v32.93h-11.98v-32.93Zm6.7,27.58v-32.33h7.79v-1.61h-17v1.61h7.79v32.33h1.42Z"/><path class="cls-3" d="m51.76,61.52h12.53c2.32,0,4.48.38,6.46,1.14,1.98.76,3.69,1.87,5.15,3.35,1.45,1.47,2.59,3.29,3.4,5.46.82,2.17,1.23,4.65,1.23,7.46,0,2.23-.25,4.13-.76,5.69-.51,1.56-1.07,2.86-1.69,3.88-.73,1.16-1.54,2.14-2.45,2.95l6.81,14.73h-13.62l-5.45-11.31v11.31h-11.6v-44.65Zm11.33,29.12c1.42,0,2.8-.18,4.14-.54l5.17,10.71h1.69l-5.45-11.25c1.96-.85,3.52-2.15,4.68-3.92,1.16-1.76,1.74-4.05,1.74-6.86,0-1.96-.31-3.68-.93-5.15-.62-1.47-1.46-2.71-2.53-3.71-1.07-1-2.33-1.76-3.79-2.28-1.45-.51-3.03-.77-4.74-.77h-5.88v33.94h1.42v-10.17h4.47Zm-4.47-1.61v-20.55h4.47c3.3,0,5.89.89,7.76,2.68,1.87,1.79,2.81,4.33,2.81,7.63s-.94,5.83-2.81,7.6c-1.87,1.76-4.46,2.64-7.76,2.64h-4.47Zm4.74-5.56h.6c1.38,0,2.55-.38,3.51-1.14.96-.76,1.44-2.03,1.44-3.82s-.48-3.06-1.44-3.82c-.96-.76-2.13-1.14-3.51-1.14h-.6v9.91Z"/><path class="cls-3" d="m91.8,86.96l-11.28-25.43h12.91l4.19,9.44,4.14-9.44h12.91l-11.28,25.43v19.21h-11.6v-19.21Zm6.54,13.86v-16l7.95-17.94h-1.69l-6.97,15.86-7.03-15.86h-1.63l7.9,17.94v16h1.47Z"/><path class="cls-3" d="m137.18,61.52h8.72l13.78,44.65h-11.44l-1.2-4.02h-11l-1.2,4.02h-11.44l13.78-44.65Zm-5.67,39.29l1.03-3.35h17.98l1.04,3.35h1.52l-10.51-33.94h-2.07l-10.51,33.94h1.53Zm10.02-32.33l8.5,27.38h-17l8.5-27.38Zm2.45,23.83l-2.45-7.83-2.45,7.83h4.9Z"/><path class="cls-3" d="m183.64,76.71c-.65-.71-1.47-1.26-2.45-1.64-.98-.38-1.94-.57-2.89-.57-1.05,0-2.02.23-2.89.7-.87.47-1.63,1.12-2.26,1.94-.64.83-1.14,1.82-1.5,2.98-.36,1.16-.54,2.41-.54,3.75s.2,2.59.6,3.75c.4,1.16.94,2.15,1.63,2.98.69.83,1.5,1.47,2.42,1.94s1.92.7,2.97.7c1.23,0,2.36-.32,3.38-.97,1.02-.65,1.89-1.53,2.61-2.64h-3.27v-9.37h14v14.86c-.84,1.83-1.83,3.49-3,4.99-1.16,1.5-2.46,2.78-3.89,3.85-1.43,1.07-2.99,1.9-4.66,2.48-1.67.58-3.4.87-5.17.87-2.61,0-5.08-.6-7.41-1.81-2.32-1.21-4.35-2.86-6.07-4.95-1.73-2.1-3.09-4.57-4.09-7.43-1-2.85-1.5-5.93-1.5-9.24s.47-6.25,1.42-9.1c.94-2.86,2.24-5.34,3.89-7.46,1.65-2.12,3.61-3.79,5.88-5.02,2.27-1.23,4.71-1.84,7.33-1.84,2.03,0,3.79.25,5.28.74,1.49.49,2.74,1.05,3.76,1.67,1.2.71,2.2,1.5,3,2.34l-6.59,11.51Zm.54-8.63c-.47-.27-1-.49-1.58-.67-.51-.18-1.11-.33-1.8-.47-.69-.13-1.45-.2-2.29-.2-1.93,0-3.72.42-5.39,1.27-1.67.85-3.12,2.02-4.36,3.51-1.23,1.5-2.21,3.29-2.91,5.39-.71,2.1-1.06,4.42-1.06,6.96s.36,4.86,1.09,6.96c.73,2.1,1.72,3.89,3,5.39,1.27,1.5,2.75,2.67,4.44,3.51,1.69.85,3.49,1.27,5.42,1.27,2.51,0,4.77-.72,6.81-2.17,2.03-1.45,3.69-3.38,4.96-5.79v-8.77h-5.77v1.61h4.36v6.69c-1.13,2.05-2.59,3.68-4.39,4.89-1.8,1.2-3.79,1.81-5.96,1.81-1.74,0-3.37-.37-4.88-1.1-1.51-.74-2.83-1.78-3.98-3.15-1.14-1.36-2.04-2.99-2.7-4.89-.65-1.9-.98-3.98-.98-6.26s.32-4.36.95-6.26c.64-1.9,1.51-3.52,2.61-4.89,1.11-1.36,2.41-2.41,3.89-3.15,1.49-.74,3.1-1.1,4.85-1.1.65,0,1.27.07,1.85.2.58.13,1.09.27,1.53.4.51.18.98.36,1.42.54l.87-1.54Z"/><path class="cls-3" d="m209.24,61.52h8.72l13.78,44.65h-11.44l-1.2-4.02h-11l-1.2,4.02h-11.44l13.78-44.65Zm-5.67,39.29l1.03-3.35h17.98l1.03,3.35h1.53l-10.51-33.94h-2.07l-10.51,33.94h1.53Zm10.02-32.33l8.5,27.38h-17l8.5-27.38Zm2.45,23.83l-2.45-7.83-2.45,7.83h4.9Z"/><path class="cls-3" d="m232.55,61.52h12.31v44.65h-12.31v-44.65Zm6.86,39.29v-33.94h-1.42v33.94h1.42Z"/><path class="cls-3" d="m248.68,61.52h9.53l10.02,17.2v-17.2h11.38v44.65h-9.59l-9.97-17.14v17.14h-11.38v-44.65Zm6.48,39.29v-30.92l17.98,30.92h1.42v-33.94h-1.42v30.92l-17.98-30.92h-1.42v33.94h1.42Z"/></g></svg>