<?xml version="1.0" encoding="UTF-8"?><svg id="Forgrund" xmlns="http://www.w3.org/2000/svg" xmlns:xlink="http://www.w3.org/1999/xlink" viewBox="0 0 1920 1080"><defs><style>.cls-1{fill:none;stroke:#8c6239;}.cls-1,.cls-2,.cls-3,.cls-4,.cls-5,.cls-6,.cls-7,.cls-8,.cls-9,.cls-10,.cls-11{stroke-miterlimit:10;}.cls-1,.cls-2,.cls-4,.cls-5,.cls-6,.cls-7,.cls-8,.cls-11{stroke-width:3px;}.cls-2,.cls-4,.cls-5,.cls-6,.cls-7,.cls-8,.cls-11{stroke:#603813;}.cls-12{fill:url(#linear-gradient-12);}.cls-12,.cls-13,.cls-14,.cls-15,.cls-16,.cls-17,.cls-18,.cls-19,.cls-20,.cls-21,.cls-22,.cls-23,.cls-24,.cls-25,.cls-26,.cls-27,.cls-28{stroke-width:0px;}.cls-13{fill:url(#linear-gradient-13);}.cls-14{fill:url(#linear-gradient-15);}.cls-15{fill:url(#linear-gradient-14);}.cls-3{stroke:#754c24;}.cls-3,.cls-6,.cls-26{fill:#c69c6d;}.cls-16{fill:url(#linear-gradient-4);}.cls-17{fill:url(#linear-gradient-2);}.cls-18{fill:url(#linear-gradient-3);}.cls-19{fill:url(#linear-gradient-8);}.cls-20{fill:url(#linear-gradient-9);}.cls-21{fill:url(#linear-gradient-7);}.cls-22{fill:url(#linear-gradient-5);}.cls-23{fill:url(#linear-gradient-6);}.cls-4{fill:#736357;}.cls-5{fill:#c7b299;}.cls-7,.cls-9,.cls-10{fill:#29abe2;}.cls-8,.cls-28{fill:#fff;}.cls-24{fill:#754c24;}.cls-25{fill:#231f20;}.cls-27{fill:#8c6239;}.cls-9{stroke:url(#linear-gradient-11);}.cls-10{stroke:url(#linear-gradient-10);}.cls-11{fill:url(#linear-gradient);}</style><linearGradient id="linear-gradient" x1="960.5" y1="1080.5" x2="960.5" y2=".5" gradientUnits="userSpaceOnUse"><stop offset="0" stop-color="#000"/><stop offset=".13" stop-color="#009d27"/><stop offset=".43" stop-color="#7cbef5"/><stop offset=".52" stop-color="#8fc1f4"/><stop offset=".73" stop-color="#b8c8f4"/><stop offset=".9" stop-color="#d1ccf4"/><stop offset="1" stop-color="#dbcef4"/></linearGradient><linearGradient id="linear-gradient-2" x1="586.63" y1="358.78" x2="1263.2" y2="358.78" xlink:href="#linear-gradient"/><linearGradient id="linear-gradient-3" x1="586.63" y1="358.78" x2="1263.2" y2="358.78" xlink:href="#linear-gradient"/><linearGradient id="linear-gradient-4" x1="586.63" y1="358.78" x2="1263.2" y2="358.78" xlink:href="#linear-gradient"/><linearGradient id="linear-gradient-5" x1="586.63" y1="358.78" x2="1263.2" y2="358.78" xlink:href="#linear-gradient"/><linearGradient id="linear-gradient-6" x1="586.63" y1="358.78" x2="1263.2" y2="358.78" xlink:href="#linear-gradient"/><linearGradient id="linear-gradient-7" x1="586.63" y1="358.78" x2="1263.2" y2="358.78" xlink:href="#linear-gradient"/><linearGradient id="linear-gradient-8" x1="586.63" y1="358.78" x2="1263.2" y2="358.78" xlink:href="#linear-gradient"/><linearGradient id="linear-gradient-9" x1="586.63" y1="358.78" x2="1263.2" y2="358.78" xlink:href="#linear-gradient"/><linearGradient id="linear-gradient-10" x1="1682.28" y1="851.02" x2="1725.97" y2="851.02" gradientTransform="translate(920.09 665.63) rotate(-16.71) scale(.38 .45)" xlink:href="#linear-gradient"/><linearGradient id="linear-gradient-11" x1="1817.88" y1="1184.53" x2="1890.83" y2="1184.53" gradientTransform="translate(951.19 660.89) rotate(-14.67) scale(.33)" xlink:href="#linear-gradient"/><linearGradient id="linear-gradient-12" x1="217" y1="789.44" x2="217" y2="930.14" gradientUnits="userSpaceOnUse"><stop offset="0" stop-color="#fff"/><stop offset="0" stop-color="#faf7f5"/><stop offset="0" stop-color="#ede4dc"/><stop offset="0" stop-color="#d7c5b2"/><stop offset="0" stop-color="#ba9a79"/><stop offset="0" stop-color="#a67c52"/><stop offset=".26" stop-color="#754c24"/><stop offset=".47" stop-color="#6d4722"/><stop offset="1" stop-color="#42210b"/></linearGradient><linearGradient id="linear-gradient-13" x1="323.91" y1="885" x2="323.91" y2="1003.14" xlink:href="#linear-gradient-12"/><linearGradient id="linear-gradient-14" x1="216.59" y1="919" x2="216.59" y2="1014.14" xlink:href="#linear-gradient-12"/><linearGradient id="linear-gradient-15" x1="121.09" y1="867" x2="121.09" y2="982.14" xlink:href="#linear-gradient-12"/></defs><rect id="Baggrund_game_over" class="cls-11" x=".5" y=".5" width="1920" height="1080"/><path class="cls-17" d="m635.97,374.06c.37,5.82-1.07,5.39-3.13-.93-.6,4.61-1.78,3.32-2.55-2.79-1.26,2.69-2.06.54-1.74-4.66-1.48.05-1.78-2.91-.63-6.44-1.14-2.44-.97-4.82.37-5.18-.66-3.96-.25-5.88.89-4.17-.18-5.07.36-6.49,1.16-3.09.36-5.73.87-6.66,1.11-2.01.2-5.33,43.32-5.33,31.23,0,13.6-2.25,14.67,1.13,2.32,7.34,13.61,1.13,13.92,4.75.68,7.86,13.24,4.57,12.89,8.32-.76,8.16,12.25,6.96,11.41,9.72-1.82,6,12.26,5.85,9.28,5.85-2.16,0,11.43,5.85,11.43,36.7,0,22.35,9.54,16.69,7.39,18.92-4.69,4.84,7.22,18.33,4.47,20.2-5.98,4.06,4.29,19.36.84,20.64-7.5,2.79.68,19.77-3.56,20.25-9.22,1.04-3.51,19.21-7.92,18.63-9.58-1.27-6.96,17.56-11.04,15.76-8.85-3.91-9.85,14.8-13.36,11.72-7.64-6.7-12.13,10.95-14.89,6.51-6-9.65-13.54,5.87-15.35-.01-3.92-12.77-13.99-.47-14.64-7.9-1.4-16.13-13.24-11.52-11.99-21.62,2.71-21.94-9.71-17.03-6.22-24.28,7.58-15.75-4.83-20.19.52-24.57,11.64-9.53,1.34-20.94,8.22-22.41,14.93-3.2,4.73-19.21,8.56-18.75,8.32,1,7.7-17.9,11.19-16.67,7.58,2.68,10.11-16.26,13.07-14.48,6.42,3.87,11.97-14.31,14.23-12.16,4.9,4.66,11.17-12.29,11.08-9.82-.21,5.36,10.9-9.84,10.64-7.18-.55,5.77,10.57-7.67,10.18-5.17-.84,5.44,10.1-5.88,9.6-3.91-1.08,4.28,10.15-6.61-28.17-6.61-27.75,0-1-5.72-1.67-4.52-1.45,2.61-1.73-4.11-2.43-2.31-1.53,3.91-2.21-2.04-2.77.36-1.21,5.21-2.48.57-2.71,3.57-.5,6.52-2.21,4.52-1.83,8.14.82,7.86-1.14,6.39-.15,8.92,2.16,5.51.16,7.46,1.59,8.97,3.11,3.28,1.73,7.68,3.42,8.17,3.66,1.08,2.38,7.09,2.98,6.87,1.32-.48,2.34,6.46,2.51,5.93.37-1.16,2.15,6.47,2.15,4.1,0-1.71,2.15,5.82,1.35,5.82-.58,0Z"/><path class="cls-18" d="m689.57,317.44c-7.1-17.45-4.96-19.01,4.63-3.39-4.85-18.43-2.34-19.61,5.45-2.57-2.5-18.96.24-19.7,5.95-1.6-.04-19.13,2.8-19.39,6.19-.56,3.26-18.83,7-18.35,8.14,1.04,6.29-17.47,9.67-15.96,7.35,3.28,8.43-15.12,11.05-12.47,5.69,5.77,9.72-11.72,11.2-7.83,3.21,8.45,8.77-11.76,25.35,85.23,12.01,70.24,11.11,19.04,7.98,22.37-6.79,7.23,6.73,20.35,1.64,21.66-11.06,2.83,3.82,18.83,1.28,18.48-5.53-.74,2.06,17.86-.04,16.85-4.56-2.2.88,16.37-.62,14.69-3.26-3.65.27,14.29-.5,11.91-1.66-5.18.82,14.34-.78,1.79-1.16-9.09,1.88,10.81,3.37,10.56,3.24-.56,3.09,10.22,4.43,9.68,2.9-1.19,3.9,9.56,4.87,8.83,2.11-1.6,4.27,8.78,4.65,7.96.82-1.79,3.83,7.83,3.51,6.94-.68-1.94,2.7,9.08,1.68,9.88-2.21,1.75,1.56,9.57.34,10.17-2.66,1.3.43,9.83-.86,10.19-2.79.78-.63,9.89-1.83,10.01-2.61.26-2.43,9.75-4.28,9.56-4.03-.41-3.5,9.21-4.92,8.75-3.08-1.01-4.26,8.66-5.3,8.06-2.26-1.3-4.78,8.06-5.51,7.43-1.58-1.38-4.71,8.53-4.88,8.92-.37.86-4.8,8.96-4.87,9.46-.16,1.08-4.71,9.95-4.34,10.9.82,2.05-3.65,10.56-2.65,11.32,2.19,1.64-2.31,10.98-.87,11.51,3.13,1.15-.75,11.18.95,11.45,3.71.6-.67,15.8-.35,19.62.71,8.3-.33,17,.02,18.8.76,3.91-.84,16.82-1.7,18.07-1.87,2.72-2.4,18.02-4,19.27-3.48,2.72-4.35,18.89-6.54,19.85-4.74,2.09-6.69,19.27-9.3,19.65-5.66.82-9.84,18.83-13.09,18.28-7.06-1.19-12.14,17.28-14.81,15.75-5.79-3.31-13.57,15.16-15.39,12.79-3.95-5.14-14.16,12.37-14.84,9.27-1.47-6.74-13.36,11.83-13.34,11.06.05-1.68-13.29,11.16-13.2,10.35.21-1.75-13.26,11.28,2.23-86.64,11.22-70.91Zm24.56,36.78c.29-2.07-.13-5.36-.92-7.15.16-3.15-.16-5.02-.68-4.06-.1-3.5-.44-4.32-.74-1.79-.43-3.28-.88-3.47-.97-.41-.78-3.06-1.09-3-.68.15-.99-2.87-1.26-2.73-.58.3-.92-2.89,1.84,17.88,2,15.05.04,3.11.32,3.32.61.45.44,3.15.76,3.21.71.15.78,3.06,1.19,2.98.89-.19,1.07,2.82,1.36,2.67.63-.34.93,2.87.56-.12-.26-2.16Z"/><path class="cls-16" d="m806.69,387.91c3.45,10.56,5.29,9.43,4-2.46,5.27,8.46,7.18,5.68,4.16-6.03,5.69,6.09,6.1,4.55.9-3.35,5.21,4.81,4.57,3.92-1.37-1.94,4.59,5.86,4.5,5.88-.18.04,4.54,5.91,4.46,5.93-.18.04,1.1,15.97-4.4,21.01-11.95,10.95-1.9,10.06-3.66,9.79-3.82-.6-3.09,9.28-4.6,8.39-3.29-1.94-4.12,7.86-5.46,6.21-2.9-3.57-5.08,5.68-6.29,3.14-2.63-5.51-4.82,5.63-5.26,5.63-.32,0-5.48,5.63-5.94,5.8-1,.37-5.71,6.12-5.91,6.74-.42,1.34-5.49,7.45-5.2,8.69.63,2.68-4.18,9.78-3.03,11.9,2.5,4.62-3.06,10.85-1.8,12.34,2.74,3.24-1.97,11.5-.69,12.41,2.76,1.97-.94,11.67.2,12.05,2.47.82-1.25,11.36-1.84,30.8-.42,14.08-2.68,17.89-4,18.96-2.87,2.31-3.89,18.57-5.45,19.37-3.4,1.75-5.55,18.92-7.52,19.42-4.29,1.08-7.64,19.03-10.18,19.2-5.5.37-10.25,18.83-13.08,18.45-6.16-.82-12.84,17.76-15.55,16.51-5.9-2.72-14.6,15.73-16.65,13.49-4.45-4.88-15.45,12.88-16.26,9.48-1.76-7.37-14.49,10.69-14.42,7.79.16-6.29-14.29,6.75-14.08,2.58.45-9.05-14,2.3-13.69-2.74.66-10.95-13.67-2.62-13.31-8.09.79-11.88-13.32-7.25-12.94-12.72.84-11.88-13-11.67-12.62-16.71.84-10.95-12.68-15.09-12.33-19.24.76-9.01-12.46-17.5-12.19-20.34.61-6.18-11.14-18-9.54-19.51,3.48-3.28-9.43-18.7-7.55-19.68,4.08-2.12-7.71-18.99-5.73-19.51,4.29-1.12-6.05-19.01-4.13-19.16,4.16-.34-3.15-18.83.08-18.31,7.03,1.12-.6-17.37,2.03-16.04,5.71,2.9-1.59-17.29,2.4,1.63,2.9,13.7-.49-12.07-3.04,3.05-1.84,10.95-1.29-7.35-1.36-6.84-.16,1.12-1.3-7-1.33-6.52-.05,1.04-1.27-4.75-.3-3.51,2.11,2.68-.47-6.06,6.44-46.69,5-29.42,2.26-17.88,3.31-18.53,2.29-1.42,3.59-18.49,5.02-19.11,3.11-1.34,5.07-18.86,6.77-19.31,3.71-.97,6.75-19.03,8.64-19.2,4.11-.37,9.91-18.83,12.93-18.43,6.56.86,11.56-17.71,13.74-16.44,4.74,2.76,12.54-15.7,13.94-13.42,3.03,4.95,12.94-12.75,13.62-9.29,1.47,7.52,12.83-8.38,13.25-3.17.92,11.32,13.35-2.28,13.87,4.18,1.13,14.04,13.8,3.79,14.34,10.7,1.16,15.01,14.24,9.68,14.72,16.24,1.03,14.26,14.51,14.25,14.85,19.69.74,11.81,14.65,17.34,14.78,20.84.29,7.6,9.11,23.53,1.36,27.54-16.85,8.71,4.87,18.83,1.94,18.45-6.37-.82,2.98,17.76.69,16.61-4.98-2.5,1.84,16.02.31,14.12-3.32-4.13,1.35,13.73.68,11.05-1.45-5.81,1.94,13.78,1.28,4.11-.47-7Z"/><path class="cls-22" d="m910.04,310.75c10.22-16.88,10.8-15.28,1.26,3.46,10.6-15.25,11.04-13.43.95,3.95,10.77-13.61,11.04-11.72.58,4.1,10.85-12.05,10.94-10.28.21,3.84,10.73-5.41,9.76-.16-2.11,11.4,7.99-4.7,5.32-2.99-5.79,3.72,7.72-6.71-21.58-6.71-21.22,0-2.15-6.71-3.05-5.72-1.95,2.16-1.1-5.75-1.1-5.48,0,.6-1.1-5.25-1.06-4.97.11.6-1.06-5.43,33.7-5.43,25.17,0,8.96-4.41,9.37-3.19.9,2.64,9.25-3.02,9.58-1.55.71,3.2,9.4-1.66,9.62-.09.47,3.43,9.49-.29,9.57,1.24.18,3.31,9.39,3.48,9.1,7.16-.63,8.01,8.57,5.67,7.79,8.36-1.68,5.85,8.51,4.64-7.27,4.64-11.43,0,.03,4.64-3.37,4.79-7.4.34-1.36,5.08-3.48,5.47-4.61.86-1.97,5.57-3.06,6.11-2.37,1.15-1.95,6.12-2.27,6.72-.68,1.3-1.58,6.58-1.52,7.09.13,1.12-1.41,6.94-1.13,7.35.61.89-.09,6.25,1.14,5.77,2.69-1.04.98,5.99,2.38,5.66,3.05-.71,2.43,5.89,4.17,5.7,3.77-.41,4.23,5.84,6.45,5.77,4.82-.15,4.15,5.92,24.59,5.92,14.8,0,10.32,7.01,10.86,8.23,1.16,2.64,10.76,8.26,11.24,9.8,1.03,3.35,11.03,9.95,11.37,11.95.74,4.36,11.17,12.12,11.3,14.73.29,5.66,11.01,13.87,10.92,15.84-.21,4.28,10.74,15.74,10.45,17.81-.63,4.51,10.3,17.42,9.79,19.38-1.11,4.25,9.64,18.83,8.89,20.45-1.63,3.5,9.65,18.32-44.82,18.32-39.44,0-8.24,18.32-10.9,17.82-5.79-1.08-10.06,16.91-12.21,15.37-4.69-3.35-11.21,14.54-12.67,11.9-3.16-5.73-11.64,11.25-12.17,7.43-1.16-8.31-11.01,11.28-11.01-86.54,0-70.83-11.01-19-8.32-21.4,5.85-5.21-3.4-19.2,4.81-19.96,17.85-1.64-1.99-18.32,39.97-18.32,30.38,0Z"/><path class="cls-23" d="m990.76,409.22c-3.96,19.21-7.99,18.61-8.74-1.3-7.2,17.51-10.95,15.68-8.16-3.99-9.87,14.73-13.13,11.61-7.08-6.78-12.01,10.84-14.59,6.38-5.61-9.68-13.34,5.78-15.04-.08-3.69-12.74-13.78-.51-14.39-7.85-1.32-15.94-13.07-12-11.76-22.37,2.84-22.53-9.37-17.33-5.88-24.56,7.58-15.72-4.73-20.29.29-24.53,10.93-9.2.76-20.82,6.71-22.19,12.93-2.98,7.36-19.21,13.98-17.51,14.38,3.69,11.33-14.41,16.3-9.66,10.79,10.32,13.65-7.77,16.78-.43,6.79,15.94,14.35.77,15.44,10.2,2.37,20.48,13.07,12.21,11.84,22.7-2.66,22.79,9.61,17.46,6.26,24.68-7.27,15.68,5.05,20.31.08,24.48-10.8,9.05-.52,20.78-6.64,22.12-13.3,2.91Zm2.21-53.8c.7-4.53.65-7.35-.1-6.14.56-5.94.39-7.91-.37-4.28.27-6.65-.06-7.61-.71-2.09-.17-6.48-.64-6.72-1.03-.52-.68-6.2-1.09-6.08-.89.26-.78-5.86-1.02-5.64-.53.48-.64-4.68-.57-3.53.16,2.5-.53-3.9-.45-2.7.18,2.61-.48-2.64-.42-1.09.13,3.35-.46-.95-.43,1.2.05,4.66-.49-.92-.49,5.76,0,4.84-.49,3.46-.51,5.6-.05,4.66-.56,4.44-.62,5.99-.13,3.35-.63,5.31-.72,6.51-.18,2.61-.73,6.03-.8,7.18-.16,2.5-.5,6.12-.25,6.34.53.48-.2,6.34.21,6.46.89.26.39,6.2.86,5.96,1.03-.52.66,5.52.98,4.56.71-2.09.76,3.63.93,1.66.37-4.28.75,1.21.8-1.62.1-6.14.7,1.23.7-7.71,0-6.48Z"/><path class="cls-21" d="m1036.61,319.68c-10.42-19.48-7.48-23.01,6.4-7.67-6.46-20.27-2.16-21.51,9.35-2.68-2.78-18.83.51-18.23,7.14,1.3-1.15-17.13,1.17-15.55,5.03,3.43-.08-15.07,1.43-12.81,3.29,4.92.42-12.58,1.31-9.92,1.92,5.77.01-12.95-2.31,52.36-1.68,47.3-.05,5.27.46,5.37,1.11.22.57,5.15,1.19,4.79,1.34-.78.77,4.13,1.04,2.78.61-2.94.54,3.73,3.74-71.15,2.32-54.22,2.24-17.95,3.39-18.88,2.5-2.01,3.85-18.51,5.46-19.22,3.5-1.53,5.45-18.86,7.23-19.32,3.87-1.01,7-19,8.68-19.17,3.66-.37,10.4-18.8,13.7-18.13,7.16,1.45,12.07-16.91,14.34-15.07,4.95,3.99,12.98-14.39,14.29-11.7,2.84,5.85,13.1-11.45,13.51-8.17.9,7.11,12.61-7.61,11.44,1.67-2.55,20.15,9.29,10.25,5.81,30.05-7.56,43.01,7.89,16.94,6.49,20.79-3.03,8.38,5.69,18.52,3.36,20.93-5.06,5.25,2.94,19.25-.12,20.52-6.66,2.76-.25,19.27-3.84,19.65-7.79.82-2.39,18.83-4.91,18.62-5.48-.45-4.38,18.24-6.75,17.64-5.13-1.3-6.12,17.37-8.22,16.38-4.56-2.16-7.54,16.14-9.24,14.75-3.69-3.02-8.8,10.63-10.67,3.83-4.05-14.79-10.49,2.5-12.37-6.42-4.08-19.37-11.92-6.59-13.62-17.02-3.69-22.64-13.09-16.52-14.41-27.92-2.87-24.77Z"/><path class="cls-19" d="m1171.45,310.75c10.22-16.88,10.8-15.28,1.26,3.46,10.6-15.25,11.04-13.43.95,3.95,10.77-13.61,11.04-11.72.58,4.1,10.85-12.05,10.94-10.28.21,3.84,10.73-5.41,9.76-.16-2.11,11.4,7.99-4.7,5.32-2.99-5.79,3.72,7.72-6.71-21.58-6.71-21.22,0-2.15-6.71-3.05-5.72-1.95,2.16-1.1-5.75-1.1-5.48,0,.6-1.1-5.25-1.06-4.97.11.6-1.06-5.43,33.7-5.43,25.17,0,8.96-4.41,9.37-3.19.9,2.64,9.25-3.02,9.58-1.55.71,3.2,9.4-1.66,9.62-.09.47,3.43,9.49-.29,9.57,1.24.18,3.31,9.39,3.48,9.1,7.16-.63,8.01,8.57,5.67,7.79,8.36-1.68,5.85,8.51,4.64-7.27,4.64-11.43,0,.03,4.64-3.37,4.79-7.4.34-1.36,5.08-3.48,5.47-4.61.86-1.97,5.57-3.06,6.11-2.37,1.15-1.95,6.12-2.27,6.72-.68,1.3-1.58,6.58-1.52,7.09.13,1.12-1.41,6.94-1.13,7.35.61.89-.09,6.25,1.14,5.77,2.69-1.04.98,5.99,2.38,5.66,3.05-.71,2.43,5.89,4.17,5.7,3.77-.41,4.23,5.84,6.45,5.77,4.82-.15,4.15,5.92,24.59,5.92,14.8,0,10.32,7.01,10.86,8.23,1.16,2.64,10.76,8.26,11.24,9.8,1.03,3.35,11.03,9.95,11.37,11.95.74,4.36,11.17,12.12,11.3,14.73.29,5.66,11.01,13.87,10.92,15.84-.21,4.28,10.74,15.74,10.45,17.81-.63,4.51,10.3,17.42,9.79,19.38-1.11,4.25,9.64,18.83,8.89,20.45-1.63,3.5,9.65,18.32-44.82,18.32-39.44,0-8.24,18.32-10.9,17.82-5.79-1.08-10.06,16.91-12.21,15.37-4.69-3.35-11.21,14.54-12.67,11.9-3.16-5.73-11.64,11.25-12.17,7.43-1.16-8.31-11.01,11.28-11.01-86.54,0-70.83-11.01-19-8.32-21.4,5.85-5.21-3.4-19.2,4.81-19.96,17.85-1.64-1.99-18.32,39.97-18.32,30.38,0Z"/><path class="cls-20" d="m1255.75,383.98c11.69,20.24,9.35,28.42-5.08,17.76,6.72,22.38,1.28,25.31-11.82,6.37,3.79,18.94,1.5,18.56-4.98-.82,1.87,17.87-.36,16.52-4.84-2.94.17,15.55-1.85,12.88-4.4-5.81-1.23,11.9-2.86,7.56-3.53-9.42-.69,11.7-3.31,1.62-1.9-7.3-3.3,8.86-4.83,8.7-3.32-.34-3.84,8.56-4.88,8.33-2.26-.48-3.68,8.82-3.82,9.09-.29.6-3.77,9.18-3.83,9.66-.13,1.04-3.7,10.06-3.31,10.76.84,1.53-2.6,10.4-1.02,10.8,3.42.86-2.07,10.14,2.07,24.96,3,10.73-.93,14.23-.93,22.97,0,6.33-3.64,19.38-6.87,21.46-7,4.51-7.33,19.76-11.26,20.47-8.53,1.53-9.85,18.94-12.6,18.51-5.98-.93-11.62,17.73-13.79,16.41-4.71-2.87-12.76,15.71-14.19,13.5-3.11-4.8-13.12,13.02-13.63,9.89-1.11-6.82-12.52,13.07-12.52-84.65,0-70.76-12.52-15.47-11.97-17.03,1.21-3.39-10.95-16.72-9.42-18.18,3.32-3.17-8.86-17.76-6.58-19.01,4.95-2.72-6.29-18.55-3.49-19.53,6.08-2.12-3.61-19.05-.51-19.69,6.74-1.38-.8-19.2,2.38-19.42,6.92-.48,5.64-18.94,12.05-17.88,13.93,2.31,9.71-15.93,14.67-12.76,10.77,6.89,12.14-11.22,15.33-6.01,6.92,11.32,12.91-4.92,14.04,2.3,2.45,15.68,11.59-.35,11.07,4.07-1.13,9.61,10.11,2.56,8.72,6.16-3.03,7.82,8.26,4.64,6.21,7.34-4.45,5.85,5.96,5.95,3.47,7.64-5.4,3.69,6.25,6.36,6.49,7.21.53,1.86,6.94,6.31,7.52,6.55,1.26.52,7.61,6.03,8.63,5.69,2.21-.74,9.13,5.06,10.66,3.83,3.32-2.68,9.04,4.72,21.62,22.93,9.11,13.18Zm-36.64-32.18c-.46,2.42-.23,2.51.5.19-.1,2.39.11,2.41.45.04.92,2.37,1.75,1.86,1.79-1.12.93.92,1.17-.76.53-3.65.64.55.64-3.15,0-2.68.64-2.87.44-4.62-.45-3.8.06-3.01-.7-3.56-1.66-1.19-.4-2.37-.69-2.33-.63.07-.74-2.27-1.01-2.17-.58.22-.57-1.71-.55-1.12.05,1.27-.6-1.16-.6-.5,0,1.42-.6-1.23-.6,11.52,0,9.24Z"/><path class="cls-5" d="m635.97,374.06c.37,5.82-1.07,5.39-3.13-.93-.6,4.61-1.78,3.32-2.55-2.79-1.26,2.69-2.06.54-1.74-4.66-1.48.05-1.78-2.91-.63-6.44-1.14-2.44-.97-4.82.37-5.18-.66-3.96-.25-5.88.89-4.17-.18-5.07.36-6.49,1.16-3.09.36-5.73.87-6.66,1.11-2.01.2-5.33,43.32-5.33,31.23,0,13.6-2.25,14.67,1.13,2.32,7.34,13.61,1.13,13.92,4.75.68,7.86,13.24,4.57,12.89,8.32-.76,8.16,12.25,6.96,11.41,9.72-1.82,6,12.26,5.85,9.28,5.85-2.16,0,11.43,5.85,11.43,36.7,0,22.35,9.54,16.69,7.39,18.92-4.69,4.84,7.22,18.33,4.47,20.2-5.98,4.06,4.29,19.36.84,20.64-7.5,2.79.68,19.77-3.56,20.25-9.22,1.04-3.51,19.21-7.92,18.63-9.58-1.27-6.96,17.56-11.04,15.76-8.85-3.91-9.85,14.8-13.36,11.72-7.64-6.7-12.13,10.95-14.89,6.51-6-9.65-13.54,5.87-15.35-.01-3.92-12.77-13.99-.47-14.64-7.9-1.4-16.13-13.24-11.52-11.99-21.62,2.71-21.94-9.71-17.03-6.22-24.28,7.58-15.75-4.83-20.19.52-24.57,11.64-9.53,1.34-20.94,8.22-22.41,14.93-3.2,4.73-19.21,8.56-18.75,8.32,1,7.7-17.9,11.19-16.67,7.58,2.68,10.11-16.26,13.07-14.48,6.42,3.87,11.97-14.31,14.23-12.16,4.9,4.66,11.17-12.29,11.08-9.82-.21,5.36,10.9-9.84,10.64-7.18-.55,5.77,10.57-7.67,10.18-5.17-.84,5.44,10.1-5.88,9.6-3.91-1.08,4.28,10.15-6.61-28.17-6.61-27.75,0-1-5.72-1.67-4.52-1.45,2.61-1.73-4.11-2.43-2.31-1.53,3.91-2.21-2.04-2.77.36-1.21,5.21-2.48.57-2.71,3.57-.5,6.52-2.21,4.52-1.83,8.14.82,7.86-1.14,6.39-.15,8.92,2.16,5.51.16,7.46,1.59,8.97,3.11,3.28,1.73,7.68,3.42,8.17,3.66,1.08,2.38,7.09,2.98,6.87,1.32-.48,2.34,6.46,2.51,5.93.37-1.16,2.15,6.47,2.15,4.1,0-1.71,2.15,5.82,1.35,5.82-.58,0Z"/><path class="cls-5" d="m689.57,317.44c-7.1-17.45-4.96-19.01,4.63-3.39-4.85-18.43-2.34-19.61,5.45-2.57-2.5-18.96.24-19.7,5.95-1.6-.04-19.13,2.8-19.39,6.19-.56,3.26-18.83,7-18.35,8.14,1.04,6.29-17.47,9.67-15.96,7.35,3.28,8.43-15.12,11.05-12.47,5.69,5.77,9.72-11.72,11.2-7.83,3.21,8.45,8.77-11.76,25.35,85.23,12.01,70.24,11.11,19.04,7.98,22.37-6.79,7.23,6.73,20.35,1.64,21.66-11.06,2.83,3.82,18.83,1.28,18.48-5.53-.74,2.06,17.86-.04,16.85-4.56-2.2.88,16.37-.62,14.69-3.26-3.65.27,14.29-.5,11.91-1.66-5.18.82,14.34-.78,1.79-1.16-9.09,1.88,10.81,3.37,10.56,3.24-.56,3.09,10.22,4.43,9.68,2.9-1.19,3.9,9.56,4.87,8.83,2.11-1.6,4.27,8.78,4.65,7.96.82-1.79,3.83,7.83,3.51,6.94-.68-1.94,2.7,9.08,1.68,9.88-2.21,1.75,1.56,9.57.34,10.17-2.66,1.3.43,9.83-.86,10.19-2.79.78-.63,9.89-1.83,10.01-2.61.26-2.43,9.75-4.28,9.56-4.03-.41-3.5,9.21-4.92,8.75-3.08-1.01-4.26,8.66-5.3,8.06-2.26-1.3-4.78,8.06-5.51,7.43-1.58-1.38-4.71,8.53-4.88,8.92-.37.86-4.8,8.96-4.87,9.46-.16,1.08-4.71,9.95-4.34,10.9.82,2.05-3.65,10.56-2.65,11.32,2.19,1.64-2.31,10.98-.87,11.51,3.13,1.15-.75,11.18.95,11.45,3.71.6-.67,15.8-.35,19.62.71,8.3-.33,17,.02,18.8.76,3.91-.84,16.82-1.7,18.07-1.87,2.72-2.4,18.02-4,19.27-3.48,2.72-4.35,18.89-6.54,19.85-4.74,2.09-6.69,19.27-9.3,19.65-5.66.82-9.84,18.83-13.09,18.28-7.06-1.19-12.14,17.28-14.81,15.75-5.79-3.31-13.57,15.16-15.39,12.79-3.95-5.14-14.16,12.37-14.84,9.27-1.47-6.74-13.36,11.83-13.34,11.06.05-1.68-13.29,11.16-13.2,10.35.21-1.75-13.26,11.28,2.23-86.64,11.22-70.91Zm24.56,36.78c.29-2.07-.13-5.36-.92-7.15.16-3.15-.16-5.02-.68-4.06-.1-3.5-.44-4.32-.74-1.79-.43-3.28-.88-3.47-.97-.41-.78-3.06-1.09-3-.68.15-.99-2.87-1.26-2.73-.58.3-.92-2.89,1.84,17.88,2,15.05.04,3.11.32,3.32.61.45.44,3.15.76,3.21.71.15.78,3.06,1.19,2.98.89-.19,1.07,2.82,1.36,2.67.63-.34.93,2.87.56-.12-.26-2.16Z"/><path class="cls-5" d="m806.69,387.91c3.45,10.56,5.29,9.43,4-2.46,5.27,8.46,7.18,5.68,4.16-6.03,5.69,6.09,6.1,4.55.9-3.35,5.21,4.81,4.57,3.92-1.37-1.94,4.59,5.86,4.5,5.88-.18.04,4.54,5.91,4.46,5.93-.18.04,1.1,15.97-4.4,21.01-11.95,10.95-1.9,10.06-3.66,9.79-3.82-.6-3.09,9.28-4.6,8.39-3.29-1.94-4.12,7.86-5.46,6.21-2.9-3.57-5.08,5.68-6.29,3.14-2.63-5.51-4.82,5.63-5.26,5.63-.32,0-5.48,5.63-5.94,5.8-1,.37-5.71,6.12-5.91,6.74-.42,1.34-5.49,7.45-5.2,8.69.63,2.68-4.18,9.78-3.03,11.9,2.5,4.62-3.06,10.85-1.8,12.34,2.74,3.24-1.97,11.5-.69,12.41,2.76,1.97-.94,11.67.2,12.05,2.47.82-1.25,11.36-1.84,30.8-.42,14.08-2.68,17.89-4,18.96-2.87,2.31-3.89,18.57-5.45,19.37-3.4,1.75-5.55,18.92-7.52,19.42-4.29,1.08-7.64,19.03-10.18,19.2-5.5.37-10.25,18.83-13.08,18.45-6.16-.82-12.84,17.76-15.55,16.51-5.9-2.72-14.6,15.73-16.65,13.49-4.45-4.88-15.45,12.88-16.26,9.48-1.76-7.37-14.49,10.69-14.42,7.79.16-6.29-14.29,6.75-14.08,2.58.45-9.05-14,2.3-13.69-2.74.66-10.95-13.67-2.62-13.31-8.09.79-11.88-13.32-7.25-12.94-12.72.84-11.88-13-11.67-12.62-16.71.84-10.95-12.68-15.09-12.33-19.24.76-9.01-12.46-17.5-12.19-20.34.61-6.18-11.14-18-9.54-19.51,3.48-3.28-9.43-18.7-7.55-19.68,4.08-2.12-7.71-18.99-5.73-19.51,4.29-1.12-6.05-19.01-4.13-19.16,4.16-.34-3.15-18.83.08-18.31,7.03,1.12-.6-17.37,2.03-16.04,5.71,2.9-1.59-17.29,2.4,1.63,2.9,13.7-.49-12.07-3.04,3.05-1.84,10.95-1.29-7.35-1.36-6.84-.16,1.12-1.3-7-1.33-6.52-.05,1.04-1.27-4.75-.3-3.51,2.11,2.68-.47-6.06,6.44-46.69,5-29.42,2.26-17.88,3.31-18.53,2.29-1.42,3.59-18.49,5.02-19.11,3.11-1.34,5.07-18.86,6.77-19.31,3.71-.97,6.75-19.03,8.64-19.2,4.11-.37,9.91-18.83,12.93-18.43,6.56.86,11.56-17.71,13.74-16.44,4.74,2.76,12.54-15.7,13.94-13.42,3.03,4.95,12.94-12.75,13.62-9.29,1.47,7.52,12.83-8.38,13.25-3.17.92,11.32,13.35-2.28,13.87,4.18,1.13,14.04,13.8,3.79,14.34,10.7,1.16,15.01,14.24,9.68,14.72,16.24,1.03,14.26,14.51,14.25,14.85,19.69.74,11.81,14.65,17.34,14.78,20.84.29,7.6,9.11,23.53,1.36,27.54-16.85,8.71,4.87,18.83,1.94,18.45-6.37-.82,2.98,17.76.69,16.61-4.98-2.5,1.84,16.02.31,14.12-3.32-4.13,1.35,13.73.68,11.05-1.45-5.81,1.94,13.78,1.28,4.11-.47-7Z"/><path class="cls-5" d="m910.04,310.75c10.22-16.88,10.8-15.28,1.26,3.46,10.6-15.25,11.04-13.43.95,3.95,10.77-13.61,11.04-11.72.58,4.1,10.85-12.05,10.94-10.28.21,3.84,10.73-5.41,9.76-.16-2.11,11.4,7.99-4.7,5.32-2.99-5.79,3.72,7.72-6.71-21.58-6.71-21.22,0-2.15-6.71-3.05-5.72-1.95,2.16-1.1-5.75-1.1-5.48,0,.6-1.1-5.25-1.06-4.97.11.6-1.06-5.43,33.7-5.43,25.17,0,8.96-4.41,9.37-3.19.9,2.64,9.25-3.02,9.58-1.55.71,3.2,9.4-1.66,9.62-.09.47,3.43,9.49-.29,9.57,1.24.18,3.31,9.39,3.48,9.1,7.16-.63,8.01,8.57,5.67,7.79,8.36-1.68,5.85,8.51,4.64-7.27,4.64-11.43,0,.03,4.64-3.37,4.79-7.4.34-1.36,5.08-3.48,5.47-4.61.86-1.97,5.57-3.06,6.11-2.37,1.15-1.95,6.12-2.27,6.72-.68,1.3-1.58,6.58-1.52,7.09.13,1.12-1.41,6.94-1.13,7.35.61.89-.09,6.25,1.14,5.77,2.69-1.04.98,5.99,2.38,5.66,3.05-.71,2.43,5.89,4.17,5.7,3.77-.41,4.23,5.84,6.45,5.77,4.82-.15,4.15,5.92,24.59,5.92,14.8,0,10.32,7.01,10.86,8.23,1.16,2.64,10.76,8.26,11.24,9.8,1.03,3.35,11.03,9.95,11.37,11.95.74,4.36,11.17,12.12,11.3,14.73.29,5.66,11.01,13.87,10.92,15.84-.21,4.28,10.74,15.74,10.45,17.81-.63,4.51,10.3,17.42,9.79,19.38-1.11,4.25,9.64,18.83,8.89,20.45-1.63,3.5,9.65,18.32-44.82,18.32-39.44,0-8.24,18.32-10.9,17.82-5.79-1.08-10.06,16.91-12.21,15.37-4.69-3.35-11.21,14.54-12.67,11.9-3.16-5.73-11.64,11.25-12.17,7.43-1.16-8.31-11.01,11.28-11.01-86.54,0-70.83-11.01-19-8.32-21.4,5.85-5.21-3.4-19.2,4.81-19.96,17.85-1.64-1.99-18.32,39.97-18.32,30.38,0Z"/><path class="cls-5" d="m990.76,409.22c-3.96,19.21-7.99,18.61-8.74-1.3-7.2,17.51-10.95,15.68-8.16-3.99-9.87,14.73-13.13,11.61-7.08-6.78-12.01,10.84-14.59,6.38-5.61-9.68-13.34,5.78-15.04-.08-3.69-12.74-13.78-.51-14.39-7.85-1.32-15.94-13.07-12-11.76-22.37,2.84-22.53-9.37-17.33-5.88-24.56,7.58-15.72-4.73-20.29.29-24.53,10.93-9.2.76-20.82,6.71-22.19,12.93-2.98,7.36-19.21,13.98-17.51,14.38,3.69,11.33-14.41,16.3-9.66,10.79,10.32,13.65-7.77,16.78-.43,6.79,15.94,14.35.77,15.44,10.2,2.37,20.48,13.07,12.21,11.84,22.7-2.66,22.79,9.61,17.46,6.26,24.68-7.27,15.68,5.05,20.31.08,24.48-10.8,9.05-.52,20.78-6.64,22.12-13.3,2.91Zm2.21-53.8c.7-4.53.65-7.35-.1-6.14.56-5.94.39-7.91-.37-4.28.27-6.65-.06-7.61-.71-2.09-.17-6.48-.64-6.72-1.03-.52-.68-6.2-1.09-6.08-.89.26-.78-5.86-1.02-5.64-.53.48-.64-4.68-.57-3.53.16,2.5-.53-3.9-.45-2.7.18,2.61-.48-2.64-.42-1.09.13,3.35-.46-.95-.43,1.2.05,4.66-.49-.92-.49,5.76,0,4.84-.49,3.46-.51,5.6-.05,4.66-.56,4.44-.62,5.99-.13,3.35-.63,5.31-.72,6.51-.18,2.61-.73,6.03-.8,7.18-.16,2.5-.5,6.12-.25,6.34.53.48-.2,6.34.21,6.46.89.26.39,6.2.86,5.96,1.03-.52.66,5.52.98,4.56.71-2.09.76,3.63.93,1.66.37-4.28.75,1.21.8-1.62.1-6.14.7,1.23.7-7.71,0-6.48Z"/><path class="cls-5" d="m1036.61,319.68c-10.42-19.48-7.48-23.01,6.4-7.67-6.46-20.27-2.16-21.51,9.35-2.68-2.78-18.83.51-18.23,7.14,1.3-1.15-17.13,1.17-15.55,5.03,3.43-.08-15.07,1.43-12.81,3.29,4.92.42-12.58,1.31-9.92,1.92,5.77.01-12.95-2.31,52.36-1.68,47.3-.05,5.27.46,5.37,1.11.22.57,5.15,1.19,4.79,1.34-.78.77,4.13,1.04,2.78.61-2.94.54,3.73,3.74-71.15,2.32-54.22,2.24-17.95,3.39-18.88,2.5-2.01,3.85-18.51,5.46-19.22,3.5-1.53,5.45-18.86,7.23-19.32,3.87-1.01,7-19,8.68-19.17,3.66-.37,10.4-18.8,13.7-18.13,7.16,1.45,12.07-16.91,14.34-15.07,4.95,3.99,12.98-14.39,14.29-11.7,2.84,5.85,13.1-11.45,13.51-8.17.9,7.11,12.61-7.61,11.44,1.67-2.55,20.15,9.29,10.25,5.81,30.05-7.56,43.01,7.89,16.94,6.49,20.79-3.03,8.38,5.69,18.52,3.36,20.93-5.06,5.25,2.94,19.25-.12,20.52-6.66,2.76-.25,19.27-3.84,19.65-7.79.82-2.39,18.83-4.91,18.62-5.48-.45-4.38,18.24-6.75,17.64-5.13-1.3-6.12,17.37-8.22,16.38-4.56-2.16-7.54,16.14-9.24,14.75-3.69-3.02-8.8,10.63-10.67,3.83-4.05-14.79-10.49,2.5-12.37-6.42-4.08-19.37-11.92-6.59-13.62-17.02-3.69-22.64-13.09-16.52-14.41-27.92-2.87-24.77Z"/><path class="cls-5" d="m1171.45,310.75c10.22-16.88,10.8-15.28,1.26,3.46,10.6-15.25,11.04-13.43.95,3.95,10.77-13.61,11.04-11.72.58,4.1,10.85-12.05,10.94-10.28.21,3.84,10.73-5.41,9.76-.16-2.11,11.4,7.99-4.7,5.32-2.99-5.79,3.72,7.72-6.71-21.58-6.71-21.22,0-2.15-6.71-3.05-5.72-1.95,2.16-1.1-5.75-1.1-5.48,0,.6-1.1-5.25-1.06-4.97.11.6-1.06-5.43,33.7-5.43,25.17,0,8.96-4.41,9.37-3.19.9,2.64,9.25-3.02,9.58-1.55.71,3.2,9.4-1.66,9.62-.09.47,3.43,9.49-.29,9.57,1.24.18,3.31,9.39,3.48,9.1,7.16-.63,8.01,8.57,5.67,7.79,8.36-1.68,5.85,8.51,4.64-7.27,4.64-11.43,0,.03,4.64-3.37,4.79-7.4.34-1.36,5.08-3.48,5.47-4.61.86-1.97,5.57-3.06,6.11-2.37,1.15-1.95,6.12-2.27,6.72-.68,1.3-1.58,6.58-1.52,7.09.13,1.12-1.41,6.94-1.13,7.35.61.89-.09,6.25,1.14,5.77,2.69-1.04.98,5.99,2.38,5.66,3.05-.71,2.43,5.89,4.17,5.7,3.77-.41,4.23,5.84,6.45,5.77,4.82-.15,4.15,5.92,24.59,5.92,14.8,0,10.32,7.01,10.86,8.23,1.16,2.64,10.76,8.26,11.24,9.8,1.03,3.35,11.03,9.95,11.37,11.95.74,4.36,11.17,12.12,11.3,14.73.29,5.66,11.01,13.87,10.92,15.84-.21,4.28,10.74,15.74,10.45,17.81-.63,4.51,10.3,17.42,9.79,19.38-1.11,4.25,9.64,18.83,8.89,20.45-1.63,3.5,9.65,18.32-44.82,18.32-39.44,0-8.24,18.32-10.9,17.82-5.79-1.08-10.06,16.91-12.21,15.37-4.69-3.35-11.21,14.54-12.67,11.9-3.16-5.73-11.64,11.25-12.17,7.43-1.16-8.31-11.01,11.28-11.01-86.54,0-70.83-11.01-19-8.32-21.4,5.85-5.21-3.4-19.2,4.81-19.96,17.85-1.64-1.99-18.32,39.97-18.32,30.38,0Z"/><path class="cls-5" d="m1255.75,383.98c11.69,20.24,9.35,28.42-5.08,17.76,6.72,22.38,1.28,25.31-11.82,6.37,3.79,18.94,1.5,18.56-4.98-.82,1.87,17.87-.36,16.52-4.84-2.94.17,15.55-1.85,12.88-4.4-5.81-1.23,11.9-2.86,7.56-3.53-9.42-.69,11.7-3.31,1.62-1.9-7.3-3.3,8.86-4.83,8.7-3.32-.34-3.84,8.56-4.88,8.33-2.26-.48-3.68,8.82-3.82,9.09-.29.6-3.77,9.18-3.83,9.66-.13,1.04-3.7,10.06-3.31,10.76.84,1.53-2.6,10.4-1.02,10.8,3.42.86-2.07,10.14,2.07,24.96,3,10.73-.93,14.23-.93,22.97,0,6.33-3.64,19.38-6.87,21.46-7,4.51-7.33,19.76-11.26,20.47-8.53,1.53-9.85,18.94-12.6,18.51-5.98-.93-11.62,17.73-13.79,16.41-4.71-2.87-12.76,15.71-14.19,13.5-3.11-4.8-13.12,13.02-13.63,9.89-1.11-6.82-12.52,13.07-12.52-84.65,0-70.76-12.52-15.47-11.97-17.03,1.21-3.39-10.95-16.72-9.42-18.18,3.32-3.17-8.86-17.76-6.58-19.01,4.95-2.72-6.29-18.55-3.49-19.53,6.08-2.12-3.61-19.05-.51-19.69,6.74-1.38-.8-19.2,2.38-19.42,6.92-.48,5.64-18.94,12.05-17.88,13.93,2.31,9.71-15.93,14.67-12.76,10.77,6.89,12.14-11.22,15.33-6.01,6.92,11.32,12.91-4.92,14.04,2.3,2.45,15.68,11.59-.35,11.07,4.07-1.13,9.61,10.11,2.56,8.72,6.16-3.03,7.82,8.26,4.64,6.21,7.34-4.45,5.85,5.96,5.95,3.47,7.64-5.4,3.69,6.25,6.36,6.49,7.21.53,1.86,6.94,6.31,7.52,6.55,1.26.52,7.61,6.03,8.63,5.69,2.21-.74,9.13,5.06,10.66,3.83,3.32-2.68,9.04,4.72,21.62,22.93,9.11,13.18Zm-36.64-32.18c-.46,2.42-.23,2.51.5.19-.1,2.39.11,2.41.45.04.92,2.37,1.75,1.86,1.79-1.12.93.92,1.17-.76.53-3.65.64.55.64-3.15,0-2.68.64-2.87.44-4.62-.45-3.8.06-3.01-.7-3.56-1.66-1.19-.4-2.37-.69-2.33-.63.07-.74-2.27-1.01-2.17-.58.22-.57-1.71-.55-1.12.05,1.27-.6-1.16-.6-.5,0,1.42-.6-1.23-.6,11.52,0,9.24Z"/><path class="cls-6" d="m1423.2,1017.21c4.17,14.19,1.34,32.43-11.39,44.96-16.02,15.78-40.49,15.37-75.46,14.78-32.29-.54-52.65-.88-68.34-14.78-12.84-11.38-19.46-29.1-15.66-44.96,7.43-31,52.54-46.21,85.42-46.2,32.8.02,76.32,15.21,85.42,46.2Z"/><path class="cls-25" d="m1304.97,1091.18s-19.42.34-24.16-23.22c-4.74-23.56,13.34-30.55,13.34-30.55-13.05,2.54-21.21,16.64-18.23,31.49,2.99,14.85,15.99,24.83,29.04,22.28Z"/><path class="cls-25" d="m1389.99,1092.1s16.74-6.71,12-30.26c-4.74-23.56-22.82-23.51-22.82-23.51,12.11-2.36,24.36,7.76,27.34,22.61s-4.41,28.8-16.53,31.16Z"/><path class="cls-25" d="m1338.49,1092.22s-19.42.2-24-23.38c-4.57-23.59,13.56-30.46,13.56-30.46-13.07,2.45-21.33,16.5-18.45,31.37,2.88,14.87,15.82,24.93,28.89,22.48Z"/><path class="cls-25" d="m1368.7,1092.1s10.93-5.58,6.19-29.13c-4.74-23.56-17-24.64-17-24.64,8.07-1.57,17.03,9.19,20.02,24.04,2.99,14.85-1.13,28.16-9.2,29.73Z"/><path class="cls-6" d="m1868.57,1016.05c4.17,14.19,1.34,32.43-11.39,44.96-16.02,15.78-40.49,15.37-75.46,14.78-32.29-.54-52.65-.88-68.34-14.78-12.84-11.38-19.46-29.1-15.66-44.96,7.43-31,52.54-46.21,85.42-46.2,32.8.02,76.32,15.21,85.42,46.2Z"/><path class="cls-25" d="m1750.33,1090.02s-19.42.34-24.16-23.22c-4.74-23.56,13.34-30.55,13.34-30.55-13.05,2.54-21.21,16.64-18.23,31.49s15.99,24.83,29.04,22.28Z"/><path class="cls-25" d="m1835.35,1090.95s16.74-6.71,12-30.26c-4.74-23.56-22.82-23.51-22.82-23.51,12.11-2.36,24.36,7.76,27.34,22.61,2.99,14.85-4.41,28.8-16.53,31.16Z"/><path class="cls-25" d="m1783.85,1091.06s-19.42.2-24-23.38c-4.57-23.59,13.56-30.46,13.56-30.46-13.07,2.45-21.33,16.5-18.45,31.37s15.82,24.93,28.89,22.48Z"/><path class="cls-25" d="m1814.07,1090.95s10.93-5.58,6.19-29.13c-4.74-23.56-17-24.64-17-24.64,8.07-1.57,17.03,9.19,20.02,24.04,2.99,14.85-1.13,28.16-9.2,29.73Z"/><path class="cls-26" d="m1432.55,1066.62c32.46-50.4,78.92-93.84,130.52-93.84s98.47,43.83,130.96,94.51c29.02,45.28-290.76,44.78-261.48-.67Z"/><path class="cls-6" d="m1541.62,823.8h-31.67c-1.84.54-3.76.83-5.74.83s-3.9-.29-5.74-.83h-32.98s-5.02-87.83,38.05-101.26c43.08-13.43,38.06,101.26,38.06,101.26Z"/><path class="cls-6" d="m1577.03,904.32c-10.29,6.03-21.17,5.78-26.04,5.69-5.87-.12-16.13-.33-25.55-6.62-2.96-1.98-15.27-9.94-14.26-21.78.77-9.1,9.12-17.04,20.88-19.87,3.34-.8,6.03-1.09,11.37-1.39,10.73-.59,19.57.19,25.54.98,12.67,2.48,22.27,10.53,23.82,19.76,2.15,12.72-12.12,21.09-15.76,23.23Z"/><path class="cls-6" d="m1638.38,823.53h-32.98c-1.84.54-3.76.83-5.74.83s-3.9-.29-5.74-.83h-31.67s-5.02-114.69,38.06-101.26c43.08,13.43,38.05,101.26,38.05,101.26Z"/><path class="cls-8" d="m1541.62,823.8h-76.12s-5.02-87.83,38.05-101.26c43.08-13.43,38.06,101.26,38.06,101.26Z"/><ellipse class="cls-8" cx="1503.83" cy="786.66" rx="30.68" ry="37.14"/><path class="cls-7" d="m1529.14,793.68c0,11.18-4.78,20.98-11.93,26.41-.02.02-.05.04-.08.05-2.19,1.68-4.61,2.91-7.18,3.66-1.84.54-3.76.83-5.74.83s-3.9-.29-5.74-.83c-1.72-.5-3.36-1.22-4.92-2.14-8.44-4.96-14.27-15.62-14.27-27.98,0-17.09,11.16-30.95,24.92-30.95s24.92,13.86,24.92,30.95Z"/><ellipse class="cls-2" cx="1504.6" cy="794.09" rx="18.41" ry="19.81"/><ellipse class="cls-8" cx="1511.12" cy="782.12" rx="7.29" ry="7.84"/><path class="cls-8" d="m1638.38,823.53h-76.12s-5.02-114.69,38.06-101.26c43.08,13.43,38.05,101.26,38.05,101.26Z"/><ellipse class="cls-8" cx="1600.05" cy="786.39" rx="30.68" ry="37.14"/><path class="cls-7" d="m1624.59,793.4c0,12.36-5.84,23.02-14.27,27.98-1.56.92-3.2,1.63-4.92,2.14-1.84.54-3.76.83-5.74.83s-3.9-.29-5.74-.83c-2.57-.75-4.99-1.99-7.18-3.66-.02,0-.05-.03-.08-.05-7.16-5.43-11.93-15.23-11.93-26.41,0-17.09,11.16-30.95,24.92-30.95s24.92,13.86,24.92,30.95Z"/><ellipse class="cls-2" cx="1599.28" cy="793.81" rx="18.41" ry="19.81"/><ellipse class="cls-8" cx="1592.76" cy="781.85" rx="7.29" ry="7.84"/><path class="cls-4" d="m1577.03,904.32c-10.29,6.03-21.17,5.78-26.04,5.69-5.87-.12-16.13-.33-25.55-6.62-2.96-1.98-15.27-9.94-14.26-21.78.77-9.1,9.12-17.04,20.88-19.87,3.34-.8,6.03-1.09,11.37-1.39,10.73-.59,19.57.19,25.54.98,12.67,2.48,22.27,10.53,23.82,19.76,2.15,12.72-12.12,21.09-15.76,23.23Z"/><ellipse class="cls-28" cx="1562.19" cy="873.7" rx="10.58" ry="20.5" transform="translate(524.63 2332.22) rotate(-83.79)"/><path class="cls-3" d="m1724.14,810.81c-4.39-48.38-24.44-105.15-57.41-147.22-2.28-2.93-4.64-5.77-7.04-8.55.87-3.18,1.37-6.67,1.37-10.32,0-15.05-8.25-27.24-18.41-27.24-5.51,0-10.45,3.57-13.83,9.25-.2.33-.39.68-.58,1.03.11-.4.22-.81.31-1.23.69-2.83,1.05-5.88,1.05-9.05,0-15.05-8.24-27.24-18.39-27.24-8.06,0-14.91,7.67-17.4,18.34-.34-.11-.69-.22-1.02-.35-.35-14.59-8.45-26.25-18.39-26.25-8.53,0-15.71,8.58-17.79,20.23-.47-.01-.95-.01-1.42-.01-.95,0-1.92,0-2.88.04-2.08-11.66-9.26-20.26-17.79-20.26-10.04,0-18.21,11.9-18.41,26.69-.3.11-.6.21-.91.32-2.4-10.89-9.32-18.76-17.49-18.76-10.16,0-18.41,12.19-18.41,27.24,0,3.46.44,6.75,1.24,9.79-.22.15-.43.31-.64.47-3.36-6.26-8.56-10.26-14.39-10.26-10.17,0-18.41,12.19-18.41,27.24,0,4.28.67,8.33,1.87,11.92-2.22,2.58-4.37,5.23-6.48,7.95-32.49,41.82-52.27,97.88-56.26,146.22-.4,4.73-.9,12.45-.87,22.23.05,22.27,2.78,55.14,15.49,87.42,7.28,18.49,17.84,36.77,33.05,52.76,41.69,43.82,94.62,45.38,121.29,46.17,10.22.31,23.34.7,37.88-.85,23.69-2.52,51.11-10.19,75.7-31.8,44.8-39.31,54.67-102.34,56.12-141.67.64-17.54-.39-30.37-.74-34.26Zm-220.58-88.27c43.08-13.43,38.07,101.26,38.07,101.26h-31.67c-1.84.54-3.76.82-5.74.82s-3.9-.28-5.74-.82h-32.97s-5.02-87.83,38.05-101.26Zm40.79,187.13c-.5-.04-1.02-.1-1.55-.17-.52-.06-1.06-.13-1.61-.22-.44-.07-.93-.14-1.4-.24-.05-.01-.09-.01-.15-.03-.39-.07-.79-.14-1.2-.24-.2-.04-.4-.08-.6-.14-.09-.01-.2-.04-.31-.07h-.03c-.27-.07-.55-.14-.82-.21-.46-.13-.91-.25-1.38-.39-.03,0-.04-.01-.07-.01-.47-.15-.95-.29-1.42-.46-.42-.14-.82-.28-1.24-.45-.09-.03-.17-.07-.27-.1-.4-.17-.82-.33-1.22-.5-.47-.21-.94-.42-1.41-.66-.48-.22-.95-.46-1.42-.73-.42-.22-.82-.46-1.25-.7,0-.01-.01-.01-.01-.01-.51-.31-1.03-.63-1.55-.98-2.97-1.98-15.28-9.94-14.27-21.78.04-.49.11-.96.19-1.44.04-.24.09-.47.15-.71.03-.15.07-.32.11-.47.05-.24.12-.47.2-.73.04-.15.09-.31.15-.46.12-.38.26-.75.4-1.12.01-.06.04-.13.08-.18.08-.22.17-.43.28-.66l.24-.5c.11-.22.23-.45.35-.66.15-.28.31-.54.47-.81.11-.2.23-.39.35-.57.11-.17.23-.35.35-.52.16-.22.34-.46.51-.68.13-.2.3-.38.44-.56.15-.2.31-.38.47-.56h0s.03-.06.05-.07c.34-.39.69-.77,1.05-1.13.38-.38.77-.74,1.17-1.1.01,0,.01-.01.01-.01.34-.29.68-.59,1.03-.86.04-.03.07-.06.11-.08.11-.1.23-.18.36-.28.35-.26.71-.54,1.1-.79.43-.31.89-.6,1.36-.89.04-.03.09-.06.15-.08.39-.24.78-.46,1.18-.68.04-.03.09-.04.13-.07.11-.06.21-.11.32-.17.46-.24.91-.47,1.38-.68.48-.22.97-.45,1.48-.66.05-.03.12-.04.17-.07.27-.11.55-.22.83-.32.23-.1.44-.17.67-.25.03-.01.07-.03.09-.03.3-.11.58-.21.87-.29.27-.1.54-.18.82-.25.23-.07.46-.14.69-.2.36-.1.73-.2,1.09-.28,3.33-.79,6.03-1.09,11.38-1.38,10.72-.59,19.56.2,25.53.98,12.67,2.48,22.28,10.54,23.82,19.76,2.15,12.72-12.12,21.1-15.76,23.23-10.29,6.04-21.18,5.79-26.04,5.69-1.22-.03-2.65-.06-4.21-.15-.78-.04-1.59-.1-2.43-.18Zm94.03-86.14h-32.97c-1.84.53-3.76.82-5.74.82s-3.9-.29-5.74-.82h-31.67s-5.01-114.69,38.06-101.27c43.08,13.43,38.05,101.27,38.05,101.27Z"/><path class="cls-3" d="m1442.48,664.59c-32.49,41.82-52.27,97.88-56.27,146.22-.39,4.73-.89,12.46-.87,22.24-15.42,30.91-38.64,77.03-50.39,72.9-3.91-1.37-6.95-8.41-11.42-7.33-5.31,1.28-5.15,12.19-10.02,13.09-2.78.52-4.32-2.76-7.18-6.06-1.43-1.65-3.18-3.3-5.58-4.5-10.15-5.05-17.11,5.45-26.87.78-5.37-2.57-8.41-8.21-13.9-18.42-4.98-9.26-5.19-13.6-9-14.9-6.39-2.2-12.52,7.66-16.27,5.18-2-1.32-1.17-4.75-1.68-15.75-.48-10.48-.78-15.75-3.31-17.5-4.77-3.3-13.27,5.06-15.46,2.57-1.62-1.85,4.84-7.12,4.84-15.73,0-.07,0-.13,0-.21h0c-.05-4.32-1.71-7.53-4.4-12.74-5.29-10.26-10.68-13.04-9.51-16.55,1.53-4.56,9.41-5.27,11.36-5.51,24.8-3.12,45.09-52.71,60.01-78.82,28.77-50.34,85.85-100.14,124.02-84.69,12.55,5.08,24.5,15.59,24.5,15.59,0,0,10.41,9.16,17.43,20.14Z"/><path class="cls-27" d="m1220.22,828.27c5.52-12.81,13.1-24.62,22.11-35.25,8.95-10.56,19.18-19.97,29.95-28.63,10.7-8.6,21.97-16.46,33.34-24.13,10.63-7.17,21.24-14.57,30.39-23.61s16.61-19.77,19.87-32.26c.41-1.58.75-3.18,1.03-4.8.33-1.89-2.56-2.7-2.89-.8-2.22,12.77-8.88,23.93-17.7,33.25s-19.27,16.83-29.82,24c-11.27,7.66-22.51,15.36-33.25,23.77s-21.07,17.59-30.2,27.82c-9.22,10.34-17.24,21.79-23.23,34.31-.76,1.59-1.48,3.19-2.18,4.81-.76,1.75,1.83,3.28,2.59,1.51h0Z"/><path class="cls-24" d="m1238.88,872.31c5.38-16.65,13.28-32.37,23.26-46.74,9.37-13.5,20.48-25.71,32.43-36.96,11.58-10.9,23.96-20.91,36.5-30.67,11.75-9.15,23.4-18.64,32.97-30.12,10.23-12.26,17.67-26.63,20.39-42.45.36-2.12.65-4.26.87-6.4.2-1.92-2.8-1.9-3,0-1.65,16.12-8.15,31.12-18.07,43.86-9.2,11.8-20.69,21.54-32.41,30.74-12.39,9.73-24.77,19.47-36.38,30.14-12.01,11.03-23.22,22.97-32.88,36.13-10.19,13.88-18.48,29.11-24.39,45.3-.77,2.11-1.5,4.24-2.19,6.38-.6,1.84,2.3,2.63,2.89.8h0Z"/><path class="cls-27" d="m1307.82,905.68c1.43-15.47,5.25-30.63,10.95-45.06,5.5-13.92,12.74-27.11,20.84-39.68,7.93-12.29,16.71-24,25.71-35.52,8.75-11.19,17.49-22.49,24.04-35.15,6.75-13.05,10.92-27.45,10.27-42.24-.09-2-.27-3.98-.51-5.97s-3.24-1.91-3,0c1.86,14.92-1.2,29.68-7.61,43.19-6.14,12.95-14.73,24.53-23.52,35.77-8.98,11.47-17.83,23.06-25.87,35.21s-15.58,25.37-21.38,39.06-10.24,29.02-12.23,44.3c-.26,2.02-.49,4.04-.67,6.07-.18,1.92,2.82,1.91,3,0h0Z"/><path class="cls-3" d="m1886.92,830.98c0,8.62,6.45,13.88,4.83,15.73-2.19,2.49-10.69-5.87-15.46-2.57-2.53,1.75-2.82,7.02-3.31,17.5-.51,11.01.32,14.43-1.68,15.75-3.75,2.48-9.89-7.38-16.27-5.18-3.82,1.3-4.03,5.64-9,14.9-5.5,10.21-8.53,15.85-13.9,18.42-9.76,4.67-16.72-5.83-26.87-.77-2.4,1.19-4.16,2.85-5.58,4.49-2.86,3.3-4.41,6.58-7.19,6.06-4.87-.9-4.72-11.81-10.02-13.09-4.47-1.08-7.51,5.96-11.42,7.33-10.73,3.76-31-34.31-46.18-64.48.65-17.55-.38-30.38-.74-34.27-4.39-48.37-24.44-105.14-57.41-147.22,6.6-8.83,14.23-15.54,14.23-15.54,0,0,11.94-10.51,24.5-15.59,38.17-15.44,95.24,34.35,124.02,84.69,14.92,26.11,35.22,75.7,60.01,78.82,1.95.25,9.82.95,11.36,5.51,1.18,3.51-4.22,6.29-9.5,16.55-2.7,5.22-4.36,8.43-4.4,12.75h0c0,.07,0,.13,0,.2Z"/><path class="cls-27" d="m1888.38,830.36c-5.52-12.81-13.11-24.59-22.07-35.26-8.82-10.5-18.9-19.87-29.54-28.49s-21.9-16.56-33.26-24.26c-10.6-7.18-21.23-14.41-30.47-23.33s-16.77-19.4-20.01-31.84c-.41-1.58-.75-3.18-1.03-4.8-.33-1.9-3.22-1.09-2.89.8,2.21,12.76,8.8,24.05,17.48,33.51,8.75,9.54,19.29,17.25,29.93,24.52,11.21,7.67,22.47,15.24,33.2,23.59,10.86,8.45,21.25,17.59,30.48,27.82,9.33,10.35,17.39,21.85,23.42,34.43.76,1.59,1.48,3.19,2.18,4.81.76,1.77,3.35.24,2.59-1.51h0Z"/><path class="cls-24" d="m1870.01,875.12c-5.36-16.58-13.15-32.3-23.02-46.67-9.28-13.51-20.24-25.79-32.09-37.08-11.53-10.98-23.89-21.05-36.43-30.85-11.72-9.14-23.41-18.46-33.15-29.76-10.34-12-17.88-26.14-20.73-41.81-.38-2.11-.68-4.24-.9-6.38-.2-1.9-3.2-1.92-3,0,1.67,16.26,7.9,31.42,17.75,44.43,9.1,12.02,20.51,21.95,32.29,31.26s24.7,19.35,36.33,29.92c12.1,10.99,23.47,22.86,33.21,36.01,10.29,13.88,18.73,29.11,24.65,45.35.77,2.11,1.5,4.24,2.19,6.38.59,1.83,3.49,1.05,2.89-.8h0Z"/><path class="cls-24" d="m1801.18,909.29c-1.43-15.47-5.11-30.63-10.76-45.1s-12.53-27.19-20.58-39.8-16.62-24.08-25.6-35.63-17.57-22.42-24.29-35.01-11.24-27.29-10.58-42.11c.09-2,.27-3.98.51-5.97s-2.76-1.89-3,0c-1.86,14.92,1.16,29.7,7.36,43.29,5.96,13.06,14.49,24.73,23.27,36.02s17.82,22.96,25.9,35.05c8.26,12.34,15.72,25.26,21.62,38.9s10.46,29.04,12.47,44.29c.26,2.02.49,4.04.67,6.07.18,1.91,3.18,1.92,3,0h0Z"/><path class="cls-1" d="m1629,966.27c-4.86-4.14-7.6-9.35-9.2-13.4-2.22-5.61-2.12-8.59-5.11-16.95-2.75-7.68-4.12-11.52-6.75-13.8-5.99-5.19-12.6,2.79-12.89,3.15-3.63,4.52-5.56,11.51-6.95,16.56-1.44,5.2-1.94,9.03-4.3,14.98-1.54,3.89-2.31,5.84-3.68,7.1-3.42,3.14-8.26.31-11.04-5.12-2.4-4.68-1.33-7.51-4.3-16.56-1.05-3.21-2.78-8.39-5.93-12.62-2.03-2.72-5.66-7.6-9.61-5.91-3.33,1.42-5.31,6.85-7.98,14.19-1.89,5.21-1.71,6.4-4.5,14.59-2.15,6.3-3.26,9.49-4.91,11.43-.3.35-4.58,5.22-8.59,1.97-1.44-1.17-2.82-4.61-5.52-11.43-3.04-7.68-2.99-8.62-4.7-12.22-1.92-4.01-3.87-8.09-6.95-10.25-5.19-3.63-10.18.55-11.86,1.97-3.31,2.78-5.98,6.05-7.77,11.43-7.52,22.66-4.54,21.61-4.54,21.61"/><path class="cls-10" d="m1644.74,839.77c-.83,4.81-2.46,5.87-2.15,9.3.03.33.18,1.77.92,3.48.42.97,1.46,3.27,3.95,4.89.99.64,3.46,2.26,6.58,1.54.3-.07,3.26-.8,4.82-3.55,1.6-2.83.63-5.89-.1-8.16-.95-2.99-2.41-5.04-4.74-7.94-4.07-5.08-10.21-12.03-10.97-11.45-.42.32,1.5,2.38,1.98,6.44.26,2.2-.02,3.94-.29,5.45Z"/><path class="cls-9" d="m1644.75,890.16c-1.43,7.25-3.89,8.76-3.57,13.99.03.51.19,2.71,1.21,5.34.59,1.51,2.02,5.06,5.64,7.69,1.43,1.04,5.02,3.65,9.67,2.76.44-.08,4.86-1,7.28-5.08,2.48-4.19,1.17-8.9.2-12.4-1.28-4.61-3.36-7.81-6.68-12.37-5.82-7.98-14.61-18.94-15.76-18.11-.63.46,2.11,3.71,2.66,9.91.29,3.36-.2,5.98-.65,8.27Z"/><path class="cls-12" d="m289.18,904.89c0,13.94-32.31,25.24-72.18,25.24s-72.17-11.31-72.17-25.24c0-9.51,15.06-17.8,37.29-22.1-10.78-3.65-17.55-8.97-17.55-14.9,0-8.28,13.27-15.39,32.17-18.4-5.55-3.63-9.01-8.77-9.01-14.48,0-8.43,7.56-15.64,18.24-18.55.38-10.3,3.04-18.65,8.08-23.27,12.33-11.33,34.27,3.83,48.98,33.84-.54-.81-11.76-17.45-28.35-7.54,6.55,3.65,10.74,9.25,10.74,15.52,0,5.65-3.4,10.74-8.85,14.37,19.27,2.95,32.87,10.12,32.87,18.5,0,5.93-6.79,11.25-17.56,14.9,22.24,4.3,37.3,12.59,37.3,22.1Z"/><path class="cls-13" d="m385,981.94c0,11.7-27.35,21.2-61.09,21.2s-61.08-9.49-61.08-21.2c0-7.99,12.74-14.95,31.56-18.55-9.12-3.07-14.86-7.53-14.86-12.51,0-6.95,11.23-12.92,27.23-15.45-4.7-3.05-7.62-7.36-7.62-12.16,0-7.08,6.4-13.13,15.44-15.58.32-8.65,2.57-15.66,6.84-19.54,10.43-9.51,29,3.21,41.46,28.41-.46-.68-9.96-14.65-23.99-6.33,5.55,3.07,9.09,7.77,9.09,13.03,0,4.74-2.88,9.02-7.49,12.07,16.31,2.47,27.82,8.5,27.82,15.54,0,4.98-5.74,9.44-14.86,12.51,18.82,3.61,31.57,10.57,31.57,18.55Z"/><path class="cls-15" d="m267.18,997.07c0,9.42-22.65,17.07-50.59,17.07s-50.59-7.65-50.59-17.07c0-6.43,10.55-12.04,26.13-14.94-7.55-2.47-12.3-6.07-12.3-10.07,0-5.6,9.3-10.41,22.55-12.44-3.89-2.45-6.31-5.93-6.31-9.79,0-5.7,5.3-10.57,12.78-12.54.26-6.96,2.13-12.61,5.66-15.74,8.64-7.66,24.02,2.59,34.33,22.88-.38-.55-8.24-11.8-19.87-5.1,4.59,2.47,7.53,6.26,7.53,10.5,0,3.82-2.38,7.26-6.2,9.72,13.51,1.99,23.04,6.84,23.04,12.51,0,4.01-4.76,7.61-12.31,10.07,15.59,2.91,26.14,8.51,26.14,14.94Z"/><path class="cls-14" d="m184.18,961.48c0,11.4-28.24,20.66-63.09,20.66s-63.08-9.25-63.08-20.66c0-7.78,13.16-14.57,32.59-18.08-9.42-2.99-15.34-7.34-15.34-12.19,0-6.77,11.6-12.6,28.12-15.06-4.85-2.97-7.87-7.18-7.87-11.85,0-6.9,6.61-12.8,15.94-15.18.33-8.43,2.65-15.26,7.06-19.04,10.78-9.27,29.95,3.13,42.81,27.69-.47-.66-10.28-14.28-24.78-6.17,5.73,2.99,9.39,7.57,9.39,12.7,0,4.62-2.97,8.79-7.73,11.76,16.84,2.41,28.73,8.28,28.73,15.14,0,4.85-5.93,9.2-15.35,12.19,19.44,3.52,32.6,10.3,32.6,18.08Z"/></svg>