<?xml version="1.0" encoding="UTF-8"?><svg id="Forgrund" xmlns="http://www.w3.org/2000/svg" xmlns:xlink="http://www.w3.org/1999/xlink" viewBox="0 0 1924 1083"><defs><style>.cls-1{fill:none;}.cls-1,.cls-2,.cls-3,.cls-4,.cls-5,.cls-6,.cls-7,.cls-8,.cls-9,.cls-10,.cls-11{stroke-miterlimit:10;}.cls-1,.cls-2,.cls-6,.cls-7,.cls-8,.cls-9,.cls-10,.cls-11{stroke-width:3px;}.cls-1,.cls-5{stroke:#8c6239;}.cls-2,.cls-6,.cls-7,.cls-8,.cls-9,.cls-10,.cls-11{stroke:#603813;}.cls-3,.cls-4{stroke:#754c24;}.cls-3,.cls-5,.cls-8{fill:#c69c6d;}.cls-4,.cls-12{fill:#a67c52;}.cls-13{fill:url(#linear-gradient-2);}.cls-13,.cls-14,.cls-15,.cls-16,.cls-17,.cls-12,.cls-18,.cls-19,.cls-20,.cls-21{stroke-width:0px;}.cls-6{fill:#736357;}.cls-7{fill:#c7b299;}.cls-9{fill:#29abe2;}.cls-10,.cls-21{fill:#fff;}.cls-15{fill:#754c24;}.cls-16{fill:gray;}.cls-17{fill:#1a1a1a;}.cls-18{fill:#8c6239;}.cls-19{fill:#666;}.cls-20{fill:#8cc63f;}.cls-11{fill:url(#linear-gradient);}</style><linearGradient id="linear-gradient" x1="962" y1="1081.5" x2="962" y2="1.5" gradientUnits="userSpaceOnUse"><stop offset="0" stop-color="#000"/><stop offset=".13" stop-color="#009d27"/><stop offset=".43" stop-color="#7cbef5"/><stop offset=".52" stop-color="#8fc1f4"/><stop offset=".73" stop-color="#b8c8f4"/><stop offset=".9" stop-color="#d1ccf4"/><stop offset="1" stop-color="#dbcef4"/></linearGradient><linearGradient id="linear-gradient-2" x1="1614.78" y1="325.44" x2="1614.78" y2="466.14" gradientUnits="userSpaceOnUse"><stop offset="0" stop-color="#fff"/><stop offset="0" stop-color="#faf7f5"/><stop offset="0" stop-color="#ede4dc"/><stop offset="0" stop-color="#d7c5b2"/><stop offset="0" stop-color="#ba9a79"/><stop offset="0" stop-color="#a67c52"/><stop offset=".26" stop-color="#754c24"/><stop offset=".47" stop-color="#6d4722"/><stop offset="1" stop-color="#42210b"/></linearGradient></defs><rect class="cls-11" x="1.5" y="1.5" width="1921" height="1080"/><path class="cls-7" d="m586.43,319.18c-10.55,14.28-14.08,12.69-7.83-3.53-11.4,9.85-12.69,4.88-2.86-11.02-9.84,9.14-9.84-65.6,0-55.25-9.84-12.57-8.93-14.59,2-4.48-7.32-13.76-4.96-15.34,5.23-3.5-4.38-14.5-1.09-15.54,7.28-2.3-1.06-14.73,2.64-15.11,8.2-.83,4.78-14.28,10.82-13.2,13.38,2.39,8.36-11.27,13.07-7.92,10.43,7.43,10.53-6.27,13.59-.48,6.79,12.83,11.16.75,12.25,9.16,2.42,18.66,9.84,8.89,8.79,16.5-2.33,16.88,6.92,12.91,3.9,18.51-6.68,12.43,2.73,15.22-2.02,18.68-10.52,7.67-2.63,15.71-8.88,16.89-13.86,2.61-1.95,14.28-17.72,14.28-11.65,0Zm16.9-42.29c.56-3.6.52-5.88-.09-5.06.45-4.64.3-6.23-.32-3.53.21-5.14-.07-5.91-.62-1.72-.15-4.97-.56-5.16-.9-.43-.58-4.73-.93-4.64-.78.21-.64-4.46-.85-4.28-.46.4-.52-3.52-.45-2.59.14,2.06-.43-2.93-.35-1.96.16,2.15-.39-1.95-.34-.71.12,2.76-.37-.65-.35,1.09.05,3.84-.39-.7-.39,4.69,0,3.99-.39,2.75-.42,4.48-.05,3.84-.45,3.47-.5,4.72-.12,2.76-.51,4.11-.59,5.08-.16,2.15-.59,4.65-.65,5.58-.14,2.06-.39,4.68-.18,4.86.46.4-.15,4.85.21,4.95.78.21.34,4.73.74,4.54.9-.43.55,4.2.83,3.42.62-1.72.63,2.7.77,1.11.32-3.53.61.82.66-1.46.09-5.06.56.94.56-6.28,0-5.34Z"/><path class="cls-7" d="m669.06,322.21c-4.84,12.53-9.4,11.54-10.11-2.21-7.81,9.76-11.51,6.74-8.2-6.69-9.58,5.35-12.06.31-5.5-11.17-10.22-.59-11.13-7.64-2.03-15.65-9.1-7.38-8.25-13.99,1.89-14.64-6.73-11.14-4.35-16.16,5.3-11.14-3.49-13.33.18-16.51,8.15-7.06.59-13.88,5.32-14.99,10.5-2.46,5.21-12.53,9.94-11.34,10.5,2.64,8-9.22,11.67-5.88,8.13,7.4,9.65-4.7,12.01.42,5.25,11.36,10.13.97,10.97,7.49,1.87,14.46,9.1,7.43,8.31,14.02-1.75,14.61,6.91,11.14,4.62,16.14-5.07,11.08,3.71,13.31.05,16.48-8.11,7.03-.48,13.88-5.37,14.99-10.82,2.46Zm-1.06-25.39c-.06,4.04.37,4.23.97.43.78,3.8,1.31,3.48,1.17-.71.67,2.92.81,1.88.3-2.3.51,2.74.51-9.14,0-8.78.51-2.85.48-4.95-.07-4.67.42-3.72.29-5.13-.3-3.13.17-4.22-.09-4.94-.58-1.6-.14-4-.5-4.17-.81-.37-.48-3.8-.79-3.72-.67.18-.57-3.57-.77-3.38-.44.43-.46-2.7-.4-1.87.14,1.84-.37-2.16-.31-1.29.14,1.93-.36-1.28-.32-.15.09,2.52-.33-.06-.31,1.5.05,3.47-.35-.14-.35,14.39,0,10.74Z"/><path class="cls-7" d="m729.23,302.19c-.72,1.85-.77,2.04-.09.43-.76,2.16-.78,2.44-.05.61-.73,3.26-.1,4.07,1.4,1.78,1.03,3.17,2.72,3.39,3.75.49,4.16,2.9,7.17,2.56,6.68-.77,6.4,1.94,8.91,1.01,5.57-2.06,7.91,2.79,10,4.14,4.65,2.98,8.76,4.76,10.15,6.79,3.09,4.51,9.22,6.82,10,9.26,1.73,5.4,9.23,9.06,9.47,11.63.53,5.71,8.94,13.73,8.07,18.38-1.93,10.31,6.51,16.15,4.07,19.54-5.41,7.52,3.21,17.51-.54,19.58-8.31,4.6-.95,17.8-5.73,18.51-10.59,1.57-5.52,16.94-10.06,16.29-10.06-1.44-7.76,15.13-11,13.36-7.19-3.93-9.01,12.8-10.95,10.2-4.31-5.77-9.22,10.05-9.86,6.88-1.43-7.03-8.44,9.03-8.3,7.61.3-3.16-8.06,8.06-7.71,6.8.78-2.79-7.62,7.26-7.12,6.25,1.11-2.24-7.1,6.78-6.51,6.13,1.31-1.44-5.25,9.34-2.28,11.2,6.59,4.11-.89,10.07,3.95,10.82,10.73,1.66,2.07,9.16,4.25,8.96,4.84-.46,1.82,8.59,2.43,7.8,1.34-1.75,1.09,8,1.05,7.68-.09-.71.97,7.89.89,7.65-.18-.52,0,8.23-1.25,8.45-2.76.49-1.48,8.29-2.83,8.37-2.99.18-4.57,8.19-7.98,7.84-7.55-.77-6.99,7.23-9.89,6.05-6.43-2.61-8.49,5.34-10.5,3.16-4.47-4.82-9.07,2.61-9.83-.72-1.68-7.4-8.14-.03-7.73-2.64.92-5.8-6.99-1.88-5.68-3.78,2.9-4.21-7.75-1.62-8.72-2.66-2.14-2.3-8.53-2.96-9.41-4.55-1.96-3.53-9.03-4.79-9.68-6.95-1.43-4.79-9.24-7.03-9.49-9.8-.55-6.14-8.94-12.19-8.13-17.03,1.8-10.74-6.69-14.81-4.44-18.41,4.97-7.98-3.68-16.3-.28-18.54,7.55-4.97.06-16.67,4.36-17.45,9.53-1.72,2.14-15.73,4.61-15.41,5.48.71,3.7-14.84,5.67-14.14,4.38,1.57,2.96-14.93,2.96-20.74,0-4.3,3.91-16.94,5.21-17.38,2.88-.98,5.62-17.18,7.41-17.37,3.98-.43,7.33-16.94,9.14-16.75,4.01.43,8.46-16.4,9.89-15.68,3.18,1.6,9.12-15.18,10.07-13.71,2.1,3.25,9.34-13.2,9.68-10.76.76,5.4,8.92-11.79,8.86-10.45-.14,2.98,8.75-10.82,8.52-9.53-.51,2.85,8.24-9.29,7.6-7.46-1.43,4.05,8.73-7.91,9.14-5.98.9,4.3,8.78-6.06,8.92-3.46.3,5.77,8.62-1.09,7.91,3.35-1.57,9.85,6.65,1.19,4.68,4.42-4.38,7.15,3.98,2.47.95,4.44-6.72,4.36.61,2.74-3.29,3.4-8.66,1.47-.24,1.93-1.55,1.85-2.9-.18-1.22,1.7-2.18,1.53-2.12-.37Zm3.35-27.36c.42-1.68.29-2.41-.3-1.63.05-1.84-.38-2.1-.94-.58-.43-1.52-.8-1.34-.81.4-.61-1.02-.77-.36-.35,1.44-.42-.87-.42,7.69,0,6.32-.05,1.75.37,1.95.92.43.82,1.52,1.38,1.14,1.24-.83.55.48.65-.7.23-2.61.42.3.42-3.68,0-2.95Z"/><path class="cls-7" d="m794.17,249.29c-9.61-12.43-8.68-14.22,2.05-3.96-7.04-13.75-4.55-15.33,5.5-3.5-3.83-14.65-.24-15.78,7.95-2.52-.09-14.98,4.16-15.41,9.42-.95,5.33-14.46,10.87-13.39,12.27,2.36,8.44-11.5,12.63-8.49,9.28,6.66,10.24-7.4,12.9-2.72,5.9,10.37,10.75-2.13,11.68,3.93,2.07,13.44,9.61,4.22,8.76,10.45-1.89,13.81,7.24,7.37,4.82,11.86-5.37,9.94,3.91,9.11.13,11.81-8.38,5.98-.34,9.43-5.25,10.33-10.89,2-1.13,8.33-2.54,8.21-3.13-.28-2.32,7.98-3.69,7.68-3.04-.68-3.22,7.64-4.37,7.28-2.53-.8-3.83,7.35-4.55,7.04-1.61-.71-3.52,7.63-3.64,7.85-.25.49-3.59,7.91-3.64,8.3-.12.86-3.53,8.55-3.33,9.13.44,1.29-2.98,8.95-2.28,9.45,1.54,1.1-1.83,9.23-.49,9.63,2.97.89-.1,9.46,2.03,9.75,4.72.64-.11,9.33-.11,22.03,0,9.39-1.11,13.75-2.31,14.73-2.65,2.18-2.44,14.27-3.93,15-3.29,1.63-3.79,14.59-5.44,15.05-3.66,1.01-5.23,14.65-6.94,14.8-3.8.34-7.21,14.46-9.5,14.14-5.07-.71-8.84,13.58-10.78,12.57-4.31-2.24-9.83,12.04-11.19,10.25-2.99-3.96-10.23,9.84-10.74,7.22-1.13-5.8-9.61,9.98-9.61-68.92,0-58.32Zm25.73,27.41c-.36,2.29-.16,2.36.44.15-.06,2.26.12,2.27.39.03.81,2.24,1.51,1.83,1.57-.92.78,1.09.98-.27.46-3.01.52.86.52-5.46,0-4.67.52-2.73.35-4.14-.39-3.13.03-2.78-.62-3.22-1.45-.98-.34-2.24-.58-2.21-.55.06-.61-2.17-.84-2.08-.51.18-.46-1.71-.44-1.24.05,1.04-.48-1.29-.48-.76,0,1.17-.48-1.38-.48,12.24,0,10.07Z"/><path class="cls-7" d="m904.14,289.9c7.79,5,8.1,8.16.69,7,8.65,6.14,9.84,8.11,2.63,4.36,9,5.63,9.02,6.17.05,1.2,8.97,6.25,8.97,6.73,0,1.07,8.97,10.2,8.48,13.83-1.11,8.04,7.59,11.87,6.29,14.38-2.88,5.55,5.97,12.76,4.15,14.21-4.03,3.22,4.11,12.87,2.03,13.34-4.61,1.04,3.02,12.3,1.56,12.06-3.25-.52,1.94,11.64.59,10.94-2.99-1.57,1.05,10.62-.09,9.41-2.53-2.67.4,9.15-.4,7.42-1.77-3.84.09,9.26-.44,9.51-1.17.55.03,9.96-.15,10.62-.39,1.47.24,10.75.43,11.58.41,1.84.76,11.51,1.3,12.43,1.2,2.03-.52,12.56-2.3,13.47-3.96,2.03-2.83,12.67-5.11,12.97-5.07.67-6.15,12.3-9.59,11.6-7.62-1.53-8.16,10.37-10.82,8.32-5.9-4.54-9.37,7.44-11.09,4.13-3.82-7.34-9.72,3.66-10.33-.84-1.36-9.98-8.97-1.22-8.32-5.77,1.45-10.1-7.15-3.37-5.38-6.55,3.94-7.06-4.83-4.53-2.22-6.4,5.78-4.14-2.06-4.69,1.09-5.3,6.98-1.35-1.07-3.95.26-3.88,2.95.15-.37-3.76.63-3.61,2.21.34.21-3.56,1.02-3.34,1.8.49.01-4.16.07-4.63.14-1.04-.07-4.69-.35-5.3-.62-1.35-.85-4.95-1.58-5.32-1.64-.83-1.78-4.99-2.84-5.17-2.35-.4-2.9-5-4.12-5.05-2.72-.12-5.48-4.93-8.3-4.51-6.26.92-7.69-3.77-10.22-2.5-5.62,2.82-7.76-5.65-8.5-8.26-1.64-5.77-7.98-8.8-8.26-12.01-.62-7.12-7.64-9.71-7.57-11.27.16-3.47-7.44-10.96-7.14-12.36.67-3.1-6.27-11.14-4.89-11.87,3.06-1.63-4.58-11.85-2.63-12.6,4.33-1.66-2.52-12.33-.06-12.92,5.44-1.32-.14-12.6,2.74-12.85,6.38-.55,4.79-12.3,9.47-11.49,10.39,1.78,7.11-10.06,10.44-7.75,7.39,5.13,8.36-6.84,10.36-3.13,4.42,8.23,8.6-2.55,9.26,2.42,1.47,11.02,7.79-3.07,7.79,13.21,0,12.03Zm-24.1,4.53c-1.21-.8-1.88-.48-1.5.71-1.18.08-1.37.82-.44,1.63-.93,1.13-.63,1.9.67,1.72-.1,1.07.62,1.29,1.59.49,1.19.8,2.21.36,2.26-.98,1.36-.43,1.72-2.04.78-3.56.93-.8-3.61-.8-3.36,0Z"/><path class="cls-7" d="m925.4,253.22c-1.7-11.83.45-11.27,4.77,1.23-.87-10.29.49-8.74,3.02,3.44-2.07-9.41-2.58-8.47-1.13,2.09-2.4-8.34-2.82-7.25-.92,2.42-2.6-7.51-2.89-6.49-.62,2.27-2.68-6.82-2.78-6.06-.23,1.69-2.55-6.53-2.37-5.93.41,1.32-2.03-6.2-1.45-5.94,1.29.58-1.16-10.62-.05-14.05,2.46-7.61.35-11.98,1.99-14.19,3.64-4.91,2.05-12.6,4.05-13.78,4.42-2.61,3.9-12.55,6.07-12.9,4.81-.77,5.25-12.13,6.89-11.98,3.64.34,6.24-11.71,7.59-11.31,2.99.89,7.01-11.2,8.07-10.63,2.35,1.26,7.55-10.62,8.31-10,1.7,1.38,7.9-8.44,8.38-5.98,1.06,5.46,7.9-6.24,8.04-3.69.32,5.65,7.72-2.36,7.42,1.38-.67,8.29,6.88-.93,6.23,1.53-1.45,5.46,6.31-1.55,5.48-1.11-1.84.98,5.33-1.2,4.24-.82-2.42.86,4.29-1.01,3.03-.75-2.79.58,3.16-.94,1.85-.85-2.9.21,2.09-1.06.88-1.12-2.69-.12,1.45-1.22.49-1.37-2.14-.34.88-1.42.08-1.64-1.77-.49.4-1.65-.33-1.88-1.64-.52.22-1.14.05-.5-.37,1.41.42-.31.81.3.85,1.35,1.49-.16,2.87.31,3.06,1.04,1.8-.24,1.8,41.45,0,30.82.39,11.86-1.04,12.84-3.18,2.18-.77,12.15-2.19,12.74-3.16,1.29-1.82,12.28-3.15,12.55-2.95.61-2.74,12.22-3.91,12.29-2.6.15-4.72,12.13-6.9,11.84-4.84-.64-6.13,11.32-7.91,10.44-3.94-1.96-7,10.02-8.2,8.51-2.65-3.35-7.29,8.2-7.73,6.02-.97-4.85-6.76,8.32-6.76-34.45,0-31.61-8.01-5.16-8.93-7.79-2.05-5.83-8.09-7.83-8.39-10.9-.67-6.81-7.72-9.96-7.42-12.89.67-6.51-6.88-12.81-5.96-15.66,2.05-6.32-6.76-11.83,2.77-11.83,7.05,0Z"/><path class="cls-7" d="m996.29,322.24c-4.8,12.49-9.95,11.4-11.42-2.43-7.75,9.45-11.69,6.29-8.73-7-9.48,5.04-11.99.02-5.57-11.14-9.95-.69-10.83-7.36-1.96-14.79-8.88-7.8-7.93-14.69,2.1-15.29-6.25-11.36-3.69-16.37,5.67-11.11-2.92-13.35.83-16.39,8.31-6.75,1.08-13.74,5.58-14.76,9.99-2.27,5.35-12.49,9.88-11.51,10.04,2.18,7.9-9.75,11.34-7.06,7.62,5.98,9.4-6.17,11.6-2.16,4.86,8.9,9.81-1.87,10.58,3.03,1.7,10.87,8.88,2.3,8.22,6.53-1.45,9.39,7.06,4.23,5.24,7.15-4.03,6.48,4.61,5.27,1.85,6.97-6.13,3.78,1.58,5.41-1.89,5.96-7.69,1.23-.76,4.73-3.49,4.29-6.06-.98-2.71,3.5-4.96,2.31-5-2.64-2.05,3.68-2.18,3.97-.3.64-2,4.04-2.04,4.36-.07.71-1.97,4.76-1.51,5.58,1.01,1.81-.7,5.37.49,6.1,2.63,1.6.77,5.77,2.43,6.3,3.68,1.17,2.49,5.96,4.36,6.17,4.15.46,4.66,5.71,7,5.47,5.2-.52,6.04,5.06,7.94,4.47,4.21-1.29,7.09,4.38,8.55,3.62,3.25-1.69,7.8,3.64,8.84,2.84,2.3-1.78,7.9,4.46,8.37,5.35,1.04,1.99,8.12,5.74,8.47,7.06.76,2.92,8.29,7.02,8.51,8.5.48,3.28,8.31,8.26,8.39,9.66.16,3.1,8.23,9.11,8.17,10.31-.12,2.67,8.08,9.91,7.95,10.89-.3,2.18,6.75,11.04,5.3,12.46-3.22,3.16,5.36,12.02,3.49,13.21-4.15,2.64,3.32,12.61.81,13.45-5.55,1.84.67,12.88-2.68,13.2-7.44.71Zm-.32-43.05c1.16.8,1.94.51,1.73-.64,1.25,0,1.51-.77.58-1.69.94-1.13.64-1.9-.67-1.72.1-1.07-.62-1.29-1.59-.49-1.02-.8-1.94-.37-2.05.95-1.27.39-1.69,1.54-.94,2.55-.5.77.04,1.08,1.2.71.17.99.96,1.14,1.75.34Z"/><path class="cls-7" d="m1039.96,253.19c-3.96-11.78-2.5-11.36,3.25.92-3.38-10.62-2.33-9.57,2.33,2.33-5.57-8.36-6.48-6.47-2.03,4.17-4.45-8.49-4.29-7.89.37,1.32-3.99-8.16-3.43-7.9,1.24.58-3.05-10.42-1.96-12.27,2.42-4.11-1.68-11.7-.1-13.26,3.5-3.44.01-12.48,2.03-13.54,4.47-2.36,2-12.78,4.38-13.19,5.27-.89,4.63-12.3,7.68-11.77,6.75,1.17,7.12-10.83,9.91-9,6.2,4.05,8.7-7.85,10.74-4.31,4.51,7.86,9.38-3.2,10.17,2.45,1.75,12.52,8.42-.77,8.39,2.03-.07,6.2,8.33,2.03,8.3,4.91-.07,6.38,8.37,5,8.68,8.16.69,7,9.24,6.14,10.42,8.11,2.63,4.36,9.58,5.63,9.6,6.17.05,1.2,9.56,6.25,9.56,6.73,0,1.07,9.56,9.92,9.1,13.4-1.01,7.7,8.29,11.73,7.04,14.26-2.76,5.62,6.65,12.74,4.81,14.28-4.08,3.41,4.69,12.92,2.46,13.43-4.95,1.14,2.55,12.3.17,11.84-5.27-1.01.91,11.02-1.08,9.53-4.42-3.31-.11,8.69-1.48,5.98-3.04-6.02-.47,5.3-.98,1.18-1.13-9.12.15,2.83.22.36.16-5.46.35,1.17.51-1,.37-4.82.52-.22.7-2.09.39-4.14.64-1.38.72-2.96.18-3.5.54-3.56.32-5.37-.48-4.02-.07-3.29-.77-3.77-1.54-1.07-.8-2.7-1.38-2.48-1.29.49-.63-2.52.18,11.01.6,10.01-.63,2.67-.81,4.34-.39,3.71-.71,4.01-.82,5.6-.25,3.53-.73,5.06-.8,6.42-.14,3.01-.74,5.84-.76,6.84-.05,2.21-.72,9.72-.39,13.3.71,7.92.18,11.02.92,13.46,1.64,5.4-1.71,12.65-4.09,14.69-5.27,4.51-4.68,13.22-8.01,13.98-7.39,1.69-6.23,12.3-8.13,11.93-4.21-.8-7.78,11.3-9.52,10.2-3.87-2.42-8.77,9.69-10.05,7.86-2.83-4.05-9.21,7.54-9.71,4.95-1.11-5.74-8.6,7.7-8.6-32.5,0-29.71-9.85-5.11-10.77-7.74-2.05-5.83-9.92-7.78-10.23-10.85-.67-6.81-9.56-9.9-9.26-12.84.67-6.51-8.72-12.75-7.8-15.61,2.05-6.32-8.6-11.78,2.49-11.78,8.2,0Z"/><path class="cls-7" d="m1095.81,280.18c-4.8.83-.94.83,2.86,0-2.72.83-1.93.58,1.75-.55-2.68.14-2.43-.52.55-1.47-2.98-.21-3.02-.55-.09-.74-3.02-.14-16.97-.14-10.32,0-7.11-2.13-7.46-4.33-.76-4.88-7.15-4.27-7.27-6.72-.25-5.43-7.01-5.39-6.94-7.23.16-4.08-6.81-7.3-6.61-9.03.44-3.84-5.06-8.02-3.32-9.57,3.85-3.44-3.72-9.45-2.2-10.94,3.39-3.31-3.88-10.12-3.44-11.64.97-3.38-3.41-12.03-2.91-14,1.11-4.36-3.02-13.74-2.54-15.72,1.06-4.39-2.69-15.15-2.29-16.74.88-3.53-1.51-14.93.26-15.31,3.92-.86.75-15.12,2.99-15.29,4.97-.37,2.09-14.92,3.88-14.78,3.98.31,3.51-14.53,5.5-14.09,4.4.98,3.26-14.46,3.26,5.89,0,15.04,3.26-9.15,14.04-9.15,7.97,0,7.28-6.72,8.18-3.99,2,6.05,7.38-4,7.68-1,.67,6.66,7.01-1.84,6.71,1.16-.67,6.66,6.18.87,5.27,3.62-2,6.11,6.07-.16-2.84-.16-6.59,0,3.75-.16,3.75,12.38,0,9.27,3.75,6.93,4.33,9.66,1.29,6.05,5.36,6.88,7.01,7.69,3.64,1.81,5.49,5.88,8.17,5.88,1.98,0,6.52,7.54,6.82,9.32.67,3.93,6.69,9.15,6.83,11.03.3,4.17,6.53,16.44,4.72,22.31-4.01,13.01,1.5,17.38-3.65,19.4-11.42,4.48-2.28,14.92-5.35,14.31-6.79-1.35-4.08,13.22-6.46,11.37-5.27-4.11-5.17,10.5-6.71,7.38-3.41-6.91-5.46,6.81-6,2.4-1.2-9.79-4.8,7.1-4.8-16.91,0-17.74Z"/><path class="cls-7" d="m1176.8,319.18c-10.55,14.28-14.08,12.69-7.83-3.53-11.4,9.85-12.69,4.88-2.86-11.02-9.84,9.14-9.84-65.6,0-55.25-9.84-12.57-8.93-14.59,2-4.48-7.32-13.76-4.96-15.34,5.23-3.5-4.38-14.5-1.09-15.54,7.28-2.3-1.06-14.73,2.64-15.11,8.2-.83,4.78-14.28,10.82-13.2,13.38,2.39,8.36-11.27,13.07-7.92,10.43,7.43,10.53-6.27,13.59-.48,6.79,12.83,11.16.75,12.25,9.16,2.42,18.66,9.84,8.89,8.79,16.5-2.33,16.88,6.92,12.91,3.9,18.51-6.68,12.43,2.73,15.22-2.02,18.68-10.52,7.67-2.63,15.71-8.88,16.89-13.86,2.61-1.95,14.28-17.72,14.28-11.65,0Zm16.9-42.29c.56-3.6.52-5.88-.09-5.06.45-4.64.3-6.23-.32-3.53.21-5.14-.07-5.91-.62-1.72-.15-4.97-.56-5.16-.9-.43-.58-4.73-.93-4.64-.78.21-.64-4.46-.85-4.28-.46.4-.52-3.52-.45-2.59.14,2.06-.43-2.93-.35-1.96.16,2.15-.39-1.95-.34-.71.12,2.76-.37-.65-.35,1.09.05,3.84-.39-.7-.39,4.69,0,3.99-.39,2.75-.42,4.48-.05,3.84-.45,3.47-.5,4.72-.12,2.76-.51,4.11-.59,5.08-.16,2.15-.59,4.65-.65,5.58-.14,2.06-.39,4.68-.18,4.86.46.4-.15,4.85.21,4.95.78.21.34,4.73.74,4.54.9-.43.55,4.2.83,3.42.62-1.72.63,2.7.77,1.11.32-3.53.61.82.66-1.46.09-5.06.56.94.56-6.28,0-5.34Z"/><path class="cls-7" d="m1263.31,317.89c.66,11.48.06,12.05-1.31,1.26,0,11.96-.82,12.47-1.82,1.14-.91,12.22-2.03,12.59-2.49.83-2.12,12.37-3.61,12.52-3.32.34-3.87,12.19-5.8,11.97-4.28-.49-5.51,11.57-7.45,10.81-4.31-1.69-6.92,10.34-8.72,8.88-3.98-3.22-8.14,8.45-9.63,6.17-3.29-5.06-8.87,5.75-9.87,2.51-2.23-7.18-9.14,2.22-9.51-2.14-.83-9.67-8.68,2.55-8.68-18.3,0-15.41-9.55-4.94-10.3-7.31-1.66-5.25-9.89-7.43-10.2-10.49-.69-6.78-9.51-8.63-9.44-10.18.16-3.44-9.31-9.96-9.09-11.55.48-3.53-8.99-11.18-8.62-12.71.83-3.41-8.53-12.3-7.97-13.68,1.24-3.07-8.55-11.88,5.16-11.88,10.13,0-2.57-11.88-.34-11.51,4.93.83-1.2-10.84.54-9.67,3.87,2.61-.42-9.06.72-7.03,2.51,4.51-.17-6.61.23-3.66.9,6.54-.67-6.77-.67,20.14,0,19.89-.67,3.35-.45,5.47.48,4.7-.06,3.04.49,3.61,1.22,1.26.35,2.35.67,2.27.71-.18.41,2.12.63,1.93.48-.43.15,1.19,0,.06-.35-2.52.13-.08.08-1.8-.12-3.81.2-.1.2-41.12,0-30.32.98-11.41,1.87-12.03,1.96-1.38,1.86-11.92,2.99-12.49,2.51-1.26,3.06-12.23,4.5-12.65,3.2-.92,4.5-12.39,6.34-12.56,4.08-.37,7.95-12.19,11.07-11.54,6.91,1.44,9.4-10.38,11.37-8.76,4.38,3.59,8.32-10.41,8.32,32.86,0,31.98,8.32,4.7,8.63,7.98.69,7.27,9.19,6.19,10.37,8.28,2.63,4.64,9.53,5.52,9.56,6.06.05,1.2,9.51,6.14,9.51,6.62,0,1.07,9.51,10.09,9.08,13.72-.94,8.04,8.32,11.77,7.15,14.27-2.6,5.55,6.76,12.65,4.99,14.1-3.94,3.22,4.81,12.76,2.58,13.23-4.95,1.04,2.05,12.19-.81,11.24-6.33-2.09.25,9.57-1.74,6.72-4.4-6.32-.08,9.22-.79,10.13-1.57,2.03.78,10.54.9,11.18.28,1.41,1.13,11.1,1.48,11.73.78,1.41Z"/><path class="cls-7" d="m1301.7,280.18c-5.84.83-1.97.83,2.86,0-3.75.83-2.96.58,1.75-.55-3.71.14-3.46-.52.55-1.47-4.02-.21-4.06-.55-.09-.74-4.05-.14-18.01-.14-10.32,0-8.15-2.13-8.49-4.33-.76-4.88-8.19-4.27-8.3-6.72-.25-5.43-8.05-5.39-7.97-7.23.16-4.08-7.84-7.3-7.65-9.03.44-3.84-6.09-8.02-4.36-9.57,3.85-3.44-4.75-9.45-3.23-10.94,3.39-3.31-4.91-10.12-4.47-11.64.97-3.38-4.44-12.03-3.94-14,1.11-4.36-4.05-13.74-3.58-15.72,1.06-4.39-3.72-15.15-3.33-16.74.88-3.53-2.54-14.93-.77-15.31,3.92-.86-.29-15.12,1.96-15.29,4.97-.37,1.05-14.92,2.85-14.78,3.98.31,2.48-14.53,4.47-14.09,4.4.98,2.23-14.46,2.23,5.89,0,15.04,2.23-9.15,20.92-9.15,13.82,0,8.31-6.72,9.21-3.99,2,6.05,8.41-4,8.71-1,.67,6.66,8.05-1.84,7.75,1.16-.67,6.66,7.21.87,6.3,3.62-2,6.11,7.1-.16-9.72-.16-12.44,0,2.71-.16,2.71,12.38,0,9.27,2.71,6.93,3.3,9.66,1.29,6.05,4.33,6.88,5.97,7.69,3.64,1.81,4.45,5.88,7.13,5.88,1.98,0,5.49,7.54,5.79,9.32.67,3.93,5.66,9.15,5.79,11.03.3,4.17,5.49,16.44,3.69,22.31-4.01,13.01.47,17.38-4.69,19.4-11.42,4.48-3.32,14.92-6.38,14.31-6.79-1.35-5.11,13.22-7.49,11.37-5.27-4.11-6.2,10.5-7.74,7.38-3.41-6.91-6.49,6.81-7.03,2.4-1.2-9.79-5.84,7.1-5.84-16.91,0-17.74Z"/><path class="cls-7" d="m1354.96,255.11c-1.24-15.6,1.2-15.03,5.41,1.26-.35-14.02,1.21-12.54,3.45,3.28.12-12.17.99-10.09,1.93,4.6.18-10.05.56-7.66.85,5.28-.21-9.23-.35-7.53-.32,3.78-.36-7.04-.52-4.66-.35,5.28-.46-4.68-.58-1.9-.25,6.17-.49-2.2-.53.71-.09,6.45-.44-2.25-.44-1.6,0,1.44-.44-1.66-.42-1.03.05,1.38-.17-1.7.07-1.59.53.25,0-1.72.21-1.69.48.06.6-1.75,1.07-2.09,1.04-.74.57-2.68.71-3.56.3-1.96.41-7.36.51-11.97.23-10.22.7-10.88.96-15.19.58-9.55,1-13.73,1.35-17.38.78-8.1,1.36-15.81,1.72-18.47.81-5.89,3.08-16.4,5.15-17.66,4.58-2.79,5.18-16.36,7.7-16.73,5.6-.83,7.71-15.9,10.22-15.47,5.57.95,8.97-14.71,10.77-13.59,3.98,2.49,9.65-13.3,10.73-11.73,2.4,3.5,9.79-11.68,10.15-9.85.81,4.05,9.35-11.69,9.26-10.6-.18,2.42,9.12-9.31,8.86-6.86-.58,5.43,8.73-6.21,8.29-2.65-.97,7.89,8.22-2.4,7.59,1.96-1.38,9.67,7.52,1.6,6.71,6.48-1.8,10.83,6.72,5.89,5.74,11.06-2.19,11.45,5.02,13.56,2.8,20.69-4.91,15.81,2.52,15.9-.33,20.22-6.31,9.58-.21,16.9-3.46,19.04-7.21,4.76-3.07,16.61-6.49,17.19-7.6,1.29-5.87,15.9-8.93,15.31-6.77-1.32-7.31,14.25-9.44,12.64-4.72-3.56-8.08,12.16-9.34,9.82-2.79-5.19-8.21,9.69-8.63,6.89-.92-6.2-7.71,7.34-7.4,4.64.67-5.98-6.87,5.47-5.86,2.8,2.23-5.92-6.35,5.85-5.9,5.76.99-.18-5.77,5.84-5.24,5.81,1.17-.06-4.67,5.87-3.42,5.97,2.76.21-3.7,6.14-2.7,6.32,2.21.4-4.16,6.09,5.62,8.5,7.23,1.78-1.15,6.83-.7,6.94,1.01.25-.79,6.91-.34,6.97,1.01.12-.19,6.85.4,6.65,1.31-.43.05,6.31.29,5.39.53-2.03-.24,5.98-14.95,2.24-10.87-2.76-5.62,4.17-7.21,2.76-3.52-3.13-6.97,1.91-8.51-.85-3.43-6.11-7.99-1.77-9.31-6.16-2.92-9.73-8.75-6.95-9.65-13.23-2-13.94-9.4-8.55-10.36-10.94-2.14-5.31-9.84-11.33-10.25-14.53-.9-7.09-9.35-14.03-9.06-17.07.64-6.75-8.54-16.41-7.58-19.26,2.12-6.32-8.37-15.6,7.64-15.6,11.84,0Z"/><path class="cls-3" d="m498.9,923.37c-3.83,11.45-20.82,10.95-34.07,10.56-12.55-.37-17.76-4.32-20.69-7.54-1.2-1.33-4.57-5.12-6.09-11.32-3.42-14.05,6.01-26.74,6.7-27.64,4.78-22.63,9.49-57.12,4.47-96.67,9.38-8.97,17.72-18.34,25.11-27.78.07,1.64.15,3.29.23,4.94,1.61,32.68,3.64,64.67,6.02,95.95.61,7.9,1.23,15.74,1.89,23.55,6.4,5.37,11.23,11.83,14.12,18.13,3.02,6.57,3.93,12.97,2.31,17.81Z"/><path class="cls-12" d="m521.14,659.74c-4.98.39-11.37.61-18.73.16,5.18.16,11.6.35,18.73-.16Z"/><path class="cls-3" d="m525.14,659.38c.74-1.33,12.09-22.64,2.17-40.94-3.29-6.08-7.86-9.84-11.29-12.06-2.98-.87-11.78-3.27-12.9-.86-.05.11-.09.23-.1.37,0,0,0,0,0,0t0-.02c-.96-16.87-2-25.31-3.11-25.32-.77,0-1.58,4.01-2.42,12.06h0c.81-4.02,1.61-8.04,2.42-12.06-4.8-5.67-9.6-11.34-14.4-17.01l-4.55-10.98c-6.22,5.43-16.13,13.64-29.02,22.39-15.34,10.41-29.87,18.17-42.12,23.86-10.05,4.67-14.75,6.15-21.26,8.87-5.37,2.24-24.05,10.35-56.33,35.74-47.57,37.42-109.22,100.23-113.38,104.49.27.36.55.71.82,1.08-14.03,18.1-22.47,41.34-22.47,66.68,0,57.79,43.85,104.64,97.94,104.64,14.6,0,28.45-3.41,40.89-9.53,4.77,2.56,9.44,4.78,13.64,6.55,7.87,3.32,16.23,5.97,24.34,7.87-.03,1.2.1,2.39.41,3.55,2.69,10.31,17.56,14.89,33.21,10.22,15.65-4.66,26.17-16.79,23.47-27.1-2.36-9.03-14.08-13.68-27.48-11.52-3.82-3.9-8.48-8.54-14.16-14.06-4.84-4.7-9.13-8.79-12.95-12.35,7.87-12.52,13.28-26.95,15.48-42.51,3.16-1.6,6.34-3.3,9.52-5.1,18.32-10.37,34.12-22.55,47.71-35.56,9.38-8.97,17.72-18.34,25.11-27.78,3.99-5.1,7.71-10.22,11.16-15.31,6.49-9.55,17.57-26.01,27.25-49.45,3.98-9.65,8.66-22.73,12.4-38.83Z"/><path class="cls-4" d="m202.94,811.52c-25.09-6.5-52.07.47-67.33,17.01-16.5,17.87-12.03,39.01-11.3,42.17.82,9.57,1.65,19.13,2.47,28.7,10.16,12.4,20.32,24.8,30.48,37.21,15.44,8.13,30.88,16.26,46.32,24.4l-.39-.35.39.35c-3.14-2.9-15.69-15.19-13.42-31.96.6-4.45,2.12-8.26,3.78-11.33-4.92.48-9.85.97-14.77,1.45l-.17-21.91c-5.57.55-11.15,1.09-16.72,1.64,1.02-6.25,2.05-12.5,3.07-18.75-4.54-1.96-9.08-3.92-13.62-5.88,5.44-6.39,9.98-13.34,7.3-16.8-2.52-3.25-10.51-.81-11.86-3.61-1.52-3.16,8.02-7.3,10.99-16.23,1.47-4.43.81-8.46-.03-11.25,14.94-4.95,29.88-9.9,44.82-14.85Z"/><path class="cls-5" d="m541.38,895.81c-4.11,11.45-22.32,10.95-36.53,10.56-3.17-.09-5.9-.38-8.26-.81-7.67-1.39-11.5-4.27-13.91-6.73-1.3-1.33-4.91-5.12-6.52-11.32-2.52-9.64,1.45-18.65,4.43-23.63,1.36-2.28,2.52-3.72,2.74-4,5.79-25.55,11.48-66.2,2.17-112.2,11.88-17.48,20.73-34.64,27.25-49.45.19-.04.39-.08.59-.11.56,13.96,1.21,28.05,1.96,42.26,2.15,40.93,5.02,80.78,8.47,119.51,14.01,10.99,21.01,26.47,17.61,35.94Z"/><path class="cls-8" d="m489.71,522.07h-18.26c-1.06.32-2.17.5-3.31.5s-2.25-.17-3.31-.5h-19.02s-2.9-53.06,21.95-61.17c24.85-8.11,21.95,61.17,21.95,61.17Z"/><path class="cls-8" d="m510.13,570.71c-5.94,3.64-12.21,3.49-15.02,3.43-3.39-.07-9.3-.2-14.73-4-1.71-1.2-8.81-6.01-8.22-13.16.45-5.5,5.26-10.29,12.04-12,1.92-.48,3.48-.66,6.56-.84,6.19-.35,11.29.11,14.73.59,7.31,1.5,12.85,6.36,13.74,11.93,1.24,7.68-6.99,12.74-9.09,14.03Z"/><path class="cls-8" d="m545.52,521.91h-19.02c-1.06.32-2.17.5-3.31.5s-2.25-.17-3.31-.5h-18.26s-2.89-69.28,21.95-61.17c24.85,8.11,21.95,61.17,21.95,61.17Z"/><path class="cls-10" d="m489.71,522.07h-43.9s-2.9-53.06,21.95-61.17c24.85-8.11,21.95,61.17,21.95,61.17Z"/><ellipse class="cls-10" cx="467.92" cy="499.64" rx="17.69" ry="22.43"/><path class="cls-9" d="m482.51,503.87c0,6.76-2.76,12.67-6.88,15.95-.01,0-.03.02-.04.03-1.26,1.01-2.66,1.76-4.14,2.21-1.06.32-2.17.5-3.31.5s-2.25-.17-3.31-.5c-.99-.3-1.94-.74-2.84-1.29-4.87-3-8.23-9.44-8.23-16.91,0-10.32,6.44-18.7,14.38-18.7s14.38,8.37,14.38,18.7Z"/><ellipse class="cls-2" cx="468.36" cy="504.12" rx="10.62" ry="11.96"/><ellipse class="cls-10" cx="472.12" cy="496.9" rx="4.2" ry="4.74"/><path class="cls-10" d="m545.52,521.91h-43.9s-2.89-69.28,21.95-61.17c24.85,8.11,21.95,61.17,21.95,61.17Z"/><ellipse class="cls-10" cx="523.41" cy="499.47" rx="17.69" ry="22.43"/><path class="cls-9" d="m537.57,503.71c0,7.47-3.37,13.91-8.23,16.91-.9.55-1.84.99-2.84,1.29-1.06.32-2.17.5-3.31.5s-2.25-.17-3.31-.5c-1.48-.45-2.88-1.2-4.14-2.21-.01,0-.03-.02-.04-.03-4.13-3.28-6.88-9.2-6.88-15.95,0-10.32,6.44-18.7,14.38-18.7s14.38,8.37,14.38,18.7Z"/><ellipse class="cls-2" cx="522.97" cy="503.96" rx="10.62" ry="11.96"/><ellipse class="cls-10" cx="519.21" cy="496.73" rx="4.2" ry="4.74"/><path class="cls-6" d="m510.13,570.71c-5.94,3.64-12.21,3.49-15.02,3.43-3.39-.07-9.3-.2-14.73-4-1.71-1.2-8.81-6.01-8.22-13.16.45-5.5,5.26-10.29,12.04-12,1.92-.48,3.48-.66,6.56-.84,6.19-.35,11.29.11,14.73.59,7.31,1.5,12.85,6.36,13.74,11.93,1.24,7.68-6.99,12.74-9.09,14.03Z"/><ellipse class="cls-21" cx="501.57" cy="552.22" rx="6.39" ry="11.83" transform="translate(-105.66 985.56) rotate(-83.26)"/><path class="cls-3" d="m594.99,514.23c-2.53-29.22-14.1-63.52-33.12-88.94-1.32-1.77-2.67-3.49-4.06-5.16.5-1.92.79-4.03.79-6.23,0-9.09-4.76-16.45-10.62-16.45-3.18,0-6.03,2.16-7.97,5.59-.12.2-.22.41-.33.62.06-.24.12-.49.18-.74.4-1.71.6-3.56.6-5.47,0-9.09-4.75-16.45-10.61-16.45-4.65,0-8.6,4.63-10.04,11.08-.19-.07-.4-.13-.59-.21-.2-8.81-4.87-15.85-10.61-15.85-4.92,0-9.06,5.18-10.26,12.22-.27,0-.55,0-.82,0-.55,0-1.11,0-1.66.03-1.2-7.04-5.34-12.24-10.26-12.24-5.79,0-10.5,7.19-10.62,16.12-.17.07-.35.13-.53.19-1.39-6.58-5.38-11.33-10.09-11.33-5.86,0-10.62,7.36-10.62,16.45,0,2.09.26,4.08.71,5.91-.12.09-.25.19-.37.29-1.94-3.78-4.94-6.2-8.3-6.2-5.87,0-10.62,7.36-10.62,16.45,0,2.59.39,5.03,1.08,7.2-1.28,1.56-2.52,3.16-3.74,4.8-18.74,25.26-30.15,59.13-32.45,88.33-.23,2.86-.52,7.52-.5,13.43.03,13.45,1.6,33.31,8.94,52.81,4.2,11.17,10.29,22.22,19.07,31.87,24.05,26.47,54.58,27.41,69.96,27.89,5.9.19,13.46.42,21.85-.51,13.66-1.52,29.48-6.16,43.66-19.21,25.84-23.75,31.53-61.83,32.37-85.58.37-10.6-.22-18.35-.43-20.7Zm-127.23-53.33c24.85-8.11,21.96,61.17,21.96,61.17h-18.27c-1.06.33-2.17.5-3.31.5s-2.25-.17-3.31-.5h-19.02s-2.9-53.06,21.95-61.17Zm23.53,113.05c-.29-.03-.59-.06-.89-.1-.3-.03-.61-.08-.93-.13-.26-.04-.53-.08-.81-.14-.03,0-.05,0-.09-.02-.22-.04-.46-.08-.69-.14-.12-.03-.23-.05-.35-.08-.05,0-.12-.03-.18-.04h-.02c-.15-.04-.32-.08-.47-.13-.26-.08-.53-.15-.8-.24-.02,0-.02,0-.04,0-.27-.09-.55-.18-.82-.28-.24-.08-.47-.17-.71-.27-.05-.02-.1-.04-.15-.06-.23-.1-.47-.2-.71-.3-.27-.13-.54-.25-.81-.4-.28-.13-.55-.28-.82-.44-.24-.13-.47-.28-.72-.42,0,0,0,0,0,0-.29-.19-.6-.38-.89-.59-1.71-1.2-8.81-6.01-8.23-13.16.02-.29.06-.58.11-.87.02-.14.05-.29.09-.43.02-.09.04-.19.06-.29.03-.14.07-.29.12-.44.02-.09.05-.19.09-.28.07-.23.15-.45.23-.67,0-.03.02-.08.05-.11.05-.13.1-.26.16-.4l.14-.3c.06-.13.13-.27.2-.4.09-.17.18-.33.27-.49.06-.12.13-.24.2-.35.06-.1.13-.21.2-.31.09-.13.19-.28.29-.41.08-.12.17-.23.26-.34.09-.12.18-.23.27-.34h0s.02-.03.03-.04c.19-.24.4-.46.6-.68.22-.23.44-.45.67-.67,0,0,0,0,0,0,.19-.18.4-.35.6-.52.02-.02.04-.03.06-.05.06-.06.13-.11.21-.17.2-.16.41-.33.64-.48.25-.19.51-.36.78-.54.02-.02.05-.03.09-.05.22-.14.45-.28.68-.41.02-.02.05-.03.08-.04.06-.03.12-.07.19-.1.26-.14.53-.29.8-.41.28-.13.56-.27.85-.4.03-.02.07-.03.1-.04.15-.07.32-.13.48-.19.13-.06.26-.1.39-.15.02,0,.04-.02.05-.02.17-.07.33-.13.5-.18.15-.06.31-.11.47-.15.13-.04.26-.08.4-.12.21-.06.42-.12.63-.17,1.92-.48,3.48-.66,6.56-.83,6.18-.35,11.28.12,14.72.59,7.31,1.5,12.85,6.37,13.74,11.94,1.24,7.68-6.99,12.75-9.09,14.04-5.94,3.65-12.21,3.5-15.02,3.44-.71-.02-1.53-.03-2.43-.09-.45-.03-.91-.06-1.4-.11Zm54.23-52.04h-19.02c-1.06.32-2.17.5-3.31.5s-2.25-.18-3.31-.5h-18.27s-2.89-69.28,21.96-61.18c24.85,8.11,21.95,61.18,21.95,61.18Z"/><path class="cls-3" d="m432.53,425.89c-18.74,25.27-30.15,59.13-32.46,88.33-.23,2.86-.51,7.53-.5,13.44-8.89,18.68-22.29,46.53-29.07,44.04-2.26-.83-4.01-5.08-6.59-4.43-3.06.77-2.97,7.36-5.78,7.91-1.6.31-2.49-1.67-4.14-3.66-.82-1-1.84-1.99-3.22-2.72-5.86-3.05-9.87,3.29-15.5.47-3.1-1.55-4.85-4.96-8.02-11.13-2.88-5.59-2.99-8.22-5.19-9-3.68-1.33-7.22,4.63-9.39,3.13-1.15-.8-.67-2.87-.97-9.52-.28-6.33-.45-9.52-1.91-10.57-2.75-1.99-7.65,3.06-8.92,1.55-.93-1.12,2.79-4.3,2.79-9.5,0-.04,0-.08,0-.12h0c-.03-2.61-.99-4.55-2.54-7.7-3.05-6.2-6.16-7.88-5.49-10,.88-2.76,5.43-3.18,6.55-3.33,14.31-1.88,26.01-31.84,34.61-47.62,16.6-30.41,49.52-60.49,71.53-51.16,7.24,3.07,14.13,9.42,14.13,9.42,0,0,6.01,5.53,10.05,12.17Z"/><path class="cls-18" d="m305.03,524.71c6.34-15.36,17.55-27.88,30.16-38.44,6.12-5.13,12.58-9.82,19.09-14.43,6.15-4.35,12.27-8.85,17.5-14.31,5.98-6.25,10.55-13.8,12-22.42.32-1.89-2.57-2.7-2.89-.8-2.63,15.63-15.34,25.88-27.54,34.53-13.09,9.29-26.14,18.94-36.56,31.27-6.06,7.17-11.06,15.11-14.64,23.8-.74,1.78,2.17,2.56,2.89.8h0Z"/><path class="cls-15" d="m315.71,551.53c6.07-19.6,17.77-36.39,32.33-50.66,6.71-6.58,13.91-12.63,21.19-18.58,6.76-5.52,13.41-11.28,18.81-18.17,6.77-8.63,11.06-18.6,12.15-29.55.19-1.92-2.81-1.91-3,0-.97,9.7-4.73,18.71-10.55,26.49-5.22,6.97-11.83,12.78-18.52,18.28-14.66,12.04-29.03,24.48-39.98,40.14-6.69,9.56-11.87,20.1-15.32,31.25-.57,1.85,2.32,2.64,2.89.8h0Z"/><path class="cls-18" d="m355.49,571.54c1.64-18.43,8.78-35.58,18.44-51.19,4.55-7.36,9.6-14.4,14.77-21.34s10.07-13.59,13.8-21.19c4.48-9.13,6.84-19.11,5.64-29.28-.22-1.89-3.22-1.92-3,0,1.06,9.03-.69,17.95-4.48,26.18-3.57,7.75-8.54,14.74-13.64,21.55-10.46,13.99-20.48,28.44-27.08,44.71-3.97,9.78-6.52,20.05-7.46,30.56-.17,1.92,2.83,1.91,3,0h0Z"/><path class="cls-3" d="m688.88,526.41c0,5.2,3.72,8.39,2.79,9.5-1.27,1.51-6.17-3.54-8.92-1.55-1.46,1.06-1.63,4.24-1.91,10.57-.3,6.65.19,8.72-.97,9.52-2.16,1.5-5.7-4.46-9.38-3.13-2.2.79-2.32,3.41-5.19,9-3.17,6.17-4.92,9.58-8.02,11.13-5.63,2.82-9.64-3.52-15.5-.46-1.38.72-2.4,1.72-3.22,2.71-1.65,1.99-2.54,3.97-4.14,3.66-2.81-.54-2.72-7.13-5.78-7.91-2.58-.65-4.33,3.6-6.59,4.43-6.19,2.27-17.88-20.72-26.63-38.95.38-10.6-.22-18.35-.42-20.7-2.53-29.22-14.1-63.51-33.11-88.93,3.81-5.33,8.21-9.39,8.21-9.39,0,0,6.89-6.35,14.13-9.42,22.02-9.33,54.94,20.75,71.53,51.16,8.61,15.77,20.31,45.73,34.61,47.62,1.12.15,5.67.57,6.55,3.33.68,2.12-2.43,3.8-5.48,10-1.56,3.15-2.51,5.1-2.54,7.7h0s0,.08,0,.12Z"/><path class="cls-18" d="m690.42,526.09c-6.34-15.38-17.18-28.05-29.74-38.76-6.09-5.19-12.53-9.96-19.05-14.6-6.16-4.38-12.36-8.75-17.72-14.11-6.13-6.13-10.79-13.48-12.24-22.14-.32-1.9-3.21-1.09-2.89.8,2.63,15.64,14.97,26.3,27.19,35.09,13.01,9.36,26.08,18.69,36.67,30.85,6.14,7.06,11.32,15,14.89,23.66.73,1.76,3.63.99,2.89-.8h0Z"/><path class="cls-15" d="m679.74,552.92c-6.03-19.48-17.45-36.35-31.79-50.69-6.63-6.64-13.77-12.74-21.03-18.68-6.76-5.52-13.49-11.14-19.09-17.88-6.87-8.28-11.4-18.16-12.47-28.91-.19-1.9-3.19-1.92-3,0,.97,9.75,4.45,18.91,10.14,26.88,5.18,7.24,11.73,13.3,18.55,18.97,14.57,12.1,29.16,24.23,40.22,39.79,6.8,9.57,12.09,20.1,15.57,31.32.57,1.84,3.47,1.05,2.89-.8h0Z"/><path class="cls-15" d="m640.06,573.72c-1.64-18.42-8.48-35.63-18.02-51.35-4.5-7.41-9.52-14.49-14.68-21.45s-10.13-13.52-14.02-21.04c-4.68-9.06-7.13-18.95-5.94-29.16.22-1.91-2.78-1.9-3,0-1.06,9.04.66,17.96,4.25,26.27,3.4,7.86,8.3,14.94,13.38,21.78,10.39,13.98,20.66,28.24,27.36,44.43,4.03,9.74,6.72,20.01,7.66,30.52.17,1.91,3.17,1.93,3,0h0Z"/><path class="cls-1" d="m497.52,574.17c-2.41,16.58,6.95,30.45,19.44,32.98,11.68,2.37,21.92-6.02,23.28-7.17"/><path class="cls-1" d="m451.33,600.4c13.37,9.71,30.71,8.2,39.71-1.21,8.42-8.8,6.52-21.35,6.24-23.04"/><path class="cls-19" d="m1653.46,940.26c-26.67,8.87-61.9,18.17-103.95,22.93-14.99,1.7-58.46,5.95-114.79,0-30.17-3.18-68.34-9.75-111.18-23.54v-84.74h329.92v85.35Z"/><path class="cls-8" d="m1371.27,394.22c-.26.39-.5.77-.73,1.18.14-.46.28-.92.4-1.39.12.07.23.14.34.22Z"/><path class="cls-20" d="m1665.04,855.85c-25.6,12.32-63.66,27.27-111.9,34.84-54.66,8.57-98.33,3.88-118.65.94-52.93-7.66-94.31-24.72-121.55-38.6v-382.27h352.11v385.1Z"/><ellipse class="cls-16" cx="1488.5" cy="470.76" rx="177.5" ry="43.31"/><ellipse class="cls-17" cx="1490.43" cy="470.28" rx="113.83" ry="26.83"/><path class="cls-14" d="m1374.91,571.94h32.57c5.62,0,10.53.45,14.72,1.36,4.19.91,7.68,2.17,10.47,3.81,2.79,1.63,4.89,3.57,6.29,5.81,1.4,2.24,2.11,4.68,2.11,7.31,0,1.91-.48,3.71-1.44,5.41s-2.3,3.26-4.02,4.7c-1.72,1.43-3.81,2.7-6.26,3.8-2.45,1.1-5.14,2.02-8.08,2.74l30.84,32.08h-23.12l-29.05-30.3h-3.77v30.3h-21.26v-67.02Zm21.26,30.84h4.6c2.6,0,5-.28,7.22-.84,2.21-.56,4.13-1.36,5.75-2.4,1.62-1.04,2.88-2.31,3.8-3.83.92-1.52,1.37-3.23,1.37-5.14,0-1.78-.35-3.41-1.05-4.89s-1.67-2.76-2.91-3.83c-1.24-1.07-2.72-1.9-4.47-2.5-1.75-.59-3.64-.89-5.68-.89h-8.62v24.32Z"/><path class="cls-14" d="m1524.85,571.94v5.73h-43.42v22.09h36.08v5.73h-36.08v26.59h43.42v6.87h-64.69v-67.02h64.69Z"/><path class="cls-14" d="m1538.38,571.94h13.6l49.36,42.6v-42.6h13.28v68h-9.13l-53.64-47.05v46.06h-13.47v-67.02Z"/><path class="cls-14" d="m1386.68,772.93h12.49v30.39l39.1-30.39h8.12l-37.08,28.84,47.05,39.69h-15.91l-41.28-34.78v34.78h-12.49v-68.53Z"/><path class="cls-14" d="m1466.61,772.93h29.91c3.96,0,7.59.41,10.89,1.21,3.3.81,6.14,1.96,8.51,3.44,2.37,1.48,4.21,3.26,5.52,5.32,1.31,2.07,1.96,4.34,1.96,6.82,0,1.9-.21,3.58-.62,5.06-.41,1.48-1.14,2.85-2.18,4.11-1.05,1.26-2.44,2.45-4.17,3.57-1.74,1.12-3.93,2.27-6.58,3.44v.21c2.65.38,5.04,1.03,7.17,1.96,2.13.93,3.95,2.11,5.46,3.54,1.51,1.43,2.68,3.1,3.5,5.01.82,1.91,1.23,4,1.23,6.28,0,2.58-.61,5-1.82,7.26-1.21,2.26-2.95,4.22-5.21,5.89-2.26,1.67-4.99,2.99-8.18,3.95-3.19.96-6.77,1.45-10.73,1.45h-34.67v-68.53Zm12.49,30.85h15.91c2.5,0,4.72-.33,6.67-.98,1.94-.65,3.58-1.56,4.93-2.71,1.34-1.15,2.36-2.53,3.05-4.13.69-1.6,1.04-3.33,1.04-5.19,0-2-.41-3.82-1.23-5.45-.82-1.64-2.1-3.04-3.84-4.21-1.74-1.17-3.94-2.07-6.61-2.69-2.67-.62-5.87-.93-9.61-.93h-10.31v26.3Zm0,32.66h13.5c3.62,0,6.77-.32,9.44-.96,2.67-.64,4.87-1.53,6.61-2.69,1.74-1.15,3.02-2.54,3.86-4.16.84-1.62,1.26-3.39,1.26-5.32,0-2.17-.37-4.19-1.12-6.05-.75-1.86-1.97-3.47-3.67-4.83-1.7-1.36-3.92-2.44-6.67-3.23-2.74-.79-6.11-1.19-10.11-1.19h-13.11v28.42Z"/><path class="cls-14" d="m1554.94,808.59v32.87h-12.49v-68.53h12.49v31.21h37.3v-31.21h12.49v68.53h-12.49v-32.87h-37.3Z"/><path class="cls-14" d="m1367.97,677.84h2.02v27.1c2.1-4.02,9.59-18.02,14.27-27.1h2.7l-11.76,22.19,12.44,29.93h-2.51l-11.39-27.32-3.75,6.55v20.77h-2.02v-52.11Z"/><path class="cls-14" d="m1420.71,677.84v3.72h-14.01v18.98h13.34v3.72h-13.34v21.96h14.61l-.3,3.72h-16.37v-19.73h-9.33l-6.44,19.73h-2.29l16.93-52.11h17.19Zm-16.07,28.66v-25.16h-.07l-8.17,25.16h8.24Z"/><path class="cls-14" d="m1428.53,705.61v24.34h-2.06v-52.11h9.4c5.17,0,7.9,5.51,7.9,13.7,0,6.63-1.99,10.94-4.91,12.21,2.7,1.27,4.5,4.77,4.5,13.62v2.01c0,3.65-.15,8.56.34,10.57h-2.06c-.49-2.23-.37-6.4-.37-10.87v-1.34c0-8.56-1.27-12.14-6.29-12.14h-6.44Zm0-3.72h6.33c4.61,0,6.74-3.42,6.74-10.27,0-6.4-2.1-10.05-6.18-10.05h-6.89v20.32Z"/><path class="cls-14" d="m1450.18,677.84h2.02v48.39h14.09l-.37,3.72h-15.73v-52.11Z"/><path class="cls-14" d="m1472.36,677.84v52.11h-2.02v-52.11h2.02Z"/><path class="cls-14" d="m1499.92,729.95h-1.69c-.15-.6-.22-3.28-.26-8.34-.94,3.57-3,8.93-8.47,8.93-7.53,0-11.39-11.39-11.39-26.21,0-15.56,4.12-27.25,11.8-27.25,5.66,0,9.4,5.88,10.23,15.48h-2.02c-1.12-7.37-3.71-11.76-8.28-11.76-6.56,0-9.55,10.12-9.55,23.3,0,11.91,2.88,22.71,9.29,22.71s8.39-8.49,8.39-20.03v-.6h-8.47v-3.72h10.41v27.47Z"/><path class="cls-14" d="m1506.7,677.84h2.02v22.71h15.73v-22.71h2.02v52.11h-2.02v-25.68h-15.73v25.68h-2.02v-52.11Z"/><path class="cls-14" d="m1549.59,704.34h-13.37v21.89h14.65l-.3,3.72h-16.37v-52.11h16.07v3.72h-14.05v19.06h13.37v3.72Z"/><path class="cls-14" d="m1556.03,677.84h8.69c7.19,0,12.17,9.98,12.17,25.61s-4.87,26.5-12.21,26.5h-8.65v-52.11Zm2.02,48.39h6.33c6.93,0,10.34-9.68,10.34-22.56,0-11.46-3.07-22.11-10.34-22.11h-6.33v44.67Z"/><path class="cls-14" d="m1597.75,681.56h-8.8v-3.72h19.7v3.72h-8.84v48.39h-2.06v-48.39Z"/><path class="cls-14" d="m1614.57,677.84v52.11h-2.02v-52.11h2.02Z"/><path class="cls-14" d="m1622.29,677.84h2.02v48.39h14.08l-.37,3.72h-15.73v-52.11Z"/><path class="cls-13" d="m1686.95,440.89c0,13.94-32.31,25.24-72.18,25.24s-72.17-11.31-72.17-25.24c0-9.51,15.06-17.8,37.29-22.1-10.78-3.65-17.55-8.97-17.55-14.9,0-8.28,13.27-15.39,32.17-18.4-5.55-3.63-9.01-8.77-9.01-14.48,0-8.43,7.56-15.64,18.24-18.55.38-10.3,3.04-18.65,8.08-23.27,12.33-11.33,34.27,3.83,48.98,33.84-.54-.81-11.76-17.45-28.35-7.54,6.55,3.65,10.74,9.25,10.74,15.52,0,5.65-3.4,10.74-8.85,14.37,19.27,2.95,32.87,10.12,32.87,18.5,0,5.93-6.79,11.25-17.56,14.9,22.24,4.3,37.3,12.59,37.3,22.1Z"/></svg>