<?xml version="1.0" encoding="UTF-8"?><svg id="Forgrund" xmlns="http://www.w3.org/2000/svg" xmlns:xlink="http://www.w3.org/1999/xlink" viewBox="0 0 1920 1080"><defs><style>.cls-1{fill:none;}.cls-1,.cls-2,.cls-3,.cls-4,.cls-5,.cls-6,.cls-7,.cls-8,.cls-9,.cls-10,.cls-11,.cls-12,.cls-13,.cls-14,.cls-15,.cls-16{stroke-miterlimit:10;}.cls-1,.cls-2,.cls-10,.cls-11,.cls-12,.cls-13,.cls-14,.cls-15,.cls-16{stroke-width:3px;}.cls-1,.cls-3,.cls-4,.cls-10{stroke:#8c6239;}.cls-2,.cls-11,.cls-12,.cls-13,.cls-14,.cls-15,.cls-16{stroke:#603813;}.cls-17{fill:url(#linear-gradient-10);}.cls-17,.cls-18,.cls-19,.cls-20,.cls-21,.cls-22,.cls-23,.cls-24,.cls-25,.cls-26,.cls-27,.cls-28,.cls-29,.cls-30,.cls-31{stroke-width:0px;}.cls-3{fill:url(#linear-gradient-12);}.cls-4{fill:url(#linear-gradient-11);}.cls-5,.cls-7,.cls-15,.cls-30{fill:#fff;}.cls-5,.cls-9{stroke:#000;}.cls-6{fill:#ed1c24;}.cls-6,.cls-7{stroke:#c1272d;}.cls-8{stroke:#754c24;}.cls-8,.cls-13,.cls-28{fill:#c69c6d;}.cls-9,.cls-14{fill:#29abe2;}.cls-10{fill:url(#linear-gradient-9);}.cls-18{fill:url(#linear-gradient-4);}.cls-19{fill:url(#linear-gradient-2);}.cls-20{fill:url(#linear-gradient-3);}.cls-21{fill:url(#linear-gradient-8);}.cls-22{fill:url(#linear-gradient-7);}.cls-23{fill:url(#linear-gradient-5);}.cls-24{fill:url(#linear-gradient-6);}.cls-11{fill:#736357;}.cls-12{fill:#c7b299;}.cls-26{fill:#754c24;}.cls-27{fill:#231f20;}.cls-29{fill:#8c6239;}.cls-31{fill:#fcee21;}.cls-16{fill:url(#linear-gradient);}</style><linearGradient id="linear-gradient" x1="960.5" y1="1080.5" x2="960.5" y2=".5" gradientUnits="userSpaceOnUse"><stop offset="0" stop-color="#000"/><stop offset=".13" stop-color="#009d27"/><stop offset=".43" stop-color="#7cbef5"/><stop offset=".52" stop-color="#8fc1f4"/><stop offset=".73" stop-color="#b8c8f4"/><stop offset=".9" stop-color="#d1ccf4"/><stop offset="1" stop-color="#dbcef4"/></linearGradient><linearGradient id="linear-gradient-2" x1="705.8" y1="303.91" x2="1212.35" y2="303.91" xlink:href="#linear-gradient"/><linearGradient id="linear-gradient-3" x1="705.8" y1="303.91" x2="1212.35" y2="303.91" xlink:href="#linear-gradient"/><linearGradient id="linear-gradient-4" x1="705.8" y1="303.91" x2="1212.35" y2="303.91" xlink:href="#linear-gradient"/><linearGradient id="linear-gradient-5" x1="705.8" y1="303.91" x2="1212.35" y2="303.91" xlink:href="#linear-gradient"/><linearGradient id="linear-gradient-6" x1="705.8" y1="303.91" x2="1212.35" y2="303.91" xlink:href="#linear-gradient"/><linearGradient id="linear-gradient-7" x1="705.8" y1="303.91" x2="1212.35" y2="303.91" xlink:href="#linear-gradient"/><linearGradient id="linear-gradient-8" x1="705.8" y1="303.91" x2="1212.35" y2="303.91" xlink:href="#linear-gradient"/><linearGradient id="linear-gradient-9" x1="133.44" y1="596.36" x2="533" y2="596.36" gradientUnits="userSpaceOnUse"><stop offset="0" stop-color="#abffaa"/><stop offset=".07" stop-color="#a1f9a6"/><stop offset=".18" stop-color="#88ec9c"/><stop offset=".32" stop-color="#5ed58b"/><stop offset=".48" stop-color="#25b774"/><stop offset=".49" stop-color="#22b573"/><stop offset=".87" stop-color="#009245"/><stop offset=".99" stop-color="#006837"/></linearGradient><linearGradient id="linear-gradient-10" x1="248.82" y1="587.75" x2="408.33" y2="587.75" gradientUnits="userSpaceOnUse"><stop offset="0" stop-color="#fff"/><stop offset="0" stop-color="#f9f7f5"/><stop offset="0" stop-color="#e8e2dc"/><stop offset="0" stop-color="#cec0b2"/><stop offset="0" stop-color="#aa9178"/><stop offset="0" stop-color="#7c5630"/><stop offset="0" stop-color="#754c24"/><stop offset=".87" stop-color="#754c24"/><stop offset=".99" stop-color="#754c24"/></linearGradient><linearGradient id="linear-gradient-11" x1="123.08" y1="782.75" x2="134.24" y2="782.75" xlink:href="#linear-gradient-9"/><linearGradient id="linear-gradient-12" x1="113.51" y1="472.66" x2="143.81" y2="472.66" xlink:href="#linear-gradient-9"/></defs><rect id="Baggrund_game_over" class="cls-16" x=".5" y=".5" width="1920" height="1080"/><path class="cls-19" d="m739.13,335.14c-8.78,3.67-13.56-2.06-10.4-12.44-11.36-2.24-14.8-9.01-7.48-14.71-12.9-8.77-15.07-16.43-4.71-16.65-13.46-15.96-14.4-24.37-2.05-18.25-11.48-17.36-9.97-19.52,3.26-4.69-9.65-18.4-7.71-19.87,4.21-3.2-7.75-19-5.6-19.86,4.69-1.86-5.82-19.09-3.69-19.37,4.63-.6-2.94-18.77-.02-18.32,6.35.97-1.37-17.51.92-16.27,4.98,2.68-1.64-16.15-1.15-14.24,1.05,4.13-.94-13.23-.3-10.49,1.4,5.96-.39-10.62.24-7.74,1.37,6.26.09-8.3.56-5.96,1.03,5.1-.13-9.21-3.33,10.75-2.32,14.45-1.11-2.95-1.24-2.09-.29,1.86-1.29-2.03-1.38-1.18-.18,1.86-1.19-1.26-1-.42.42,1.83-.64-.94.03-.61,1.47.71-.18-2.62.22-4.73.87-4.58.37-5.98.93-9.3,1.21-7.22.93-9.55,1.56-13.53,1.37-8.64,1.5-13.33,2.13-17.39,1.37-8.83,1.97-16.38,2.54-19.96,1.24-7.78,2.37-18.69,2.81-21.28.95-5.62,4.09-18.88,6.34-19.96,4.9-2.35,6.68-19.33,9.52-19.76,6.16-.93,9.8-18.83,12.91-18.23,6.74,1.3,11.79-17.13,14.19-15.36,5.21,3.84,12.95-14.54,14.49-11.64,3.34,6.29,13.33-11.01,13.88-7.01,1.18,8.68,12.69-3.97,11.96,2.86-1.58,14.82,10.63.93,8.74,6.93-4.11,13.03,8.2,5,5.59,10.11-5.66,11.1,5.48,8.34,2.63,12.45-6.19,8.94,6.01,7.08,6.01,41.02,0,24.58,3.88,18.3,1.89,19.79-4.32,3.24,2.52,18.81.74,19.68-3.87,1.9,1.17,19.02-.48,19.43-3.58.89-.05,18.95-1.61,19.05-3.4.22-2.97,18.83-5.89,18.42-6.35-.89-4.83,17.66-7.09,16.38-4.92-2.79-5.95,15.67-7.42,13.46-3.19-4.8-6.32,12.92-6.84,9.73-1.13-6.93-5.71,12.95-5.71-5.15,0-13.11-5.41,8.37-4.98,8.94.95,1.23-4.76,9.15-4.16,9.85,1.32,1.53-4.21,9.69-3.57,10.28,1.4,1.27-3.66,9.97-3.11,10.21,1.18.52-3.28,9.69-2.79,9.43,1.05-.56-3.07,8.96-2.88,8.16.42-1.75Z"/><path class="cls-20" d="m820.53,363.79c-5.65,16.42-10.97,15.18-11.56-2.68-9.35,12.93-13.67,9.19-9.37-8.12-11.62,7.3-14.51,1.06-6.29-13.56-12.49-.34-13.55-9.08-2.32-18.99-11.23-9.15-10.24-17.33,2.16-17.76-8.42-14.17-5.64-20.39,6.06-13.52-4.52-17.16-.23-21.1,9.32-8.57.44-18.02,5.97-19.39,12.01-2.98,6.08-16.42,11.61-14.94,12.01,3.2,9.59-12.25,13.87-8.11,9.29,8.98,11.7-6.46,14.46-.12,6,13.78,12.38.85,13.37,8.92,2.13,17.54,11.23,9.21,10.31,17.37-2,17.73,8.63,14.18,5.96,20.37-5.79,13.44,4.77,17.14.51,21.07-9.27,8.53-.31,18.02-6,19.39-12.37,2.98Zm-1.21-30.81c-.1,5.26.41,5.5,1.11.52.9,4.98,1.52,4.59,1.34-.86.81,3.87.97,2.58.34-2.79.63,3.59.63-11.12,0-10.65.63-3.55.59-6.16-.08-5.66.52-4.75.36-6.5-.34-3.8.22-5.44-.08-6.34-.66-1.94-.15-5.22-.57-5.43-.92-.45-.57-4.98-.93-4.88-.76.22-.7-4.69-.93-4.45-.5.52-.57-3.6-.5-2.57.16,2.23-.46-2.88-.39-1.8.16,2.35-.45-1.75-.4-.34.11,3.05-.41-.18-.39,1.76.05,4.21-.44-.18-.44,17.82,0,13.03Z"/><path class="cls-18" d="m897.06,358.54c.84,15,.15,15.7-1.5,1.53.05,15.62-.9,16.25-2.08,1.38-1.06,15.97-2.36,16.43-2.84,1.01-2.53,16.18-4.27,16.37-3.79.41-4.65,15.96-6.9,15.69-4.9-.6-6.66,15.18-8.93,14.24-4.92-2.05-8.41,13.62-10.51,11.82-4.55-3.91-9.93,11.2-11.67,8.37-3.77-6.14-10.86,7.73-12.03,3.72-2.55-8.72-11.22,3.17-11.66-2.23-.95-11.73-10.71,3.33-10.71-22.48,0-18.69-11.73-6.32-12.6-9.26-1.9-6.37-12.16-9.54-12.53-13.33-.79-8.23-11.74-11.2-11.65-13.12.18-4.17-11.49-12.93-11.24-14.9.55-4.28-11.12-14.52-10.68-16.43.95-4.13-10.56-16-9.91-17.71,1.42-3.72-10.55-15.56,5.45-15.56,11.58,0-3.33-15.56-.73-15.1,5.63,1.01-1.62-14.25.42-12.8,4.42,3.17-.61-11.99.71-9.46,2.87,5.47-.27-8.84.2-5.19,1.03,7.93-.82-8.87-.82,24.46,0,24.13-.82,4.17-.57,6.79.55,5.7-.1,3.9.54,4.61,1.4,1.53.4,3.08.78,2.98.82-.22.5,2.79.75,2.55.55-.52.2,1.63.02.22-.39-3.05.17-.01.11-2.14-.13-4.62.24-.13.24-50.94,0-36.8,1.16-14.9,2.19-15.67,2.24-1.68,2.23-15.57,3.55-16.28,2.87-1.53,3.69-15.98,5.37-16.5,3.66-1.12,5.45-16.2,7.59-16.41,4.66-.45,9.57-15.96,13.21-15.15,7.9,1.75,11.42-13.68,13.72-11.68,5,4.36,10.27-13.63,10.27,39.96,0,38.81,10.27,5.88,10.63,9.94.79,8.83,11.3,7.91,12.68,10.5,3,5.62,11.76,7.2,11.79,7.87.05,1.45,11.74,8,11.74,8.6,0,1.3,11.74,12.92,11.24,17.41-1.08,9.76,10.33,15.19,8.96,18.3-2.98,6.74,8.45,16.42,6.37,18.22-4.5,3.91,6.08,16.64,3.47,17.23-5.66,1.27,2.73,15.96-.6,14.79-7.24-2.53.48,12.67-1.83,9.13-5.03-7.67,0,12.07-.83,13.21-1.79,2.46.96,13.77,1.11,14.55.32,1.71,1.37,14.49,1.79,15.27.89,1.71Z"/><path class="cls-23" d="m1009.03,355.24c-.49,14.11-.9,15.36-.89,2.72-.88,15.31-1.46,16.67-1.26,2.94-2.47,15.85-4.56,16.5-4.53,1.42-5.27,16.18-8.32,16.46-6.64.6-8.62,15.86-11.95,15.54-7.24-.71-11.16,14.94-14.1,13.86-6.4-2.35-12.07,11.34-13.73,7.62-3.61-8.08-13.37,7.54-14.91,2.82-3.34-10.24-14.47,2.37-15.84-3.73-2.98-13.26-15.44-4.19-16.61-12.11-2.55-17.21-16.43-6.29-17.56-9.27-2.45-6.48-17-9.92-17.48-13.9-1.03-8.64-16.45-13.42-16.11-17.21.74-8.23-15.49-16.59-14.38-20.14,2.42-7.71-15.25-15.72,2.35-15.72,12.74,0-6.61-15.72-3.58-15.1,6.58,1.34-5.61-13.98-3.84-12.28,3.84,3.69-5.16-11.64-4.32-9.09,1.82,5.55-5.32-8.74-5.11-5.55.45,6.93-5.56-6.65-5.58-4.37-.05,4.95-5.63-5-5.69-2.72-.13,4.95-5.7-2.88-5.76-.27-.13,5.66-5.73-.31-5.75,2.91-.05,7-5.7,1.13-5.69,2.6.03,3.2-5.66,2.14-5.57,3.34.21,2.61-5.44,2.79-5.16,3.59.61,1.75-4.99,3.01-4.46,3.3,1.16.63-4.74,2.67-4.53,2.67.45,0-4.55,2.67-4.32,2.6.5-.15-4.67,1.24-4.73-.36-.13-3.46-4.65-.53-4.66-2.46-.03-4.21-4.63-3.05-4.6-5.87.08-6.11-4.53-5.52-4.46-8.84.16-7.23-4.47-9.16-4.39-13.53.18-9.5-4.38-13.98-4.33-19.93.11-12.92-1.86-16.47.8-18.27,5.79-3.91.54-16.48,3.37-17.02,6.16-1.15,5.02-15.86,9.04-14.51,8.74,2.94,6.6-12.03,8.78-8.24,4.74,8.23,5.26-10.17,5.21-8.19-.11,4.28,5.12-7.47,4.99-4.68-.29,6.07,4.93-4.58,4.71-1.28-.5,7.15,4.62-1.44,4.3,2.06-.71,7.6,4.28,1.45,3.87,4.81-.89,7.3,3.84,3.96,3.35,6.84-1.08,6.26,4.23,3.4,4.57,3.57.74.37,4.51,3.33,4.8,3.37.63.07,5.14,3.29,5.69,2.76,1.18-1.15,5.23,1.79,5.6.37.82-3.09,5.66-.73,6.11-3.62.97-6.29,5.96-4.12,6.32-7.7.79-7.78,6.16-7.46,6.44-11.3.61-8.34,6.32-10.78,6.54-14.44.47-7.97,6.45-13.33,6.6-16.37.32-6.59,6.48-15.05,6.55-17.02.16-4.28,8.28-16.03,10.73-17.63,5.32-3.46,11.52-16.56,14.74-17.17,7-1.3,14.04-15.86,16.67-15.28,5.71,1.27,15.66-14.21,17.68-12.57,4.4,3.57,16.68-11.89,17.99-9.34,2.84,5.55,16.99-8.92,17.45-5.58,1,7.26,16.45-6.19,16.21-2.57-.53,7.86,15.76-1.86,15.13,2.62-1.37,9.72,14.95,2.22,14.08,6.87-1.9,10.09,14.03,6.03,13.09,10.2-2.05,9.05,12.86,10.2,11.63,14.92-2.69,10.24,12.08,12.83,10.96,16.35-2.45,7.63,11.13,14.61,9.9,17.06-2.66,5.33,9.95,15.65,8.39,17.21-3.37,3.39,8.18,16.15,6.07,16.97-4.58,1.79,5.8,16.14,2.94,16.38-6.21.52,4.74,15.86,3.47,15.78-2.76-.19,3.37,15.62,1.97,15.4-3.05-.48,2.26,15.33.97,15.02-2.79-.67,1.39,15.01.48,14.67-1.97-.74,1.29,13.83.71,12.31-1.26-3.31.71,11.99.1,10.1-1.34-4.1.23,10.29-.34,8.37-1.24-4.17-.17,8.77-.58,7.17-.9-3.46-.9,9.54-1.59,9.89-1.5.74-1.01,10.1-1.24,10.89-.5,1.71-.74,10.62-.67,11.15.16,1.15-.54,11.43-.35,12.24.39,1.75-.31,12.27-.07,13.21.53,2.05-.07,13.15.21,14.1.61,2.05Z"/><path class="cls-24" d="m1066.23,287.13c-4.57-7.26-3.6-7.98,2.11-1.56-3.77-7.51-2.72-8.2,2.26-1.49-4.79-8.22-5.74-9.18-2.05-2.09-5.62-9.56-6.51-11.05-1.92-3.24-6.19-11.31-6.84-13.32-1.42-4.36-6.44-13.49-6.69-16.02-.55-5.51-6.14-17.71-5.59-21.71,1.18-8.68-4.6-20.23-3.11-23.31,3.24-6.7-2.56-21.75-.36-23.76,4.79-4.36-.11-22.28,2.61-23,5.9-1.56,2.58-21.44,5.3-20.68,5.92,1.64,4.37-19.3,6.54-17.25,4.71,4.47,5.51-16.5,6.95-13.4,3.13,6.74,5.91-12.94,6.43-9.05,1.13,8.45,5.3-9.76,4.87-6.45-.92,7.19,4.1-7.53,2.97-4.81-2.45,5.92,2.61-5.93.96-3.92-3.58,4.36.76-5.06-1.21-3.94-4.27,2.42,1.02-4.72,1.18-3.81.34,1.97,1.47-4.2,2.01-3.81,1.18.86,4.03-4.67,6.55-6.04,5.48-2.98,3.84-5.66,4.08-5.43.53.52,4.23-5.26,4.59-4.85.79.89,4.58-4.78,4.94-4.32.79,1.01,4.83-4.43,5.05-4.11.47.71,4.67-4.61,4.67,36.12,0,29.5,4.67,11.36,5.04,15.42.79,8.83,5.7,13.38,7.08,15.97,3,5.62,6.17,12.68,6.19,13.35.05,1.45,6.14,13.47,6.14,14.07,0,1.3,6.14,18.39,5.63,22.88-1.11,9.76,4.7,20.67,3.27,23.77-3.11,6.74,2.69,21.9.5,23.7-4.77,3.91.17,22.12-2.6,22.7-6.03,1.27-1.91,21.44-4.34,20.89-5.29-1.19-4.14,19.89-6.47,18.04-5.06-4.02-5.63,16.85-7.37,13.37-3.79-7.56-6.35,12.22-7.04,6.78-1.5-11.81-5.54,12.07-5.54-54.78,0-48.41Z"/><path class="cls-22" d="m1118.26,280.04c-5.01-15.42-3.3-14.91,3.71,1.12-4.25-13.97-3.02-12.66,2.66,2.83-6.75-11.11-7.81-8.77-2.32,5.07-5.5-11.17-5.3-10.43.42,1.6-4.95-10.73-4.29-10.4,1.42.71-3.83-13.51-2.55-15.8,2.76-4.99-2.17-15.2-.32-17.12,4-4.17-.11-16.24,2.24-17.56,5.11-2.87,2.32-16.68,5.1-17.18,6.03-1.08,5.52-16.1,9.07-15.45,7.71,1.42,8.58-14.26,11.84-12,7.08,4.92,10.57-10.47,12.95-6.08,5.16,9.53,11.47-4.5,12.39,2.49,2,15.19,10.39-1.18,10.36,2.28-.08,7.52,10.29,2.44,10.25,6-.08,7.75,10.33,6.28,10.69,10.19.79,8.49,11.36,7.87,12.74,10.3,3,5.29,11.82,7.35,11.85,8.01.05,1.45,11.8,8.14,11.8,8.74,0,1.3,11.8,12.71,11.26,17.02-1.16,9.35,10.29,15.15,8.83,18.28-3.16,6.82,8.31,16.54,6.16,18.44-4.66,4.13,5.93,16.85,3.32,17.48-5.66,1.38,3.31,16.1.53,15.54-6.03-1.23,1.28,14.5-1.05,12.65-5.06-4.02-.02,11.53-1.62,8.17-3.48-7.3-.52,7.17-1.11,2.08-1.29-11.06.18,3.89.26.83.18-6.63.42,1.7.61-.99.42-5.85.63-.15.83-2.46.45-5.03.77-1.69.87-3.64.21-4.25.66-4.47.41-6.71-.55-4.88-.06-4.23-.87-4.84-1.76-1.3-.95-3.53-1.63-3.26-1.47.6-.78-3.31.16,13.46.68,12.14-.76,3.38-.97,5.45-.45,4.51-.86,5.13-1,7.1-.29,4.28-.9,6.52-.97,8.2-.16,3.65-.91,7.57-.94,8.8-.05,2.68-.88,12.43-.51,16.85.82,9.61.18,14.24,1.04,17.26,1.87,6.56-1.99,16.39-4.77,18.91-6.03,5.47-5.57,17.21-9.46,18.15-8.45,2.05-7.56,16.1-9.78,15.66-4.82-.97-9.47,14.84-11.5,13.49-4.42-2.94-10.71,12.8-12.21,10.53-3.24-4.92-11.29,10.03-11.88,6.83-1.26-6.96-10.61,10.09-10.61-39.7,0-36.05-12.07-6.53-13.15-9.78-2.34-7.08-12.21-9.98-12.56-13.78-.76-8.27-11.8-12.78-11.44-16.42.76-7.9-10.8-16.48-9.72-20.01,2.34-7.67-10.61-15.42,2.33-15.42,9.37,0Z"/><path class="cls-21" d="m1206.52,280.87c5.12-4.31,4.88.55-.5,10.54,4.46-.87,3.87,3.41-1.29,9.31,3.71,2.13,2.88,5.83-1.79,8.04,2.83,4.57,1.91,7.68-2,6.74,2.02,3.13.92,2.58-2.4-1.19.84,2.81-.24,2.57-2.34-.52.36,3.09-.36,3.39-1.55.63-.01,3.92-.32,4.89-.66,2.12.34,4.14.34,4.55,0,.3,3.1,4.53,5.69,5.49,5.61,2.09,4.88,6.7,6.97,8.86,4.56,4.69,6.01,9.51,7.41,12.62,3.05,6.74,6.39,12.94,6.9,16.66,1.11,8.08,5.8,16.53,5.24,20.35-1.21,8.31,4.22,19.25,2.71,22.39-3.29,6.82,2.17,20.92-.08,23.03-4.87,4.58-.34,21.53-3.08,22.3-5.95,1.68-2.9,20.63-5.59,19.86-5.85-1.68-4.79,18.45-6.99,16.34-4.79-4.58-5.98,15.57-7.49,12.43-3.26-6.82-6.45,12.05-7.01,8.23-1.21-8.31-5.8,6.86-4.8,1.75,2.16-11.1-2.99,3.66-.39.06,5.63-7.82-4.28,1.71-5.6-2.18-2.87-8.45-5.11-2.16-6.13-6.55-2.21-9.53-5.61-6.13-6.26-10.83-1.4-10.2-5.73-10.3-5.95-15.11-.47-10.47-5.48-9.45-5.48-42.98,0-24.28-4.6-19.59-3.53-20.46,2.34-1.9-3.3-20.28-1.87-21.03,3.11-1.64-1.83-20.7-.16-21.21,3.61-1.12-.28-20.85,1.49-21.04,3.84-.41,3.03-20.63,6.12-20.01,6.71,1.34,4.59-18.88,6.72-16.93,4.63,4.25,5.43-15.83,6.67-12.33,2.69,7.6,5.58-11.29,5.98-6.04.87,11.4,5.12-11.26,5.12-4.68,0,4.77Z"/><path class="cls-12" d="m739.13,335.14c-8.78,3.67-13.56-2.06-10.4-12.44-11.36-2.24-14.8-9.01-7.48-14.71-12.9-8.77-15.07-16.43-4.71-16.65-13.46-15.96-14.4-24.37-2.05-18.25-11.48-17.36-9.97-19.52,3.26-4.69-9.65-18.4-7.71-19.87,4.21-3.2-7.75-19-5.6-19.86,4.69-1.86-5.82-19.09-3.69-19.37,4.63-.6-2.94-18.77-.02-18.32,6.35.97-1.37-17.51.92-16.27,4.98,2.68-1.64-16.15-1.15-14.24,1.05,4.13-.94-13.23-.3-10.49,1.4,5.96-.39-10.62.24-7.74,1.37,6.26.09-8.3.56-5.96,1.03,5.1-.13-9.21-3.33,10.75-2.32,14.45-1.11-2.95-1.24-2.09-.29,1.86-1.29-2.03-1.38-1.18-.18,1.86-1.19-1.26-1-.42.42,1.83-.64-.94.03-.61,1.47.71-.18-2.62.22-4.73.87-4.58.37-5.98.93-9.3,1.21-7.22.93-9.55,1.56-13.53,1.37-8.64,1.5-13.33,2.13-17.39,1.37-8.83,1.97-16.38,2.54-19.96,1.24-7.78,2.37-18.69,2.81-21.28.95-5.62,4.09-18.88,6.34-19.96,4.9-2.35,6.68-19.33,9.52-19.76,6.16-.93,9.8-18.83,12.91-18.23,6.74,1.3,11.79-17.13,14.19-15.36,5.21,3.84,12.95-14.54,14.49-11.64,3.34,6.29,13.33-11.01,13.88-7.01,1.18,8.68,12.69-3.97,11.96,2.86-1.58,14.82,10.63.93,8.74,6.93-4.11,13.03,8.2,5,5.59,10.11-5.66,11.1,5.48,8.34,2.63,12.45-6.19,8.94,6.01,7.08,6.01,41.02,0,24.58,3.88,18.3,1.89,19.79-4.32,3.24,2.52,18.81.74,19.68-3.87,1.9,1.17,19.02-.48,19.43-3.58.89-.05,18.95-1.61,19.05-3.4.22-2.97,18.83-5.89,18.42-6.35-.89-4.83,17.66-7.09,16.38-4.92-2.79-5.95,15.67-7.42,13.46-3.19-4.8-6.32,12.92-6.84,9.73-1.13-6.93-5.71,12.95-5.71-5.15,0-13.11-5.41,8.37-4.98,8.94.95,1.23-4.76,9.15-4.16,9.85,1.32,1.53-4.21,9.69-3.57,10.28,1.4,1.27-3.66,9.97-3.11,10.21,1.18.52-3.28,9.69-2.79,9.43,1.05-.56-3.07,8.96-2.88,8.16.42-1.75Z"/><path class="cls-12" d="m820.53,363.79c-5.65,16.42-10.97,15.18-11.56-2.68-9.35,12.93-13.67,9.19-9.37-8.12-11.62,7.3-14.51,1.06-6.29-13.56-12.49-.34-13.55-9.08-2.32-18.99-11.23-9.15-10.24-17.33,2.16-17.76-8.42-14.17-5.64-20.39,6.06-13.52-4.52-17.16-.23-21.1,9.32-8.57.44-18.02,5.97-19.39,12.01-2.98,6.08-16.42,11.61-14.94,12.01,3.2,9.59-12.25,13.87-8.11,9.29,8.98,11.7-6.46,14.46-.12,6,13.78,12.38.85,13.37,8.92,2.13,17.54,11.23,9.21,10.31,17.37-2,17.73,8.63,14.18,5.96,20.37-5.79,13.44,4.77,17.14.51,21.07-9.27,8.53-.31,18.02-6,19.39-12.37,2.98Zm-1.21-30.81c-.1,5.26.41,5.5,1.11.52.9,4.98,1.52,4.59,1.34-.86.81,3.87.97,2.58.34-2.79.63,3.59.63-11.12,0-10.65.63-3.55.59-6.16-.08-5.66.52-4.75.36-6.5-.34-3.8.22-5.44-.08-6.34-.66-1.94-.15-5.22-.57-5.43-.92-.45-.57-4.98-.93-4.88-.76.22-.7-4.69-.93-4.45-.5.52-.57-3.6-.5-2.57.16,2.23-.46-2.88-.39-1.8.16,2.35-.45-1.75-.4-.34.11,3.05-.41-.18-.39,1.76.05,4.21-.44-.18-.44,17.82,0,13.03Z"/><path class="cls-12" d="m897.06,358.54c.84,15,.15,15.7-1.5,1.53.05,15.62-.9,16.25-2.08,1.38-1.06,15.97-2.36,16.43-2.84,1.01-2.53,16.18-4.27,16.37-3.79.41-4.65,15.96-6.9,15.69-4.9-.6-6.66,15.18-8.93,14.24-4.92-2.05-8.41,13.62-10.51,11.82-4.55-3.91-9.93,11.2-11.67,8.37-3.77-6.14-10.86,7.73-12.03,3.72-2.55-8.72-11.22,3.17-11.66-2.23-.95-11.73-10.71,3.33-10.71-22.48,0-18.69-11.73-6.32-12.6-9.26-1.9-6.37-12.16-9.54-12.53-13.33-.79-8.23-11.74-11.2-11.65-13.12.18-4.17-11.49-12.93-11.24-14.9.55-4.28-11.12-14.52-10.68-16.43.95-4.13-10.56-16-9.91-17.71,1.42-3.72-10.55-15.56,5.45-15.56,11.58,0-3.33-15.56-.73-15.1,5.63,1.01-1.62-14.25.42-12.8,4.42,3.17-.61-11.99.71-9.46,2.87,5.47-.27-8.84.2-5.19,1.03,7.93-.82-8.87-.82,24.46,0,24.13-.82,4.17-.57,6.79.55,5.7-.1,3.9.54,4.61,1.4,1.53.4,3.08.78,2.98.82-.22.5,2.79.75,2.55.55-.52.2,1.63.02.22-.39-3.05.17-.01.11-2.14-.13-4.62.24-.13.24-50.94,0-36.8,1.16-14.9,2.19-15.67,2.24-1.68,2.23-15.57,3.55-16.28,2.87-1.53,3.69-15.98,5.37-16.5,3.66-1.12,5.45-16.2,7.59-16.41,4.66-.45,9.57-15.96,13.21-15.15,7.9,1.75,11.42-13.68,13.72-11.68,5,4.36,10.27-13.63,10.27,39.96,0,38.81,10.27,5.88,10.63,9.94.79,8.83,11.3,7.91,12.68,10.5,3,5.62,11.76,7.2,11.79,7.87.05,1.45,11.74,8,11.74,8.6,0,1.3,11.74,12.92,11.24,17.41-1.08,9.76,10.33,15.19,8.96,18.3-2.98,6.74,8.45,16.42,6.37,18.22-4.5,3.91,6.08,16.64,3.47,17.23-5.66,1.27,2.73,15.96-.6,14.79-7.24-2.53.48,12.67-1.83,9.13-5.03-7.67,0,12.07-.83,13.21-1.79,2.46.96,13.77,1.11,14.55.32,1.71,1.37,14.49,1.79,15.27.89,1.71Z"/><path class="cls-12" d="m1009.03,355.24c-.49,14.11-.9,15.36-.89,2.72-.88,15.31-1.46,16.67-1.26,2.94-2.47,15.85-4.56,16.5-4.53,1.42-5.27,16.18-8.32,16.46-6.64.6-8.62,15.86-11.95,15.54-7.24-.71-11.16,14.94-14.1,13.86-6.4-2.35-12.07,11.34-13.73,7.62-3.61-8.08-13.37,7.54-14.91,2.82-3.34-10.24-14.47,2.37-15.84-3.73-2.98-13.26-15.44-4.19-16.61-12.11-2.55-17.21-16.43-6.29-17.56-9.27-2.45-6.48-17-9.92-17.48-13.9-1.03-8.64-16.45-13.42-16.11-17.21.74-8.23-15.49-16.59-14.38-20.14,2.42-7.71-15.25-15.72,2.35-15.72,12.74,0-6.61-15.72-3.58-15.1,6.58,1.34-5.61-13.98-3.84-12.28,3.84,3.69-5.16-11.64-4.32-9.09,1.82,5.55-5.32-8.74-5.11-5.55.45,6.93-5.56-6.65-5.58-4.37-.05,4.95-5.63-5-5.69-2.72-.13,4.95-5.7-2.88-5.76-.27-.13,5.66-5.73-.31-5.75,2.91-.05,7-5.7,1.13-5.69,2.6.03,3.2-5.66,2.14-5.57,3.34.21,2.61-5.44,2.79-5.16,3.59.61,1.75-4.99,3.01-4.46,3.3,1.16.63-4.74,2.67-4.53,2.67.45,0-4.55,2.67-4.32,2.6.5-.15-4.67,1.24-4.73-.36-.13-3.46-4.65-.53-4.66-2.46-.03-4.21-4.63-3.05-4.6-5.87.08-6.11-4.53-5.52-4.46-8.84.16-7.23-4.47-9.16-4.39-13.53.18-9.5-4.38-13.98-4.33-19.93.11-12.92-1.86-16.47.8-18.27,5.79-3.91.54-16.48,3.37-17.02,6.16-1.15,5.02-15.86,9.04-14.51,8.74,2.94,6.6-12.03,8.78-8.24,4.74,8.23,5.26-10.17,5.21-8.19-.11,4.28,5.12-7.47,4.99-4.68-.29,6.07,4.93-4.58,4.71-1.28-.5,7.15,4.62-1.44,4.3,2.06-.71,7.6,4.28,1.45,3.87,4.81-.89,7.3,3.84,3.96,3.35,6.84-1.08,6.26,4.23,3.4,4.57,3.57.74.37,4.51,3.33,4.8,3.37.63.07,5.14,3.29,5.69,2.76,1.18-1.15,5.23,1.79,5.6.37.82-3.09,5.66-.73,6.11-3.62.97-6.29,5.96-4.12,6.32-7.7.79-7.78,6.16-7.46,6.44-11.3.61-8.34,6.32-10.78,6.54-14.44.47-7.97,6.45-13.33,6.6-16.37.32-6.59,6.48-15.05,6.55-17.02.16-4.28,8.28-16.03,10.73-17.63,5.32-3.46,11.52-16.56,14.74-17.17,7-1.3,14.04-15.86,16.67-15.28,5.71,1.27,15.66-14.21,17.68-12.57,4.4,3.57,16.68-11.89,17.99-9.34,2.84,5.55,16.99-8.92,17.45-5.58,1,7.26,16.45-6.19,16.21-2.57-.53,7.86,15.76-1.86,15.13,2.62-1.37,9.72,14.95,2.22,14.08,6.87-1.9,10.09,14.03,6.03,13.09,10.2-2.05,9.05,12.86,10.2,11.63,14.92-2.69,10.24,12.08,12.83,10.96,16.35-2.45,7.63,11.13,14.61,9.9,17.06-2.66,5.33,9.95,15.65,8.39,17.21-3.37,3.39,8.18,16.15,6.07,16.97-4.58,1.79,5.8,16.14,2.94,16.38-6.21.52,4.74,15.86,3.47,15.78-2.76-.19,3.37,15.62,1.97,15.4-3.05-.48,2.26,15.33.97,15.02-2.79-.67,1.39,15.01.48,14.67-1.97-.74,1.29,13.83.71,12.31-1.26-3.31.71,11.99.1,10.1-1.34-4.1.23,10.29-.34,8.37-1.24-4.17-.17,8.77-.58,7.17-.9-3.46-.9,9.54-1.59,9.89-1.5.74-1.01,10.1-1.24,10.89-.5,1.71-.74,10.62-.67,11.15.16,1.15-.54,11.43-.35,12.24.39,1.75-.31,12.27-.07,13.21.53,2.05-.07,13.15.21,14.1.61,2.05Z"/><path class="cls-12" d="m1066.23,287.13c-4.57-7.26-3.6-7.98,2.11-1.56-3.77-7.51-2.72-8.2,2.26-1.49-4.79-8.22-5.74-9.18-2.05-2.09-5.62-9.56-6.51-11.05-1.92-3.24-6.19-11.31-6.84-13.32-1.42-4.36-6.44-13.49-6.69-16.02-.55-5.51-6.14-17.71-5.59-21.71,1.18-8.68-4.6-20.23-3.11-23.31,3.24-6.7-2.56-21.75-.36-23.76,4.79-4.36-.11-22.28,2.61-23,5.9-1.56,2.58-21.44,5.3-20.68,5.92,1.64,4.37-19.3,6.54-17.25,4.71,4.47,5.51-16.5,6.95-13.4,3.13,6.74,5.91-12.94,6.43-9.05,1.13,8.45,5.3-9.76,4.87-6.45-.92,7.19,4.1-7.53,2.97-4.81-2.45,5.92,2.61-5.93.96-3.92-3.58,4.36.76-5.06-1.21-3.94-4.27,2.42,1.02-4.72,1.18-3.81.34,1.97,1.47-4.2,2.01-3.81,1.18.86,4.03-4.67,6.55-6.04,5.48-2.98,3.84-5.66,4.08-5.43.53.52,4.23-5.26,4.59-4.85.79.89,4.58-4.78,4.94-4.32.79,1.01,4.83-4.43,5.05-4.11.47.71,4.67-4.61,4.67,36.12,0,29.5,4.67,11.36,5.04,15.42.79,8.83,5.7,13.38,7.08,15.97,3,5.62,6.17,12.68,6.19,13.35.05,1.45,6.14,13.47,6.14,14.07,0,1.3,6.14,18.39,5.63,22.88-1.11,9.76,4.7,20.67,3.27,23.77-3.11,6.74,2.69,21.9.5,23.7-4.77,3.91.17,22.12-2.6,22.7-6.03,1.27-1.91,21.44-4.34,20.89-5.29-1.19-4.14,19.89-6.47,18.04-5.06-4.02-5.63,16.85-7.37,13.37-3.79-7.56-6.35,12.22-7.04,6.78-1.5-11.81-5.54,12.07-5.54-54.78,0-48.41Z"/><path class="cls-12" d="m1118.26,280.04c-5.01-15.42-3.3-14.91,3.71,1.12-4.25-13.97-3.02-12.66,2.66,2.83-6.75-11.11-7.81-8.77-2.32,5.07-5.5-11.17-5.3-10.43.42,1.6-4.95-10.73-4.29-10.4,1.42.71-3.83-13.51-2.55-15.8,2.76-4.99-2.17-15.2-.32-17.12,4-4.17-.11-16.24,2.24-17.56,5.11-2.87,2.32-16.68,5.1-17.18,6.03-1.08,5.52-16.1,9.07-15.45,7.71,1.42,8.58-14.26,11.84-12,7.08,4.92,10.57-10.47,12.95-6.08,5.16,9.53,11.47-4.5,12.39,2.49,2,15.19,10.39-1.18,10.36,2.28-.08,7.52,10.29,2.44,10.25,6-.08,7.75,10.33,6.28,10.69,10.19.79,8.49,11.36,7.87,12.74,10.3,3,5.29,11.82,7.35,11.85,8.01.05,1.45,11.8,8.14,11.8,8.74,0,1.3,11.8,12.71,11.26,17.02-1.16,9.35,10.29,15.15,8.83,18.28-3.16,6.82,8.31,16.54,6.16,18.44-4.66,4.13,5.93,16.85,3.32,17.48-5.66,1.38,3.31,16.1.53,15.54-6.03-1.23,1.28,14.5-1.05,12.65-5.06-4.02-.02,11.53-1.62,8.17-3.48-7.3-.52,7.17-1.11,2.08-1.29-11.06.18,3.89.26.83.18-6.63.42,1.7.61-.99.42-5.85.63-.15.83-2.46.45-5.03.77-1.69.87-3.64.21-4.25.66-4.47.41-6.71-.55-4.88-.06-4.23-.87-4.84-1.76-1.3-.95-3.53-1.63-3.26-1.47.6-.78-3.31.16,13.46.68,12.14-.76,3.38-.97,5.45-.45,4.51-.86,5.13-1,7.1-.29,4.28-.9,6.52-.97,8.2-.16,3.65-.91,7.57-.94,8.8-.05,2.68-.88,12.43-.51,16.85.82,9.61.18,14.24,1.04,17.26,1.87,6.56-1.99,16.39-4.77,18.91-6.03,5.47-5.57,17.21-9.46,18.15-8.45,2.05-7.56,16.1-9.78,15.66-4.82-.97-9.47,14.84-11.5,13.49-4.42-2.94-10.71,12.8-12.21,10.53-3.24-4.92-11.29,10.03-11.88,6.83-1.26-6.96-10.61,10.09-10.61-39.7,0-36.05-12.07-6.53-13.15-9.78-2.34-7.08-12.21-9.98-12.56-13.78-.76-8.27-11.8-12.78-11.44-16.42.76-7.9-10.8-16.48-9.72-20.01,2.34-7.67-10.61-15.42,2.33-15.42,9.37,0Z"/><path class="cls-12" d="m1206.52,280.87c5.12-4.31,4.88.55-.5,10.54,4.46-.87,3.87,3.41-1.29,9.31,3.71,2.13,2.88,5.83-1.79,8.04,2.83,4.57,1.91,7.68-2,6.74,2.02,3.13.92,2.58-2.4-1.19.84,2.81-.24,2.57-2.34-.52.36,3.09-.36,3.39-1.55.63-.01,3.92-.32,4.89-.66,2.12.34,4.14.34,4.55,0,.3,3.1,4.53,5.69,5.49,5.61,2.09,4.88,6.7,6.97,8.86,4.56,4.69,6.01,9.51,7.41,12.62,3.05,6.74,6.39,12.94,6.9,16.66,1.11,8.08,5.8,16.53,5.24,20.35-1.21,8.31,4.22,19.25,2.71,22.39-3.29,6.82,2.17,20.92-.08,23.03-4.87,4.58-.34,21.53-3.08,22.3-5.95,1.68-2.9,20.63-5.59,19.86-5.85-1.68-4.79,18.45-6.99,16.34-4.79-4.58-5.98,15.57-7.49,12.43-3.26-6.82-6.45,12.05-7.01,8.23-1.21-8.31-5.8,6.86-4.8,1.75,2.16-11.1-2.99,3.66-.39.06,5.63-7.82-4.28,1.71-5.6-2.18-2.87-8.45-5.11-2.16-6.13-6.55-2.21-9.53-5.61-6.13-6.26-10.83-1.4-10.2-5.73-10.3-5.95-15.11-.47-10.47-5.48-9.45-5.48-42.98,0-24.28-4.6-19.59-3.53-20.46,2.34-1.9-3.3-20.28-1.87-21.03,3.11-1.64-1.83-20.7-.16-21.21,3.61-1.12-.28-20.85,1.49-21.04,3.84-.41,3.03-20.63,6.12-20.01,6.71,1.34,4.59-18.88,6.72-16.93,4.63,4.25,5.43-15.83,6.67-12.33,2.69,7.6,5.58-11.29,5.98-6.04.87,11.4,5.12-11.26,5.12-4.68,0,4.77Z"/><path class="cls-10" d="m533,713.33c-18.55,3.91-48.31,8.51-84.54,6.17-53.03-3.42-62.49-18.01-122.02-25.46-42.95-5.37-78.58-2.85-118.83,0-30.07,2.13-55.37,5.5-74.17,8.49v-216.76c19.2-5.54,48.49-12.21,84.54-13.11,10.16-.25,31.95-.33,112.87,13.11,71.28,11.84,80.06,16.16,108.05,16.2,40.11.05,72.8-8.77,94.11-16.2v227.56Z"/><path class="cls-31" d="m146.57,520.98s8.3,2.21,15.62-.96c4.98-2.16,7.8-5.57,9.04-7.29,1.59-1.66,3.43-3.99,4.91-7.06,3.38-6.99,2.88-13.62,2.41-16.78.45,5.24,1.73,11.84,4.99,18.88.86,1.86,1.79,3.58,2.73,5.17,1.53,1.28,3.41,2.61,5.66,3.78,8.13,4.24,16.15,3.84,20.06,3.36-4.6-.04-12.64.6-20.23,5.47-1.81,1.16-3.36,2.41-4.67,3.64-.9,1.56-1.77,3.26-2.58,5.09-2.92,6.6-4.09,12.83-4.5,17.88-.04.5,1.37-8.64-2.56-16.84-2.41-5.03-6.3-8.44-9.59-10.67-2.85-1.03-7.12-2.34-12.43-3.02-4.21-.54-8.86-.67-8.86-.65Z"/><path class="cls-31" d="m142.32,548.86s5.43,2.45,9.48,1.52c2.76-.63,4.01-2.32,4.52-3.2.74-.79,1.54-1.95,2.01-3.61,1.08-3.78-.18-7.86-.93-9.84,1.03,3.23,2.77,7.4,5.79,12.1.8,1.24,1.62,2.41,2.42,3.5,1.13.98,2.47,2.04,4.03,3.05,5.62,3.66,10.5,4.5,12.84,4.74-2.84-.64-7.7-1.33-11.67.59-.95.46-1.72,1.01-2.35,1.58-.33.82-.62,1.73-.86,2.74-.85,3.61-.67,7.22-.2,10.22.05.3-.4-5.05-4-10.54-2.21-3.37-5.09-5.96-7.44-7.76-1.91-1.01-4.72-2.37-8.09-3.5-2.67-.9-5.55-1.6-5.55-1.59Z"/><path class="cls-31" d="m458.27,679.15s7.37,2.45,13.53.18c4.19-1.54,6.41-4.31,7.36-5.72,1.26-1.34,2.71-3.23,3.78-5.79,2.46-5.83,1.56-11.59.94-14.36.76,4.56,2.33,10.36,5.65,16.66.88,1.67,1.8,3.22,2.73,4.65,1.42,1.21,3.15,2.48,5.19,3.64,7.37,4.19,14.32,4.37,17.69,4.21-4-.33-10.96-.3-17.22,3.42-1.5.89-2.76,1.87-3.81,2.85-.67,1.29-1.31,2.7-1.89,4.24-2.08,5.52-2.67,10.84-2.68,15.18,0,.43.59-7.39-3.39-14.73-2.44-4.51-6.07-7.71-9.09-9.86-2.56-1.08-6.36-2.48-11.03-3.42-3.7-.74-7.76-1.15-7.76-1.14Z"/><path class="cls-31" d="m427.04,671.5s5.67,1.11,10.97-1.5c3.6-1.78,5.76-4.32,6.72-5.59,1.2-1.25,2.62-2.98,3.83-5.22,2.75-5.09,2.78-9.71,2.63-11.91.02,3.66.54,8.22,2.42,12.99.5,1.26,1.05,2.42,1.62,3.48,1,.82,2.23,1.65,3.74,2.36,5.44,2.55,11.06,1.85,13.82,1.3-3.21.22-8.86,1.09-14.44,4.91-1.33.91-2.48,1.87-3.46,2.8-.71,1.14-1.42,2.38-2.09,3.71-2.41,4.79-3.58,9.23-4.15,12.8-.06.36,1.44-6.14-.84-11.69-1.4-3.4-3.92-5.59-6.1-6.99-1.94-.58-4.84-1.26-8.51-1.47-2.91-.16-6.15,0-6.15,0Z"/><path class="cls-17" d="m408.33,637.2c0,15.28-35.7,27.68-79.76,27.68s-79.75-12.4-79.75-27.68c0-10.43,16.64-19.52,41.2-24.23-11.91-4-19.4-9.84-19.4-16.34,0-9.08,14.67-16.88,35.55-20.17-6.13-3.98-9.95-9.62-9.95-15.87,0-9.24,8.35-17.15,20.15-20.34.42-11.29,3.36-20.44,8.93-25.52,13.62-12.42,37.86,4.2,54.12,37.1-.6-.89-13-19.13-31.32-8.27,7.24,4,11.87,10.15,11.87,17.02,0,6.19-3.75,11.78-9.77,15.76,21.29,3.23,36.32,11.1,36.32,20.29,0,6.5-7.5,12.33-19.41,16.34,24.57,4.71,41.21,13.8,41.21,24.23Z"/><path class="cls-5" d="m342.55,614.7s-4.52,3.5-14.13,3.5c-9.61,0-14.14-3.5-14.14-3.5,0,8.83,6.33,15.99,14.13,15.99,7.81,0,14.13-7.16,14.13-15.99Z"/><path class="cls-5" d="m300.34,604.48c3.17-.76,23.12-.54,26.75.46-.09-15.24-8.16-25.26-13.86-25.13-5.59.13-12.92,10.12-12.89,24.68Z"/><path class="cls-9" d="m303.51,604.62c2.37-.51,17.24-.37,19.95.31-.07-10.27-6.09-17.01-10.33-16.93-4.17.09-9.64,6.81-9.61,16.62Z"/><ellipse class="cls-25" cx="313.67" cy="598.01" rx="6.17" ry="6.92"/><ellipse class="cls-30" cx="315.04" cy="596.47" rx="2.98" ry="3.34"/><path class="cls-5" d="m330.45,605.04c3.17-.76,23.12-.54,26.75.46-.09-15.24-8.16-25.26-13.86-25.13-5.59.13-12.92,10.12-12.89,24.68Z"/><path class="cls-9" d="m333.63,605.19c2.37-.51,17.24-.37,19.95.31-.07-10.27-6.09-17.01-10.33-16.93-4.17.09-9.64,6.81-9.61,16.62Z"/><ellipse class="cls-25" cx="343.78" cy="598.57" rx="6.17" ry="6.92"/><ellipse class="cls-30" cx="345.16" cy="597.03" rx="2.98" ry="3.34"/><rect class="cls-4" x="123.08" y="485" width="11.17" height="595.5"/><ellipse class="cls-3" cx="128.66" cy="472.66" rx="15.15" ry="14.66"/><path class="cls-13" d="m1416.87,1023.01c4.17,14.19,1.34,32.43-11.39,44.96-16.02,15.78-40.49,15.37-75.46,14.78-32.29-.54-52.65-.88-68.34-14.78-12.84-11.38-19.46-29.1-15.66-44.96,7.43-31,52.54-46.21,85.42-46.2,32.8.02,76.32,15.21,85.42,46.2Z"/><path class="cls-27" d="m1298.63,1096.98s-19.42.34-24.16-23.22c-4.74-23.56,13.34-30.55,13.34-30.55-13.05,2.54-21.21,16.64-18.23,31.49,2.99,14.85,15.99,24.83,29.04,22.28Z"/><path class="cls-27" d="m1383.65,1097.91s16.74-6.71,12-30.26c-4.74-23.56-22.82-23.51-22.82-23.51,12.11-2.36,24.36,7.76,27.34,22.61s-4.41,28.8-16.53,31.16Z"/><path class="cls-27" d="m1332.15,1098.02s-19.42.2-24-23.38c-4.57-23.59,13.56-30.46,13.56-30.46-13.07,2.45-21.33,16.5-18.45,31.37,2.88,14.87,15.82,24.93,28.89,22.48Z"/><path class="cls-27" d="m1362.37,1097.91s10.93-5.58,6.19-29.13c-4.74-23.56-17-24.64-17-24.64,8.07-1.57,17.03,9.19,20.02,24.04s-1.13,28.16-9.2,29.73Z"/><path class="cls-13" d="m1862.23,1021.86c4.17,14.19,1.34,32.43-11.39,44.96-16.02,15.78-40.49,15.37-75.46,14.78-32.29-.54-52.65-.88-68.34-14.78-12.84-11.38-19.46-29.1-15.66-44.96,7.43-31,52.54-46.21,85.42-46.2,32.8.02,76.32,15.21,85.42,46.2Z"/><path class="cls-27" d="m1743.99,1095.83s-19.42.34-24.16-23.22c-4.74-23.56,13.34-30.55,13.34-30.55-13.05,2.54-21.21,16.64-18.23,31.49,2.99,14.85,15.99,24.83,29.04,22.28Z"/><path class="cls-27" d="m1829.01,1096.75s16.74-6.71,12-30.26c-4.74-23.56-22.82-23.51-22.82-23.51,12.11-2.36,24.36,7.76,27.34,22.61,2.99,14.85-4.41,28.8-16.53,31.16Z"/><path class="cls-27" d="m1777.51,1096.86s-19.42.2-24-23.38c-4.57-23.59,13.56-30.46,13.56-30.46-13.07,2.45-21.33,16.5-18.45,31.37,2.88,14.87,15.82,24.93,28.89,22.48Z"/><path class="cls-27" d="m1807.73,1096.75s10.93-5.58,6.19-29.13c-4.74-23.56-17-24.64-17-24.64,8.07-1.57,17.03,9.19,20.02,24.04,2.99,14.85-1.13,28.16-9.2,29.73Z"/><path class="cls-28" d="m1426.21,1072.42c32.46-50.4,78.92-93.84,130.52-93.84s98.47,43.83,130.96,94.51c29.02,45.28-290.76,44.78-261.48-.67Z"/><path class="cls-13" d="m1535.28,829.6h-31.67c-1.84.54-3.76.83-5.74.83s-3.9-.29-5.74-.83h-32.98s-5.02-87.83,38.05-101.26c43.08-13.43,38.06,101.26,38.06,101.26Z"/><path class="cls-13" d="m1570.69,910.12c-10.29,6.03-21.17,5.78-26.04,5.69-5.87-.12-16.13-.33-25.55-6.62-2.96-1.98-15.27-9.94-14.26-21.78.77-9.1,9.12-17.04,20.88-19.87,3.34-.8,6.03-1.09,11.37-1.39,10.73-.59,19.57.19,25.54.98,12.67,2.48,22.27,10.53,23.82,19.76,2.15,12.72-12.12,21.09-15.76,23.23Z"/><path class="cls-13" d="m1632.04,829.33h-32.98c-1.84.54-3.76.83-5.74.83s-3.9-.29-5.74-.83h-31.67s-5.02-114.69,38.06-101.26c43.08,13.43,38.05,101.26,38.05,101.26Z"/><path class="cls-15" d="m1535.28,829.6h-76.12s-5.02-87.83,38.05-101.26c43.08-13.43,38.06,101.26,38.06,101.26Z"/><ellipse class="cls-15" cx="1497.49" cy="792.47" rx="30.68" ry="37.14"/><path class="cls-14" d="m1522.8,799.48c0,11.18-4.78,20.98-11.93,26.41-.02.02-.05.04-.08.05-2.19,1.68-4.61,2.91-7.18,3.66-1.84.54-3.76.83-5.74.83s-3.9-.29-5.74-.83c-1.72-.5-3.36-1.22-4.92-2.14-8.44-4.96-14.27-15.62-14.27-27.98,0-17.09,11.16-30.95,24.92-30.95s24.92,13.86,24.92,30.95Z"/><ellipse class="cls-2" cx="1498.26" cy="799.89" rx="18.41" ry="19.81"/><ellipse class="cls-15" cx="1504.78" cy="787.93" rx="7.29" ry="7.84"/><path class="cls-15" d="m1632.04,829.33h-76.12s-5.02-114.69,38.06-101.26c43.08,13.43,38.05,101.26,38.05,101.26Z"/><ellipse class="cls-15" cx="1593.71" cy="792.19" rx="30.68" ry="37.14"/><path class="cls-14" d="m1618.25,799.21c0,12.36-5.84,23.02-14.27,27.98-1.56.92-3.2,1.63-4.92,2.14-1.84.54-3.76.83-5.74.83s-3.9-.29-5.74-.83c-2.57-.75-4.99-1.99-7.18-3.66-.02,0-.05-.03-.08-.05-7.16-5.43-11.93-15.23-11.93-26.41,0-17.09,11.16-30.95,24.92-30.95s24.92,13.86,24.92,30.95Z"/><ellipse class="cls-2" cx="1592.95" cy="799.62" rx="18.41" ry="19.81"/><ellipse class="cls-15" cx="1586.43" cy="787.65" rx="7.29" ry="7.84"/><path class="cls-11" d="m1570.69,910.12c-10.29,6.03-21.17,5.78-26.04,5.69-5.87-.12-16.13-.33-25.55-6.62-2.96-1.98-15.27-9.94-14.26-21.78.77-9.1,9.12-17.04,20.88-19.87,3.34-.8,6.03-1.09,11.37-1.39,10.73-.59,19.57.19,25.54.98,12.67,2.48,22.27,10.53,23.82,19.76,2.15,12.72-12.12,21.09-15.76,23.23Z"/><ellipse class="cls-30" cx="1555.85" cy="879.51" rx="10.58" ry="20.5" transform="translate(513.21 2331.09) rotate(-83.79)"/><path class="cls-8" d="m1715.8,816.62c-4.39-48.38-24.44-105.15-57.41-147.22-2.28-2.93-4.64-5.77-7.04-8.55.87-3.18,1.37-6.67,1.37-10.32,0-15.05-8.25-27.24-18.41-27.24-5.51,0-10.45,3.57-13.83,9.25-.2.33-.39.68-.58,1.03.11-.4.22-.81.31-1.23.69-2.83,1.05-5.88,1.05-9.05,0-15.05-8.24-27.24-18.39-27.24-8.06,0-14.91,7.67-17.4,18.34-.34-.11-.69-.22-1.02-.35-.35-14.59-8.45-26.25-18.39-26.25-8.53,0-15.71,8.58-17.79,20.23-.47-.01-.95-.01-1.42-.01-.95,0-1.92,0-2.88.04-2.08-11.66-9.26-20.26-17.79-20.26-10.04,0-18.21,11.9-18.41,26.69-.3.11-.6.21-.91.32-2.4-10.89-9.32-18.76-17.49-18.76-10.16,0-18.41,12.19-18.41,27.24,0,3.46.44,6.75,1.24,9.79-.22.15-.43.31-.64.47-3.36-6.26-8.56-10.26-14.39-10.26-10.17,0-18.41,12.19-18.41,27.24,0,4.28.67,8.33,1.87,11.92-2.22,2.58-4.37,5.23-6.48,7.95-32.49,41.82-52.27,97.88-56.26,146.22-.4,4.73-.9,12.45-.87,22.23.05,22.27,2.78,55.14,15.49,87.42,7.28,18.49,17.84,36.77,33.05,52.76,41.69,43.82,94.62,45.38,121.29,46.17,10.22.31,23.34.7,37.88-.85,23.69-2.52,51.11-10.19,75.7-31.8,44.8-39.31,54.67-102.34,56.12-141.67.64-17.54-.39-30.37-.74-34.26Zm-220.58-88.27c43.08-13.43,38.07,101.26,38.07,101.26h-31.67c-1.84.54-3.76.82-5.74.82s-3.9-.28-5.74-.82h-32.97s-5.02-87.83,38.05-101.26Zm40.79,187.13c-.5-.04-1.02-.1-1.55-.17-.52-.06-1.06-.13-1.61-.22-.44-.07-.93-.14-1.4-.24-.05-.01-.09-.01-.15-.03-.39-.07-.79-.14-1.2-.24-.2-.04-.4-.08-.6-.14-.09-.01-.2-.04-.31-.07h-.03c-.27-.07-.55-.14-.82-.21-.46-.13-.91-.25-1.38-.39-.03,0-.04-.01-.07-.01-.47-.15-.95-.29-1.42-.46-.42-.14-.82-.28-1.24-.45-.09-.03-.17-.07-.27-.1-.4-.17-.82-.33-1.22-.5-.47-.21-.94-.42-1.41-.66-.48-.22-.95-.46-1.42-.73-.42-.22-.82-.46-1.25-.7,0-.01-.01-.01-.01-.01-.51-.31-1.03-.63-1.55-.98-2.97-1.98-15.28-9.94-14.27-21.78.04-.49.11-.96.19-1.44.04-.24.09-.47.15-.71.03-.15.07-.32.11-.47.05-.24.12-.47.2-.73.04-.15.09-.31.15-.46.12-.38.26-.75.4-1.12.01-.06.04-.13.08-.18.08-.22.17-.43.28-.66l.24-.5c.11-.22.23-.45.35-.66.15-.28.31-.54.47-.81.11-.2.23-.39.35-.57.11-.17.23-.35.35-.52.16-.22.34-.46.51-.68.13-.2.3-.38.44-.56.15-.2.31-.38.47-.56h0s.03-.06.05-.07c.34-.39.69-.77,1.05-1.13.38-.38.77-.74,1.17-1.1.01,0,.01-.01.01-.01.34-.29.68-.59,1.03-.86.04-.03.07-.06.11-.08.11-.1.23-.18.36-.28.35-.26.71-.54,1.1-.79.43-.31.89-.6,1.36-.89.04-.03.09-.06.15-.08.39-.24.78-.46,1.18-.68.04-.03.09-.04.13-.07.11-.06.21-.11.32-.17.46-.24.91-.47,1.38-.68.48-.22.97-.45,1.48-.66.05-.03.12-.04.17-.07.27-.11.55-.22.83-.32.23-.1.44-.17.67-.25.03-.01.07-.03.09-.03.3-.11.58-.21.87-.29.27-.1.54-.18.82-.25.23-.07.46-.14.69-.2.36-.1.73-.2,1.09-.28,3.33-.79,6.03-1.09,11.38-1.38,10.72-.59,19.56.2,25.53.98,12.67,2.48,22.28,10.54,23.82,19.76,2.15,12.72-12.12,21.1-15.76,23.23-10.29,6.04-21.18,5.79-26.04,5.69-1.22-.03-2.65-.06-4.21-.15-.78-.04-1.59-.1-2.43-.18Zm94.03-86.14h-32.97c-1.84.53-3.76.82-5.74.82s-3.9-.29-5.74-.82h-31.67s-5.01-114.69,38.06-101.27c43.08,13.43,38.05,101.27,38.05,101.27Z"/><path class="cls-8" d="m1436.14,670.39c-32.49,41.82-52.27,97.88-56.27,146.22-.39,4.73-.89,12.46-.87,22.24-15.42,30.91-38.64,77.03-50.39,72.9-3.91-1.37-6.95-8.41-11.42-7.33-5.31,1.28-5.15,12.19-10.02,13.09-2.78.52-4.32-2.76-7.18-6.06-1.43-1.65-3.18-3.3-5.58-4.5-10.15-5.05-17.11,5.45-26.87.78-5.37-2.57-8.41-8.21-13.9-18.42-4.98-9.26-5.19-13.6-9-14.9-6.39-2.2-12.52,7.66-16.27,5.18-2-1.32-1.17-4.75-1.68-15.75-.48-10.48-.78-15.75-3.31-17.5-4.77-3.3-13.27,5.06-15.46,2.57-1.62-1.85,4.84-7.12,4.84-15.73,0-.07,0-.13,0-.21h0c-.05-4.32-1.71-7.53-4.4-12.74-5.29-10.26-10.68-13.04-9.51-16.55,1.53-4.56,9.41-5.27,11.36-5.51,24.8-3.12,45.09-52.71,60.01-78.82,28.77-50.34,85.85-100.14,124.02-84.69,12.55,5.08,24.5,15.59,24.5,15.59,0,0,10.41,9.16,17.43,20.14Z"/><path class="cls-29" d="m1213.88,834.07c5.52-12.81,13.1-24.62,22.11-35.25s19.18-19.97,29.95-28.63c10.7-8.6,21.97-16.46,33.34-24.13,10.63-7.17,21.24-14.57,30.39-23.61s16.61-19.77,19.87-32.26c.41-1.58.75-3.18,1.03-4.8.33-1.89-2.56-2.7-2.89-.8-2.22,12.77-8.88,23.93-17.7,33.25-8.8,9.31-19.27,16.83-29.82,24-11.27,7.66-22.51,15.36-33.25,23.77-10.78,8.45-21.07,17.59-30.2,27.82-9.22,10.34-17.24,21.79-23.23,34.31-.76,1.59-1.48,3.19-2.18,4.81-.76,1.75,1.83,3.28,2.59,1.51h0Z"/><path class="cls-26" d="m1232.55,878.11c5.38-16.65,13.28-32.37,23.26-46.74,9.37-13.5,20.48-25.71,32.43-36.96,11.58-10.9,23.96-20.91,36.5-30.67,11.75-9.15,23.4-18.64,32.97-30.12,10.23-12.26,17.67-26.63,20.39-42.45.36-2.12.65-4.26.87-6.4.2-1.92-2.8-1.9-3,0-1.65,16.12-8.15,31.12-18.07,43.86-9.2,11.8-20.69,21.54-32.41,30.74-12.39,9.73-24.77,19.47-36.38,30.14-12.01,11.03-23.22,22.97-32.88,36.13-10.19,13.88-18.48,29.11-24.39,45.3-.77,2.11-1.5,4.24-2.19,6.38-.6,1.84,2.3,2.63,2.89.8h0Z"/><path class="cls-29" d="m1301.49,911.49c1.43-15.47,5.25-30.63,10.95-45.06s12.74-27.11,20.84-39.68c7.93-12.29,16.71-24,25.71-35.52s17.49-22.49,24.04-35.15,10.92-27.45,10.27-42.24c-.09-2-.27-3.98-.51-5.97s-3.24-1.91-3,0c1.86,14.92-1.2,29.68-7.61,43.19-6.14,12.95-14.73,24.53-23.52,35.77s-17.83,23.06-25.87,35.21-15.58,25.37-21.38,39.06-10.24,29.02-12.23,44.3c-.26,2.02-.49,4.04-.67,6.07-.18,1.92,2.82,1.91,3,0h0Z"/><path class="cls-8" d="m1880.59,836.78c0,8.62,6.45,13.88,4.83,15.73-2.19,2.49-10.69-5.87-15.46-2.57-2.53,1.75-2.82,7.02-3.31,17.5-.51,11.01.32,14.43-1.68,15.75-3.75,2.48-9.89-7.38-16.27-5.18-3.82,1.3-4.03,5.64-9,14.9-5.5,10.21-8.53,15.85-13.9,18.42-9.76,4.67-16.72-5.83-26.87-.77-2.4,1.19-4.16,2.85-5.58,4.49-2.86,3.3-4.41,6.58-7.19,6.06-4.87-.9-4.72-11.81-10.02-13.09-4.47-1.08-7.51,5.96-11.42,7.33-10.73,3.76-31-34.31-46.18-64.48.65-17.55-.38-30.38-.74-34.27-4.39-48.37-24.44-105.14-57.41-147.22,6.6-8.83,14.23-15.54,14.23-15.54,0,0,11.94-10.51,24.5-15.59,38.17-15.44,95.24,34.35,124.02,84.69,14.92,26.11,35.22,75.7,60.01,78.82,1.95.25,9.82.95,11.36,5.51,1.18,3.51-4.22,6.29-9.5,16.55-2.7,5.22-4.36,8.43-4.4,12.75h0c0,.07,0,.13,0,.2Z"/><path class="cls-29" d="m1882.04,836.17c-5.52-12.81-13.11-24.59-22.07-35.26s-18.9-19.87-29.54-28.49c-10.67-8.64-21.9-16.56-33.26-24.26-10.6-7.18-21.23-14.41-30.47-23.33s-16.77-19.4-20.01-31.84c-.41-1.58-.75-3.18-1.03-4.8-.33-1.9-3.22-1.09-2.89.8,2.21,12.76,8.8,24.05,17.48,33.51s19.29,17.25,29.93,24.52c11.21,7.67,22.47,15.24,33.2,23.59,10.86,8.45,21.25,17.59,30.48,27.82,9.33,10.35,17.39,21.85,23.42,34.43.76,1.59,1.48,3.19,2.18,4.81.76,1.77,3.35.24,2.59-1.51h0Z"/><path class="cls-26" d="m1863.67,880.92c-5.36-16.58-13.15-32.3-23.02-46.67-9.28-13.51-20.24-25.79-32.09-37.08-11.53-10.98-23.89-21.05-36.43-30.85-11.72-9.14-23.41-18.46-33.15-29.76-10.34-12-17.88-26.14-20.73-41.81-.38-2.11-.68-4.24-.9-6.38-.2-1.9-3.2-1.92-3,0,1.67,16.26,7.9,31.42,17.75,44.43,9.1,12.02,20.51,21.95,32.29,31.26,12.32,9.73,24.7,19.35,36.33,29.92,12.1,10.99,23.47,22.86,33.21,36.01,10.29,13.88,18.73,29.11,24.65,45.35.77,2.11,1.5,4.24,2.19,6.38.59,1.83,3.49,1.05,2.89-.8h0Z"/><path class="cls-26" d="m1794.84,915.09c-1.43-15.47-5.11-30.63-10.76-45.1s-12.53-27.19-20.58-39.8-16.62-24.08-25.6-35.63-17.57-22.42-24.29-35.01-11.24-27.29-10.58-42.11c.09-2,.27-3.98.51-5.97s-2.76-1.89-3,0c-1.86,14.92,1.16,29.7,7.36,43.29s14.49,24.73,23.27,36.02,17.82,22.96,25.9,35.05,15.72,25.26,21.62,38.9,10.46,29.04,12.47,44.29c.26,2.02.49,4.04.67,6.07.18,1.91,3.18,1.92,3,0h0Z"/><path class="cls-1" d="m1549.67,916.95c-3.75,29.49,10.81,54.17,30.24,58.68,18.17,4.22,34.1-10.72,36.22-12.76"/><path class="cls-1" d="m1477.81,963.62c20.8,17.28,47.78,14.58,61.77-2.15,13.1-15.65,10.15-37.99,9.71-40.99"/><path class="cls-6" d="m1592.15,827.37s21.41-15.64,27.17-26.88l1.28-2.52c.97-2.31,1.53-4.87,1.53-7.59,0-9.95-7.3-18.02-16.31-18.02-5.74,0-10.78,3.29-13.69,8.24-2.91-4.96-7.95-8.24-13.69-8.24-9.01,0-16.31,8.07-16.31,18.02,0,2.71.56,5.28,1.53,7.59l1.28,2.52c5.77,11.24,27.17,26.88,27.17,26.88h.04Z"/><path class="cls-6" d="m1498.22,826.37s21.41-15.64,27.17-26.88l1.28-2.52c.97-2.31,1.53-4.87,1.53-7.59,0-9.95-7.3-18.02-16.31-18.02-5.74,0-10.78,3.29-13.69,8.24-2.91-4.96-7.95-8.24-13.69-8.24-9.01,0-16.31,8.07-16.31,18.02,0,2.71.56,5.28,1.53,7.59l1.28,2.52c5.77,11.24,27.17,26.88,27.17,26.88h.04Z"/><circle class="cls-7" cx="1611.63" cy="784.87" r="7"/><circle class="cls-7" cx="1512.63" cy="780.87" r="7"/></svg>